<svg width="1251" height="667" viewBox="0 0 1251 667" fill="none" xmlns="http://www.w3.org/2000/svg">
<path opacity="0.9" d="M370.508 394.531C252.421 527.217 68.2142 517.114 -12.6918 506.253L-100.443 -640.749L982.106 -764.946L1025.15 -202.29C995.867 -143.784 1010.57 22.2268 837.392 131.119C658.159 243.821 544.608 198.904 370.508 394.531Z" fill="url(#paint0_linear_85_40)" fill-opacity="0.9"/>
<path d="M303.475 388.479C214.356 527.727 38.2705 543.326 -40.1652 544.211L-319.07 -509.174L684.406 -771.338L821.222 -254.605C803.491 -196.296 845.75 -44.1055 700.426 80.5143C550.017 209.495 434.867 183.177 303.475 388.479Z" fill="url(#paint1_linear_85_40)"/>
<defs>
<linearGradient id="paint0_linear_85_40" x1="549.922" y1="446.302" x2="416.715" y2="-714.785" gradientUnits="userSpaceOnUse">
<stop stop-color="#CE4740"/>
<stop offset="0.5" stop-color="#2C2C6E"/>
<stop offset="1" stop-color="#2A8D96"/>
</linearGradient>
<linearGradient id="paint1_linear_85_40" x1="482.138" y1="412.229" x2="202.104" y2="-659.647" gradientUnits="userSpaceOnUse">
<stop stop-color="#CE4740"/>
<stop offset="0.5" stop-color="#2C2C6E"/>
<stop offset="1" stop-color="#2A8D96"/>
</linearGradient>
</defs>
</svg>
