<svg width="530" height="630" viewBox="0 0 530 630" fill="none" xmlns="http://www.w3.org/2000/svg">
<g opacity="0.8" clip-path="url(#clip0_232_149)">
<g filter="url(#filter0_d_232_149)">
<mask id="mask0_232_149" style="mask-type:luminance" maskUnits="userSpaceOnUse" x="110" y="-2" width="300" height="552">
<path d="M409.814 -1.37062H110.003V549.908H409.814V-1.37062Z" fill="white"/>
</mask>
<g mask="url(#mask0_232_149)">
<g filter="url(#filter1_d_232_149)">
<mask id="mask1_232_149" style="mask-type:luminance" maskUnits="userSpaceOnUse" x="111" y="-2" width="296" height="552">
<path d="M400.841 183.242H396.627V28.3562C396.627 11.9534 384.271 -1.37085 369.011 -1.37085H149.823C134.585 -1.37085 122.207 11.93 122.207 28.3562V73.0055H117.993C114.631 73.0055 111.88 75.9665 111.88 79.5854V117.655C111.88 121.274 114.631 124.235 117.993 124.235H122.207V131.026H117.993C114.631 131.026 111.88 133.987 111.88 137.606V175.675C111.88 179.294 114.631 182.255 117.993 182.255H122.207V519.499C122.207 535.901 134.563 549.226 149.823 549.226H369.011C384.249 549.226 396.627 535.925 396.627 519.499V242.884H400.841C404.203 242.884 406.954 239.923 406.954 236.305V189.869C406.954 186.25 404.247 183.289 400.841 183.289V183.242Z" fill="white"/>
</mask>
<g mask="url(#mask1_232_149)">
<path d="M111.88 -1.37085V549.179H406.932V-1.37085H111.88Z" fill="url(#paint0_linear_232_149)"/>
</g>
</g>
</g>
</g>
<path d="M364.496 542.136H153.639C140.61 542.136 130.037 531.237 130.037 517.756V57.7489C130.037 44.29 140.61 33.3687 153.639 33.3687H364.54C377.569 33.3687 388.141 44.29 388.141 57.7489V517.801C388.097 531.215 377.525 542.113 364.496 542.113V542.136Z" fill="white" fill-opacity="0.9"/>
<path d="M365.997 528.491H152.181C147.548 528.491 143.829 524.614 143.829 519.786V446.022C143.829 441.193 147.548 437.317 152.181 437.317H365.997C370.63 437.317 374.349 441.193 374.349 446.022V519.786C374.349 524.614 370.63 528.491 365.997 528.491ZM374.349 147.633V122.267C374.349 115.126 368.824 109.391 361.994 109.391H311.597C304.767 109.391 299.242 115.149 299.242 122.267V147.633C299.242 154.774 304.767 160.509 311.597 160.509H361.994C368.846 160.509 374.349 154.706 374.349 147.633ZM218.936 239.668V232.981C218.936 225.863 213.411 220.105 206.581 220.105H156.205C149.353 220.105 143.85 225.863 143.85 232.981V239.668C143.85 246.809 149.375 252.544 156.205 252.544H206.581C213.433 252.544 218.936 246.786 218.936 239.668ZM218.936 283.124V276.437C218.936 269.296 213.411 263.561 206.581 263.561H156.205C149.353 263.561 143.85 269.319 143.85 276.437V283.124C143.85 290.265 149.375 296 156.205 296H206.581C213.433 296 218.936 290.197 218.936 283.124ZM374.349 363.961V338.595C374.349 331.454 368.824 325.719 361.994 325.719H311.597C304.767 325.719 299.242 331.477 299.242 338.595V363.961C299.242 371.102 304.767 376.837 311.597 376.837H361.994C368.846 376.837 374.349 371.079 374.349 363.961Z" fill="#F26454" fill-opacity="0.85"/>
<mask id="mask2_232_149" style="mask-type:luminance" maskUnits="userSpaceOnUse" x="363" y="37" width="167" height="110">
<path d="M530 37.302H363.041V146.661H530V37.302Z" fill="white"/>
</mask>
<g mask="url(#mask2_232_149)">
<path d="M487.231 126.462H384.999L365.457 144.06V82.878C365.457 58.7894 384.276 39.2702 407.501 39.2702H487.231C510.456 39.2702 529.276 58.7894 529.276 82.878C529.276 106.967 510.456 126.486 487.231 126.486V126.462Z" fill="#D3483D"/>
</g>
<path d="M411.795 84.2844C411.795 89.1584 407.977 93.1653 403.233 93.1653C398.488 93.1653 394.647 89.2052 394.647 84.2844C394.647 79.3636 398.466 75.3801 403.233 75.3801C408 75.3801 411.795 79.3402 411.795 84.2844ZM432.445 75.3801C427.746 75.3801 423.86 79.3402 423.86 84.2844C423.86 89.2287 427.678 93.1653 432.445 93.1653C437.212 93.1653 441.008 89.2052 441.008 84.2844C441.008 79.3636 437.144 75.3801 432.445 75.3801ZM461.612 75.3801C456.913 75.3801 453.027 79.3402 453.027 84.2844C453.027 89.2287 456.845 93.1653 461.612 93.1653C466.379 93.1653 470.175 89.2052 470.175 84.2844C470.175 79.3636 466.356 75.3801 461.612 75.3801ZM490.96 75.3801C486.26 75.3801 482.375 79.3402 482.375 84.2844C482.375 89.2287 486.193 93.1653 490.96 93.1653C495.727 93.1653 499.545 89.2052 499.545 84.2844C499.545 79.3636 495.727 75.3801 490.96 75.3801Z" fill="#EEEEF4"/>
<mask id="mask3_232_149" style="mask-type:luminance" maskUnits="userSpaceOnUse" x="363" y="268" width="167" height="110">
<path d="M530 268.487H363.041V377.847H530V268.487Z" fill="white"/>
</mask>
<g mask="url(#mask3_232_149)">
<path d="M487.231 358.843H384.999L365.457 376.44V315.188C365.457 291.099 384.276 271.58 407.501 271.58H487.231C510.456 271.58 529.276 291.099 529.276 315.188C529.276 339.276 510.456 358.843 487.231 358.843Z" fill="#D3483D"/>
</g>
<path d="M411.795 316.617C411.795 321.491 407.977 325.498 403.233 325.498C398.488 325.498 394.647 321.538 394.647 316.617C394.647 311.696 398.466 307.713 403.233 307.713C408 307.713 411.795 311.72 411.795 316.617ZM432.445 307.713C427.746 307.713 423.86 311.673 423.86 316.617C423.86 321.561 427.678 325.498 432.445 325.498C437.212 325.498 441.008 321.538 441.008 316.617C441.008 311.696 437.144 307.713 432.445 307.713ZM461.612 307.713C456.913 307.713 453.027 311.673 453.027 316.617C453.027 321.561 456.845 325.498 461.612 325.498C466.379 325.498 470.175 321.538 470.175 316.617C470.175 311.696 466.356 307.713 461.612 307.713ZM490.96 307.713C486.26 307.713 482.375 311.673 482.375 316.617C482.375 321.561 486.193 325.498 490.96 325.498C495.727 325.498 499.545 321.538 499.545 316.617C499.545 311.696 495.727 307.713 490.96 307.713Z" fill="#EEEEF4"/>
<mask id="mask4_232_149" style="mask-type:luminance" maskUnits="userSpaceOnUse" x="0" y="181" width="165" height="110">
<path d="M164.226 181.014H0V290.373H164.226V181.014Z" fill="white"/>
</mask>
<g mask="url(#mask4_232_149)">
<path d="M42.0673 270.76H144.276L163.841 288.358V227.175C163.841 203.087 145.022 183.568 121.797 183.568H42.0673C18.8421 183.497 0.0224609 203.063 0.0224609 227.152C0.0224609 251.241 18.8421 270.76 42.0673 270.76Z" fill="#2F5384"/>
</g>
<path d="M126.067 219.7C130.766 219.7 134.652 223.661 134.652 228.605C134.652 233.549 130.834 237.486 126.067 237.486C121.3 237.486 117.481 233.526 117.481 228.605C117.481 223.684 121.3 219.7 126.067 219.7ZM88.3369 228.534C88.3369 233.408 92.1551 237.439 96.8995 237.439C101.644 237.439 105.485 233.479 105.485 228.534C105.485 223.59 101.667 219.654 96.8995 219.654C92.1551 219.7 88.3369 223.661 88.3369 228.534ZM59.1247 228.534C59.1247 233.408 62.9428 237.439 67.6873 237.439C72.4317 237.439 76.2724 233.479 76.2724 228.534C76.2724 223.59 72.4543 219.654 67.6873 219.654C62.9428 219.7 59.1247 223.661 59.1247 228.534ZM29.7769 228.534C29.7769 233.408 33.595 237.439 38.362 237.439C43.1291 237.439 46.9472 233.479 46.9472 228.534C46.9472 223.59 43.1291 219.654 38.362 219.654C33.595 219.654 29.7769 223.661 29.7769 228.534Z" fill="#EEEEF4"/>
</g>
<g clip-path="url(#clip1_232_149)" filter="url(#filter2_d_232_149)">
<path d="M316.993 580.275C306.782 569.978 290.43 553.486 282.135 545.122C278.738 541.69 274.195 539.481 268.922 538.652C265.328 538.1 260.983 541.572 260.371 545.497C259.126 553.467 261.714 560.036 264.558 566.111C271.588 581.103 292.938 602.171 306.111 599.784C306.229 599.765 306.328 599.745 306.446 599.725C320.232 597.161 324.971 588.304 316.973 580.255L316.993 580.275Z" fill="#DDDDDD"/>
<mask id="mask5_232_149" style="mask-type:luminance" maskUnits="userSpaceOnUse" x="260" y="538" width="61" height="62">
<path d="M316.993 580.275C306.782 569.978 290.43 553.486 282.135 545.122C278.738 541.69 274.195 539.481 268.922 538.652C265.328 538.1 260.983 541.572 260.371 545.497C259.126 553.467 261.714 560.036 264.558 566.111C271.588 581.103 292.938 602.171 306.111 599.784C306.229 599.765 306.328 599.745 306.446 599.725C320.232 597.161 324.971 588.304 316.973 580.255L316.993 580.275Z" fill="white"/>
</mask>
<g mask="url(#mask5_232_149)">
<path d="M317.132 596.194C316.5 595.405 278.423 597.378 259.878 540.605L255.967 560.726L286.836 602.96L310.911 605.387L317.132 596.175V596.194Z" fill="#B6B6D9"/>
</g>
<path d="M439.499 598.365V641.388C439.499 656.242 435.648 670.958 427.748 683.938C418.525 699.068 405.589 711.18 394.865 714.495C389.987 715.994 377.88 714.869 374.444 713.962C341.028 704.671 323.53 671.885 323.233 640.461V598.384C323.312 586.884 324.616 575.462 331.884 567.197C336.564 561.949 343.398 559.148 350.429 559.069L410.309 558.438C412.087 558.379 413.884 558.556 415.642 558.912C422.672 560.352 428.656 564.987 432.271 571.181L435.233 576.271C436.635 578.658 437.662 581.262 438.215 583.984C439.124 588.343 439.479 592.94 439.499 598.384V598.365Z" fill="#DDDDDD"/>
<mask id="mask6_232_149" style="mask-type:luminance" maskUnits="userSpaceOnUse" x="323" y="558" width="117" height="158">
<path d="M439.499 598.365V641.388C439.499 656.242 435.648 670.958 427.748 683.938C418.525 699.068 405.589 711.18 394.865 714.495C389.987 715.994 377.88 714.869 374.444 713.962C341.028 704.671 323.53 671.885 323.233 640.461V598.384C323.312 586.884 324.616 575.462 331.884 567.197C336.564 561.949 343.398 559.148 350.429 559.069L410.309 558.438C412.087 558.379 413.884 558.556 415.642 558.912C422.672 560.352 428.656 564.987 432.271 571.181L435.233 576.271C436.635 578.658 437.662 581.262 438.215 583.984C439.124 588.343 439.479 592.94 439.499 598.384V598.365Z" fill="white"/>
</mask>
<g mask="url(#mask6_232_149)">
<path d="M340.573 562.896C340.652 603.414 340.81 644.86 353.43 683.82C356.807 694.216 361.054 704.335 366.267 713.962L370.77 710.49C356.353 699.246 341.087 687.331 332.693 670.662C322.957 651.33 326.294 628.132 328.487 607.458C329.691 596.076 331.232 584.733 333.108 573.45C333.542 570.826 333.957 568.183 334.471 565.559C334.866 563.508 335.3 560.509 337.413 559.464C339.329 558.497 340.257 560.213 340.198 561.949C340.119 564.178 338.48 566.25 337.354 568.064C327.025 584.576 327.657 604.953 332.496 623.18C338.519 645.846 351.139 666.164 356.156 689.166C356.946 692.776 362.476 691.237 361.686 687.647C356.847 665.454 344.938 645.748 338.677 624.029C335.833 614.126 334.194 603.769 335.024 593.433C335.419 588.442 336.505 583.471 338.302 578.796C340.099 574.121 343.575 570.175 345.274 565.441C346.656 561.574 345.846 556.505 342.015 554.295C337.67 551.81 332.614 554.769 330.58 558.793C329.415 561.121 329.02 563.705 328.566 566.23C328.013 569.386 327.479 572.542 326.986 575.718C326.038 581.676 325.188 587.633 324.418 593.61C322.858 605.703 321.535 617.874 320.843 630.045C320.212 641.408 320.429 653.086 323.865 664.034C330.758 685.93 349.303 700.942 366.741 714.554C369.19 716.467 372.903 714.139 371.244 711.082C352.482 676.462 347.802 636.634 346.715 597.871C346.399 586.213 346.36 574.555 346.34 562.896C346.34 559.207 340.593 559.207 340.593 562.896H340.573Z" fill="#DDDDDD"/>
<path d="M357.598 554.335C352.641 591.283 355.583 629.236 366.07 665.001C368.697 673.956 371.798 682.754 375.353 691.395C377.071 695.557 379.539 699.778 380.428 704.217C381.317 708.655 378.631 712.088 374.938 714.455C360.738 723.588 342.154 717.473 330.738 706.781C318.158 695.005 310.337 677.961 304.768 661.923C298.705 644.485 295.703 625.784 298.132 607.379C299.258 598.818 301.548 590.277 305.103 582.386C308.658 574.495 313.122 566.96 319.56 561.358C325.426 556.248 333.74 553.546 340.396 558.872C347.051 564.198 348.77 573.371 348.77 581.597C348.77 591.342 347.92 601.047 348.059 610.812C348.197 620.576 348.789 630.242 349.856 639.908C351.969 659.181 355.84 678.257 361.528 696.819C362.93 701.396 364.451 705.933 366.07 710.431C367.314 713.883 372.844 712.384 371.6 708.912C364.569 689.284 359.533 668.985 356.65 648.332C355.208 638.034 354.319 627.678 353.964 617.282C353.608 606.886 354.043 596.293 354.438 585.779C354.773 576.468 354.082 566.644 348.296 558.931C343.339 552.343 335.537 548.752 327.302 550.745C319.066 552.737 312.312 559.602 307.513 566.486C302.141 574.199 298.171 582.899 295.545 591.894C290.133 610.398 290.568 630.144 294.952 648.805C297.263 658.668 300.699 668.236 304.827 677.487C308.52 685.753 312.746 693.86 318.158 701.14C328.507 715.027 344.168 725.975 362.259 724.417C370.356 723.726 379.559 720.393 384.24 713.35C386.807 709.484 386.748 704.828 385.326 700.548C383.746 695.774 381.376 691.237 379.52 686.562C364.787 649.476 358.664 609.115 361.725 569.327C362.12 564.316 362.654 559.306 363.325 554.315C363.542 552.776 361.864 551.455 360.461 551.455C358.743 551.455 357.795 552.796 357.598 554.315V554.335Z" fill="#DDDDDD"/>
<path d="M344.88 557.353C345.591 558.3 345.867 556.801 345.867 556.801C345.867 556.801 318.337 668.512 372.431 713.626C372.431 713.626 355.209 719.682 333.089 687.212C310.97 654.743 318.83 577.158 318.83 577.158C318.83 577.158 336.526 546.345 344.9 557.353H344.88Z" fill="#B6B6D9"/>
</g>
<path d="M435.786 577.73C421.468 584.615 378.493 595.07 325.327 580.216C326.571 574.811 327.875 572.345 330.798 568.735C339.29 570.787 385.405 580.748 429.309 567.039L435.806 577.73H435.786Z" fill="url(#paint1_linear_232_149)"/>
<path d="M388.703 632.393L389.868 632.63C390.144 632.689 390.401 632.847 390.539 633.083C390.678 633.3 390.697 633.576 390.263 633.734C389.947 633.853 389.591 633.833 389.295 633.655C388.979 633.478 388.545 633.399 388.169 633.596C387.794 633.951 388.643 634.405 389.098 634.602C389.295 634.701 389.611 634.957 389.473 635.233C389.335 635.49 389.275 635.45 388.999 635.47C388.742 635.47 388.426 635.47 387.616 635.174C387.044 634.957 386.589 634.74 386.155 634.365C385.246 633.636 385.246 633.813 383.607 633.3C383.094 633.142 382.264 632.945 381.731 632.886C381.158 632.827 380.743 632.669 379.381 632.551C378.828 632.491 376.557 632.373 375.688 632.038C373.298 631.091 369.368 629.927 367.867 624.108C365.141 613.534 365.023 612.864 366.405 610.457C366.998 609.411 368.005 608.642 369.17 608.346C369.565 608.248 374.305 607.695 374.305 607.695H374.996C376.3 607.735 377.485 608.484 378.038 609.668C378.097 609.806 378.137 609.905 378.156 609.984C378.334 611.364 378.63 614.777 378.769 616.552C378.907 618.348 379.341 620.182 380.901 621.326L380.487 621.228C380.131 621.149 379.776 621.188 379.46 621.385C379.262 621.504 379.144 621.642 379.164 621.859C379.164 622.293 379.519 622.53 380.033 622.628C380.309 622.687 380.566 622.747 380.763 622.786C380.98 622.845 381.178 623.003 381.237 623.22C381.296 623.417 381.277 623.634 380.941 623.733C380.309 623.95 380.013 623.851 380.013 623.851C380.013 623.851 378.887 623.634 378.907 624.344C378.927 625.055 379.519 625.055 379.519 625.055C379.519 625.055 380.664 625.173 381.237 625.055C381.81 624.936 381.928 625.193 381.928 625.193C381.928 625.193 382.067 625.587 381.652 625.844C381.237 626.1 380.704 626.416 380.566 626.613C380.427 626.83 380.408 627.284 380.684 627.501C380.98 627.718 381.573 627.52 381.751 627.382C381.928 627.224 382.501 626.574 382.797 626.613C383.153 626.672 383.232 626.85 383.192 627.067C383.153 627.284 382.975 627.994 382.699 628.25C382.6 628.329 382.541 628.448 382.501 628.566C382.422 628.822 382.501 629.118 382.758 629.276C382.857 629.335 382.995 629.375 383.153 629.375C383.39 629.375 383.607 629.217 383.745 629.02C383.963 628.704 384.061 628.112 384.397 627.797H384.437C384.753 627.895 385.108 627.875 385.483 627.678C385.839 627.481 387.024 625.883 387.735 626.337C388.189 626.613 387.794 627.303 386.747 628.211C385.681 629.118 387.458 628.783 389.295 628.408C390.599 628.152 390.776 628.191 391.092 628.487C391.309 628.684 391.191 629.197 390.283 629.434C389.058 629.73 388.268 629.651 388.288 630.026C388.288 630.46 388.643 630.598 389.868 630.578C390.678 630.578 391.132 630.657 391.231 630.874C391.389 631.229 391.033 631.505 390.678 631.505C390.342 631.505 390.006 631.564 388.959 631.722C387.853 631.88 388.762 632.413 388.762 632.413L388.703 632.393Z" fill="#B6B6D9"/>
<path d="M380.132 621.208C380.25 621.208 380.369 621.208 380.468 621.247L380.882 621.346L381.416 621.484C384.931 622.786 388.762 624.404 388.762 624.404C388.762 624.404 390.5 625.193 392.377 626.396C394.806 627.954 396.682 630.243 397.788 632.906C398.914 635.628 400.395 640.007 400.533 644.387C400.731 650.068 396.485 650.64 394.747 650.64C394.312 650.64 394.036 650.6 394.036 650.6C394.036 650.6 393.996 650.6 393.897 650.6C393.167 650.6 389.75 650.305 389.157 644.623C388.96 642.749 388.604 641.171 388.19 639.869C387.34 637.186 384.971 635.648 382.739 633.912C381.633 633.044 380.527 632.531 379.52 632.156C380.882 632.274 381.159 632.827 381.732 632.906C382.265 632.965 383.094 633.162 383.608 633.32C385.247 633.833 385.247 633.655 386.156 634.385C386.59 634.74 387.044 634.957 387.617 635.194C388.269 635.45 388.585 635.49 388.841 635.49C388.901 635.49 388.96 635.49 388.999 635.49C389.276 635.47 389.335 635.529 389.473 635.253C389.612 634.977 389.296 634.721 389.098 634.622C388.644 634.425 387.795 633.971 388.17 633.616C388.328 633.537 388.486 633.498 388.664 633.498C388.901 633.498 389.118 633.576 389.296 633.675C389.473 633.774 389.671 633.813 389.868 633.813C390.007 633.813 390.145 633.793 390.283 633.734C390.718 633.576 390.678 633.3 390.56 633.083C390.421 632.847 390.165 632.689 389.888 632.63L388.723 632.393C388.723 632.393 387.814 631.86 388.92 631.702C389.967 631.545 390.303 631.485 390.639 631.485C390.994 631.485 391.35 631.19 391.192 630.854C391.093 630.657 390.698 630.558 389.987 630.558C389.928 630.558 389.888 630.558 389.829 630.558C389.75 630.558 389.671 630.558 389.592 630.558C388.565 630.558 388.269 630.4 388.249 630.006C388.249 629.631 389.039 629.71 390.244 629.414C391.152 629.197 391.271 628.665 391.053 628.467C390.895 628.309 390.757 628.231 390.461 628.231C390.224 628.231 389.849 628.29 389.256 628.408C388.288 628.605 387.321 628.783 386.807 628.783C386.333 628.783 386.215 628.625 386.708 628.211C387.755 627.303 388.15 626.613 387.696 626.337C387.617 626.278 387.518 626.258 387.419 626.258C386.708 626.258 385.761 627.52 385.445 627.678C385.227 627.797 385.01 627.856 384.793 627.856C384.655 627.856 384.536 627.836 384.398 627.797V627.737C384.398 627.737 384.358 627.757 384.358 627.777C384.023 628.092 383.924 628.684 383.707 629C383.568 629.197 383.351 629.335 383.114 629.355C383.114 629.355 383.094 629.355 383.075 629.355C382.936 629.355 382.818 629.316 382.719 629.256C382.482 629.118 382.383 628.822 382.462 628.546C382.502 628.428 382.561 628.329 382.66 628.231C382.936 627.974 383.114 627.264 383.154 627.047C383.193 626.83 383.094 626.652 382.759 626.593C382.759 626.593 382.739 626.593 382.719 626.593C382.423 626.593 381.87 627.224 381.712 627.363C381.593 627.461 381.277 627.58 381.001 627.58C380.863 627.58 380.744 627.56 380.645 627.481C380.349 627.284 380.369 626.81 380.527 626.593C380.645 626.416 381.179 626.08 381.613 625.824C382.028 625.567 381.89 625.173 381.89 625.173C381.89 625.173 381.811 625.015 381.475 625.015C381.396 625.015 381.317 625.015 381.198 625.035C381.001 625.074 380.744 625.074 380.487 625.074C379.974 625.074 379.48 625.035 379.48 625.035C379.48 625.035 378.888 625.035 378.868 624.325C378.868 623.891 379.283 623.792 379.618 623.792C379.816 623.792 379.974 623.812 379.974 623.812C379.974 623.812 380.033 623.832 380.171 623.832C380.329 623.832 380.566 623.812 380.902 623.693C381.218 623.595 381.238 623.358 381.198 623.181C381.139 622.964 380.942 622.806 380.724 622.747C380.527 622.707 380.27 622.628 379.994 622.589C379.5 622.49 379.144 622.273 379.144 621.819C379.144 621.622 379.243 621.484 379.441 621.346C379.638 621.208 379.875 621.149 380.112 621.149M380.112 620.281C379.697 620.281 379.302 620.399 378.967 620.616C378.374 620.971 378.256 621.484 378.256 621.839C378.256 622.056 378.315 622.628 378.848 623.042C378.651 623.121 378.493 623.22 378.354 623.378C378.117 623.634 377.979 623.97 377.999 624.344C378.038 625.331 378.769 625.883 379.46 625.903C379.46 625.903 379.658 625.903 379.915 625.942C379.875 625.982 379.836 626.041 379.796 626.1C379.401 626.692 379.441 627.698 380.152 628.191C380.389 628.349 380.685 628.448 381.001 628.448C381.198 628.448 381.416 628.408 381.613 628.349C381.455 628.98 381.732 629.651 382.285 629.966C382.522 630.105 382.798 630.183 383.075 630.183C383.667 630.144 384.121 629.888 384.418 629.454C384.556 629.237 384.655 629 384.734 628.803C384.734 628.763 384.773 628.724 384.773 628.684C385.01 628.684 385.247 628.645 385.484 628.566C385.484 628.684 385.484 628.803 385.543 628.921C385.662 629.237 385.978 629.611 386.768 629.611C386.945 629.611 387.143 629.611 387.38 629.572C387.34 629.69 387.321 629.828 387.321 629.986C387.34 630.539 387.597 630.874 387.913 631.071C387.617 631.268 387.498 631.525 387.459 631.742C387.38 632.097 387.518 632.452 387.795 632.768C387.775 632.768 387.735 632.787 387.716 632.807C387.637 632.847 387.577 632.886 387.518 632.945C387.242 633.221 387.103 633.596 387.182 633.971V634.01C387.005 633.912 386.827 633.793 386.669 633.655C385.899 633.044 385.603 632.925 384.832 632.728C384.576 632.669 384.26 632.57 383.825 632.432C383.252 632.255 382.344 632.057 381.791 631.998C381.751 631.998 381.633 631.919 381.514 631.86C381.139 631.663 380.586 631.347 379.579 631.249C379.559 631.249 379.52 631.249 379.5 631.249C379.105 631.249 378.73 631.525 378.651 631.919C378.552 632.353 378.789 632.787 379.204 632.925C379.954 633.202 381.06 633.675 382.186 634.563C382.462 634.78 382.739 634.997 383.015 635.214C384.892 636.654 386.669 638.015 387.321 640.106C387.775 641.526 388.091 643.065 388.249 644.682C388.92 651.113 393.048 651.449 393.878 651.449C393.917 651.449 393.957 651.449 393.996 651.449C394.134 651.449 394.391 651.488 394.747 651.488C395.932 651.488 398.143 651.251 399.704 649.614C400.908 648.371 401.481 646.596 401.402 644.327C401.244 639.889 399.783 635.47 398.578 632.551C397.393 629.671 395.418 627.284 392.831 625.627C390.915 624.404 389.177 623.595 389.098 623.575C389.039 623.555 385.188 621.918 381.692 620.616L381.06 620.458L380.645 620.36C380.468 620.32 380.29 620.3 380.092 620.3L380.112 620.281Z" fill="#B6B6D9"/>
<path d="M383.054 615.27L387.597 609.293C388.407 608.208 389.572 607.419 390.895 607.084C391.882 606.827 393.186 606.65 394.904 606.65H398.183C398.716 606.65 399.249 606.788 399.684 607.084C400.395 607.557 401.066 608.543 400.237 610.477C398.795 613.791 391.547 620.024 391.547 620.024C391.547 620.024 388.584 622.529 384.694 620.734C382.482 619.709 382.146 618.209 382.284 617.124C382.363 616.454 382.659 615.842 383.054 615.31V615.27Z" stroke="#B6B6D9" stroke-width="1.11268" stroke-miterlimit="10"/>
<path d="M443.529 575.324C453.739 565.027 470.092 548.535 478.387 540.171C481.783 536.739 486.326 534.529 491.599 533.701C495.193 533.149 499.538 536.62 500.151 540.546C501.395 548.516 498.808 555.084 495.964 561.16C488.933 576.152 467.584 597.22 454.411 594.833C454.292 594.814 454.193 594.794 454.075 594.774C440.29 592.21 435.55 583.353 443.548 575.304L443.529 575.324Z" fill="#DDDDDD"/>
<mask id="mask7_232_149" style="mask-type:luminance" maskUnits="userSpaceOnUse" x="439" y="533" width="62" height="63">
<path d="M443.529 575.324C453.739 565.027 470.092 548.535 478.387 540.171C481.783 536.739 486.326 534.529 491.599 533.701C495.193 533.149 499.538 536.62 500.151 540.546C501.395 548.516 498.808 555.084 495.964 561.16C488.933 576.152 467.584 597.22 454.411 594.833C454.292 594.814 454.193 594.794 454.075 594.774C440.29 592.21 435.55 583.353 443.548 575.304L443.529 575.324Z" fill="white"/>
</mask>
<g mask="url(#mask7_232_149)">
<path d="M443.39 591.244C444.022 590.454 482.099 592.427 500.644 535.654L504.554 555.775L473.686 598.01L449.611 600.436L443.39 591.224V591.244Z" fill="#B6B6D9"/>
</g>
<path d="M384.835 406.082L383.196 406.08C382.531 406.08 381.991 406.618 381.99 407.282L381.979 418.112C381.978 418.777 382.517 419.316 383.182 419.317L384.821 419.319C385.487 419.319 386.027 418.781 386.027 418.117L386.039 407.287C386.039 406.622 385.5 406.083 384.835 406.082Z" fill="#B6B6D9"/>
<path d="M384.102 407.273C381.1 407.352 379.184 406.583 377.644 405.261C375.866 403.742 375.017 401.908 374.958 400.034L374.898 397.607C374.859 395.95 375.451 394.274 376.834 392.794C378.355 391.177 380.349 390.21 383.628 390.111C387.183 390.013 389.552 391.078 391.172 392.853C392.238 394.017 392.712 395.339 392.752 396.68L392.831 399.383C392.89 401.296 392.1 403.21 390.402 404.847C388.96 406.248 387.104 407.194 384.102 407.273Z" fill="#B6B6D9"/>
<mask id="mask8_232_149" style="mask-type:luminance" maskUnits="userSpaceOnUse" x="374" y="390" width="19" height="18">
<path d="M384.102 407.273C381.1 407.352 379.184 406.583 377.644 405.261C375.866 403.742 375.017 401.908 374.958 400.034L374.898 397.607C374.859 395.95 375.451 394.274 376.834 392.794C378.355 391.177 380.349 390.21 383.628 390.111C387.183 390.013 389.552 391.078 391.172 392.853C392.238 394.017 392.712 395.339 392.752 396.68L392.831 399.383C392.89 401.296 392.1 403.21 390.402 404.847C388.96 406.248 387.104 407.194 384.102 407.273Z" fill="white"/>
</mask>
<g mask="url(#mask8_232_149)">
<path d="M382.581 389.184C382.581 389.184 374.325 400.112 381.139 408.989L369.368 405.695C369.368 405.695 364.826 391.867 370.395 390.012C375.965 388.158 382.581 389.184 382.581 389.184Z" fill="#ACADB0"/>
</g>
<path d="M345.412 414.888H422.83C457.175 414.888 485.061 442.741 485.061 477.046V482.51C485.061 519.852 454.706 550.172 417.32 550.172H350.922C313.536 550.172 283.181 519.852 283.181 482.51V477.046C283.181 442.741 311.068 414.888 345.412 414.888Z" fill="#DDDDDD"/>
<mask id="mask9_232_149" style="mask-type:luminance" maskUnits="userSpaceOnUse" x="283" y="414" width="203" height="137">
<path d="M345.412 414.888H422.83C457.175 414.888 485.061 442.741 485.061 477.046V482.51C485.061 519.852 454.706 550.172 417.32 550.172H350.922C313.536 550.172 283.181 519.852 283.181 482.51V477.046C283.181 442.741 311.068 414.888 345.412 414.888Z" fill="white"/>
</mask>
<g mask="url(#mask9_232_149)">
<path d="M341.541 413.053C341.541 413.053 242.379 462.034 327.223 547.883L290.311 536.876L269.91 472.489L289.185 426.269L333.266 409.758L341.522 413.053H341.541Z" fill="#B6B6D9"/>
</g>
<path d="M415.898 530.623H352.344C325.86 530.623 304.175 508.983 304.175 482.51V478.624C304.175 454.321 324.083 434.437 348.414 434.437H355.307H419.809C444.14 434.437 464.048 454.321 464.048 478.624V482.51C464.048 508.964 442.383 530.623 415.879 530.623H415.898Z" fill="#585B61"/>
<mask id="mask10_232_149" style="mask-type:luminance" maskUnits="userSpaceOnUse" x="304" y="434" width="161" height="97">
<path d="M415.898 530.623H352.344C325.86 530.623 304.175 508.983 304.175 482.51V478.624C304.175 454.321 324.083 434.437 348.414 434.437H355.307H419.809C444.14 434.437 464.048 454.321 464.048 478.624V482.51C464.048 508.964 442.383 530.623 415.879 530.623H415.898Z" fill="white"/>
</mask>
<g mask="url(#mask10_232_149)">
<path d="M363.029 431.754C363.029 431.754 287.546 444.971 322.819 521.45L304.63 522.555L294.715 466.966L323.372 426.25L363.049 431.754H363.029Z" fill="#434457"/>
</g>
<path d="M337.591 482.215C336.051 480.873 335.419 478.782 335.814 476.77C336.92 471.128 340.889 459.095 354.556 459.687C367.61 460.259 371.145 470.655 372.113 476.159C372.646 479.196 370.77 482.313 367.709 482.866C366.129 483.162 364.233 482.767 362.12 480.932C359.651 478.782 357.005 478.092 354.773 478.033C352.048 477.954 349.441 479.157 347.387 481.09C345.333 483.023 341.422 485.529 337.591 482.195V482.215Z" fill="#89CEDA"/>
<mask id="mask11_232_149" style="mask-type:luminance" maskUnits="userSpaceOnUse" x="335" y="459" width="38" height="25">
<path d="M337.591 482.215C336.051 480.873 335.419 478.782 335.814 476.77C336.92 471.128 340.889 459.095 354.556 459.687C367.61 460.259 371.145 470.655 372.113 476.159C372.646 479.196 370.77 482.313 367.709 482.866C366.129 483.162 364.233 482.767 362.12 480.932C359.651 478.782 357.005 478.092 354.773 478.033C352.048 477.954 349.441 479.157 347.387 481.09C345.333 483.023 341.422 485.529 337.591 482.195V482.215Z" fill="white"/>
</mask>
<g mask="url(#mask11_232_149)">
<path d="M354.556 459.707C354.556 459.707 333.858 474.502 344.977 484.109L332.16 486.377L334.036 465.664L347.604 455.683L354.536 459.727" fill="#59C1DD"/>
</g>
<path d="M398.44 483.911C396.899 482.569 396.267 480.478 396.662 478.466C397.768 472.824 401.738 460.791 415.404 461.383C428.459 461.955 431.994 472.351 432.962 477.855C433.495 480.893 431.619 484.009 428.558 484.562C426.978 484.858 425.082 484.463 422.969 482.628C420.5 480.478 417.853 479.788 415.622 479.729C412.896 479.65 410.289 480.853 408.235 482.786C406.083 484.798 402.271 487.225 398.44 483.891V483.911Z" fill="#89CEDA"/>
<mask id="mask12_232_149" style="mask-type:luminance" maskUnits="userSpaceOnUse" x="396" y="461" width="38" height="25">
<path d="M398.44 483.911C396.899 482.569 396.267 480.478 396.662 478.466C397.768 472.824 401.738 460.791 415.404 461.383C428.459 461.955 431.994 472.351 432.962 477.855C433.495 480.893 431.619 484.009 428.558 484.562C426.978 484.858 425.082 484.463 422.969 482.628C420.5 480.478 417.853 479.788 415.622 479.729C412.896 479.65 410.289 480.853 408.235 482.786C406.083 484.798 402.271 487.225 398.44 483.891V483.911Z" fill="white"/>
</mask>
<g mask="url(#mask12_232_149)">
<path d="M415.404 461.403C415.404 461.403 394.706 476.198 405.825 485.805L393.008 488.073L394.884 467.36L408.452 457.379L415.384 461.423" fill="#59C1DD"/>
</g>
</g>
<defs>
<filter id="filter0_d_232_149" x="111.88" y="-1.37062" width="313.259" height="582.918" filterUnits="userSpaceOnUse" color-interpolation-filters="sRGB">
<feFlood flood-opacity="0" result="BackgroundImageFix"/>
<feColorMatrix in="SourceAlpha" type="matrix" values="0 0 0 0 0 0 0 0 0 0 0 0 0 0 0 0 0 0 127 0" result="hardAlpha"/>
<feOffset dx="10.1152" dy="24.2766"/>
<feGaussianBlur stdDeviation="4.0461"/>
<feComposite in2="hardAlpha" operator="out"/>
<feColorMatrix type="matrix" values="0 0 0 0 0 0 0 0 0 0 0 0 0 0 0 0 0 0 0.25 0"/>
<feBlend mode="normal" in2="BackgroundImageFix" result="effect1_dropShadow_232_149"/>
<feBlend mode="normal" in="SourceGraphic" in2="effect1_dropShadow_232_149" result="shape"/>
</filter>
<filter id="filter1_d_232_149" x="10.7279" y="-94.4311" width="497.356" height="752.855" filterUnits="userSpaceOnUse" color-interpolation-filters="sRGB">
<feFlood flood-opacity="0" result="BackgroundImageFix"/>
<feColorMatrix in="SourceAlpha" type="matrix" values="0 0 0 0 0 0 0 0 0 0 0 0 0 0 0 0 0 0 127 0" result="hardAlpha"/>
<feOffset dy="8.09219"/>
<feGaussianBlur stdDeviation="50.5762"/>
<feComposite in2="hardAlpha" operator="out"/>
<feColorMatrix type="matrix" values="0 0 0 0 0 0 0 0 0 0 0 0 0 0 0 0 0 0 0.25 0"/>
<feBlend mode="normal" in2="BackgroundImageFix" result="effect1_dropShadow_232_149"/>
<feBlend mode="normal" in="SourceGraphic" in2="effect1_dropShadow_232_149" result="shape"/>
</filter>
<filter id="filter2_d_232_149" x="233.776" y="371.904" width="292.971" height="377.692" filterUnits="userSpaceOnUse" color-interpolation-filters="sRGB">
<feFlood flood-opacity="0" result="BackgroundImageFix"/>
<feColorMatrix in="SourceAlpha" type="matrix" values="0 0 0 0 0 0 0 0 0 0 0 0 0 0 0 0 0 0 127 0" result="hardAlpha"/>
<feOffset dy="8.09219"/>
<feGaussianBlur stdDeviation="13.1498"/>
<feComposite in2="hardAlpha" operator="out"/>
<feColorMatrix type="matrix" values="0 0 0 0 0 0 0 0 0 0 0 0 0 0 0 0 0 0 0.25 0"/>
<feBlend mode="normal" in2="BackgroundImageFix" result="effect1_dropShadow_232_149"/>
<feBlend mode="normal" in="SourceGraphic" in2="effect1_dropShadow_232_149" result="shape"/>
</filter>
<linearGradient id="paint0_linear_232_149" x1="129.555" y1="-8.58947" x2="438.187" y2="544.597" gradientUnits="userSpaceOnUse">
<stop stop-color="#D3483D"/>
<stop offset="0.02" stop-color="#D2483D"/>
<stop offset="0.03" stop-color="#CF473D"/>
<stop offset="0.04" stop-color="#CB463E"/>
<stop offset="0.05" stop-color="#C7443E"/>
<stop offset="0.06" stop-color="#C4443F"/>
<stop offset="0.07" stop-color="#C0423F"/>
<stop offset="0.08" stop-color="#BD423F"/>
<stop offset="0.09" stop-color="#B94040"/>
<stop offset="0.1" stop-color="#B63F40"/>
<stop offset="0.11" stop-color="#B23E41"/>
<stop offset="0.12" stop-color="#AE3D41"/>
<stop offset="0.13" stop-color="#AB3C42"/>
<stop offset="0.14" stop-color="#A73B42"/>
<stop offset="0.15" stop-color="#A53A42"/>
<stop offset="0.16" stop-color="#A03943"/>
<stop offset="0.17" stop-color="#9E3843"/>
<stop offset="0.18" stop-color="#9A3744"/>
<stop offset="0.19" stop-color="#973644"/>
<stop offset="0.2" stop-color="#933544"/>
<stop offset="0.21" stop-color="#8E3445"/>
<stop offset="0.22" stop-color="#8C3345"/>
<stop offset="0.23" stop-color="#883246"/>
<stop offset="0.24" stop-color="#853146"/>
<stop offset="0.25" stop-color="#813046"/>
<stop offset="0.26" stop-color="#7E2F47"/>
<stop offset="0.27" stop-color="#7A2D47"/>
<stop offset="0.28" stop-color="#772D48"/>
<stop offset="0.29" stop-color="#732B48"/>
<stop offset="0.3" stop-color="#6F2A49"/>
<stop offset="0.31" stop-color="#6C2949"/>
<stop offset="0.32" stop-color="#682849"/>
<stop offset="0.33" stop-color="#65274A"/>
<stop offset="0.34" stop-color="#61264A"/>
<stop offset="0.35" stop-color="#5E254A"/>
<stop offset="0.36" stop-color="#5A244B"/>
<stop offset="0.37" stop-color="#57234B"/>
<stop offset="0.38" stop-color="#53224C"/>
<stop offset="0.39" stop-color="#4F214C"/>
<stop offset="0.4" stop-color="#4C204D"/>
<stop offset="0.41" stop-color="#481F4D"/>
<stop offset="0.42" stop-color="#451E4D"/>
<stop offset="0.43" stop-color="#411D4E"/>
<stop offset="0.44" stop-color="#3E1C4E"/>
<stop offset="0.45" stop-color="#3A1B4F"/>
<stop offset="0.46" stop-color="#36194F"/>
<stop offset="0.47" stop-color="#33194F"/>
<stop offset="0.48" stop-color="#2F1750"/>
<stop offset="0.49" stop-color="#2E1751"/>
<stop offset="0.5" stop-color="#2E1952"/>
<stop offset="0.51" stop-color="#2E1952"/>
<stop offset="0.52" stop-color="#2E1B54"/>
<stop offset="0.53" stop-color="#2E1C54"/>
<stop offset="0.54" stop-color="#2E1D56"/>
<stop offset="0.55" stop-color="#2E1F57"/>
<stop offset="0.56" stop-color="#2E2058"/>
<stop offset="0.57" stop-color="#2E225A"/>
<stop offset="0.58" stop-color="#2E225A"/>
<stop offset="0.59" stop-color="#2E245C"/>
<stop offset="0.6" stop-color="#2E255C"/>
<stop offset="0.61" stop-color="#2E265E"/>
<stop offset="0.62" stop-color="#2E285F"/>
<stop offset="0.63" stop-color="#2E2960"/>
<stop offset="0.64" stop-color="#2E2B61"/>
<stop offset="0.65" stop-color="#2E2B62"/>
<stop offset="0.66" stop-color="#2E2D64"/>
<stop offset="0.67" stop-color="#2E2E64"/>
<stop offset="0.68" stop-color="#2E2F65"/>
<stop offset="0.69" stop-color="#2E3167"/>
<stop offset="0.7" stop-color="#2E3267"/>
<stop offset="0.71" stop-color="#2E3369"/>
<stop offset="0.72" stop-color="#2E356A"/>
<stop offset="0.73" stop-color="#2E366B"/>
<stop offset="0.74" stop-color="#2E376C"/>
<stop offset="0.75" stop-color="#2E386D"/>
<stop offset="0.76" stop-color="#2E3A6E"/>
<stop offset="0.77" stop-color="#2F3B70"/>
<stop offset="0.78" stop-color="#2F3C71"/>
<stop offset="0.79" stop-color="#2F3E72"/>
<stop offset="0.8" stop-color="#2F3F73"/>
<stop offset="0.81" stop-color="#2F4074"/>
<stop offset="0.82" stop-color="#2F4175"/>
<stop offset="0.83" stop-color="#2F4376"/>
<stop offset="0.84" stop-color="#2F4477"/>
<stop offset="0.85" stop-color="#2F4578"/>
<stop offset="0.86" stop-color="#2F477A"/>
<stop offset="0.87" stop-color="#2F477A"/>
<stop offset="0.88" stop-color="#2F497C"/>
<stop offset="0.89" stop-color="#2F4B7D"/>
<stop offset="0.9" stop-color="#2F4C7E"/>
<stop offset="0.91" stop-color="#2F4D7F"/>
<stop offset="0.92" stop-color="#2F4E80"/>
<stop offset="0.93" stop-color="#2F5081"/>
<stop offset="0.94" stop-color="#2F5082"/>
<stop offset="0.95" stop-color="#2F5284"/>
<stop offset="0.97" stop-color="#2F5384"/>
<stop offset="1" stop-color="#2F5384"/>
</linearGradient>
<linearGradient id="paint1_linear_232_149" x1="325.327" y1="577.395" x2="435.786" y2="577.395" gradientUnits="userSpaceOnUse">
<stop stop-color="#36A399"/>
<stop offset="0.54" stop-color="#2D2D73"/>
<stop offset="1" stop-color="#DD4A37"/>
</linearGradient>
<clipPath id="clip0_232_149">
<rect width="530" height="591.078" fill="white"/>
</clipPath>
<clipPath id="clip1_232_149">
<rect width="240.372" height="325.093" fill="white" transform="translate(260.076 390.111)"/>
</clipPath>
</defs>
</svg>
