<svg width="41" height="41" viewBox="0 0 41 41" fill="none" xmlns="http://www.w3.org/2000/svg">
<path d="M33.3125 6.40625H7.6875C5.56466 6.40625 3.84375 8.12716 3.84375 10.25V33.3125C3.84375 35.4353 5.56466 37.1562 7.6875 37.1562H33.3125C35.4353 37.1562 37.1562 35.4353 37.1562 33.3125V10.25C37.1562 8.12716 35.4353 6.40625 33.3125 6.40625Z" stroke="#41417C" stroke-width="2" stroke-linejoin="round"/>
<path d="M23.7031 20.5C24.7645 20.5 25.625 19.6395 25.625 18.5781C25.625 17.5167 24.7645 16.6562 23.7031 16.6562C22.6417 16.6562 21.7812 17.5167 21.7812 18.5781C21.7812 19.6395 22.6417 20.5 23.7031 20.5Z" fill="#41417C"/>
<path d="M30.1094 20.5C31.1708 20.5 32.0312 19.6395 32.0312 18.5781C32.0312 17.5167 31.1708 16.6562 30.1094 16.6562C29.048 16.6562 28.1875 17.5167 28.1875 18.5781C28.1875 19.6395 29.048 20.5 30.1094 20.5Z" fill="#41417C"/>
<path d="M23.7031 26.9062C24.7645 26.9062 25.625 26.0458 25.625 24.9844C25.625 23.923 24.7645 23.0625 23.7031 23.0625C22.6417 23.0625 21.7812 23.923 21.7812 24.9844C21.7812 26.0458 22.6417 26.9062 23.7031 26.9062Z" fill="#41417C"/>
<path d="M30.1094 26.9062C31.1708 26.9062 32.0312 26.0458 32.0312 24.9844C32.0312 23.923 31.1708 23.0625 30.1094 23.0625C29.048 23.0625 28.1875 23.923 28.1875 24.9844C28.1875 26.0458 29.048 26.9062 30.1094 26.9062Z" fill="#41417C"/>
<path d="M10.8906 26.9062C11.952 26.9062 12.8125 26.0458 12.8125 24.9844C12.8125 23.923 11.952 23.0625 10.8906 23.0625C9.8292 23.0625 8.96875 23.923 8.96875 24.9844C8.96875 26.0458 9.8292 26.9062 10.8906 26.9062Z" fill="#41417C"/>
<path d="M17.2969 26.9062C18.3583 26.9062 19.2188 26.0458 19.2188 24.9844C19.2188 23.923 18.3583 23.0625 17.2969 23.0625C16.2355 23.0625 15.375 23.923 15.375 24.9844C15.375 26.0458 16.2355 26.9062 17.2969 26.9062Z" fill="#41417C"/>
<path d="M10.8906 33.3125C11.952 33.3125 12.8125 32.452 12.8125 31.3906C12.8125 30.3292 11.952 29.4688 10.8906 29.4688C9.8292 29.4688 8.96875 30.3292 8.96875 31.3906C8.96875 32.452 9.8292 33.3125 10.8906 33.3125Z" fill="#41417C"/>
<path d="M17.2969 33.3125C18.3583 33.3125 19.2188 32.452 19.2188 31.3906C19.2188 30.3292 18.3583 29.4688 17.2969 29.4688C16.2355 29.4688 15.375 30.3292 15.375 31.3906C15.375 32.452 16.2355 33.3125 17.2969 33.3125Z" fill="#41417C"/>
<path d="M23.7031 33.3125C24.7645 33.3125 25.625 32.452 25.625 31.3906C25.625 30.3292 24.7645 29.4688 23.7031 29.4688C22.6417 29.4688 21.7812 30.3292 21.7812 31.3906C21.7812 32.452 22.6417 33.3125 23.7031 33.3125Z" fill="#41417C"/>
<path d="M10.25 3.84375V6.40625M30.75 3.84375V6.40625" stroke="#41417C" stroke-width="2.5625" stroke-linecap="round" stroke-linejoin="round"/>
<path d="M37.1562 12.8125H3.84375" stroke="#41417C" stroke-width="2" stroke-linejoin="round"/>
</svg>
