<svg width="530" height="717" viewBox="0 0 530 717" fill="none" xmlns="http://www.w3.org/2000/svg">
<g opacity="0.8" clip-path="url(#clip0_232_149)">
<g filter="url(#filter0_d_232_149)">
<g filter="url(#filter1_d_232_149)">
<mask id="mask0_232_149" style="mask-type:luminance" maskUnits="userSpaceOnUse" x="111" y="-1" width="296" height="552">
<path d="M400.841 184.242H396.627V29.3562C396.627 12.9534 384.271 -0.37085 369.011 -0.37085H149.823C134.585 -0.37085 122.207 12.9299 122.207 29.3562V74.0055H117.993C114.631 74.0055 111.88 76.9665 111.88 80.5854V118.655C111.88 122.274 114.631 125.235 117.993 125.235H122.207V132.026H117.993C114.631 132.026 111.88 134.987 111.88 138.606V176.675C111.88 180.294 114.631 183.255 117.993 183.255H122.207V520.499C122.207 536.901 134.563 550.226 149.823 550.226H369.011C384.249 550.226 396.627 536.925 396.627 520.499V243.884H400.841C404.203 243.884 406.954 240.923 406.954 237.305V190.869C406.954 187.25 404.247 184.289 400.841 184.289V184.242Z" fill="white"/>
</mask>
<g mask="url(#mask0_232_149)">
<path d="M122 1V550H407V1H122Z" fill="url(#paint0_linear_232_149)"/>
</g>
</g>
</g>
<path d="M364.496 542.982H153.639C140.609 542.982 130.037 532.066 130.037 518.563V57.8389C130.037 44.3589 140.609 33.4207 153.639 33.4207H364.539C377.569 33.4207 388.141 44.3589 388.141 57.8389V518.609C388.097 532.043 377.525 542.959 364.496 542.959V542.982Z" fill="white" fill-opacity="0.9"/>
<path d="M365.997 529.315H152.181C147.548 529.315 143.829 525.433 143.829 520.597V446.718C143.829 441.882 147.548 437.999 152.181 437.999H365.997C370.63 437.999 374.349 441.882 374.349 446.718V520.597C374.349 525.433 370.63 529.315 365.997 529.315ZM374.349 147.864V122.458C374.349 115.306 368.824 109.562 361.994 109.562H311.597C304.767 109.562 299.242 115.329 299.242 122.458V147.864C299.242 155.015 304.767 160.759 311.597 160.759H361.994C368.846 160.759 374.349 154.947 374.349 147.864ZM218.936 240.042V233.344C218.936 226.215 213.411 220.449 206.581 220.449H156.205C149.353 220.449 143.85 226.215 143.85 233.344V240.042C143.85 247.194 149.375 252.938 156.205 252.938H206.581C213.433 252.938 218.936 247.171 218.936 240.042ZM218.936 283.566V276.868C218.936 269.716 213.411 263.972 206.581 263.972H156.205C149.353 263.972 143.85 269.739 143.85 276.868V283.566C143.85 290.718 149.375 296.462 156.205 296.462H206.581C213.433 296.462 218.936 290.65 218.936 283.566ZM374.349 364.529V339.123C374.349 331.971 368.824 326.227 361.994 326.227H311.597C304.767 326.227 299.242 331.994 299.242 339.123V364.529C299.242 371.681 304.767 377.425 311.597 377.425H361.994C368.846 377.425 374.349 371.658 374.349 364.529Z" fill="#F26454" fill-opacity="0.85"/>
<mask id="mask1_232_149" style="mask-type:luminance" maskUnits="userSpaceOnUse" x="363" y="37" width="167" height="110">
<path d="M530 37.3601H363.04V146.89H530V37.3601Z" fill="white"/>
</mask>
<g mask="url(#mask1_232_149)">
<path d="M487.231 126.66H384.999L365.456 144.285V83.0072C365.456 58.881 384.276 39.3313 407.501 39.3313H487.231C510.456 39.3313 529.275 58.881 529.275 83.0072C529.275 107.133 510.456 126.683 487.231 126.683V126.66Z" fill="#D3483D"/>
</g>
<path d="M411.795 84.4158C411.795 89.2973 407.977 93.3106 403.233 93.3106C398.488 93.3106 394.647 89.3443 394.647 84.4158C394.647 79.4873 398.466 75.4976 403.233 75.4976C408 75.4976 411.795 79.4638 411.795 84.4158ZM432.445 75.4976C427.746 75.4976 423.86 79.4638 423.86 84.4158C423.86 89.3678 427.678 93.3106 432.445 93.3106C437.212 93.3106 441.008 89.3443 441.008 84.4158C441.008 79.4873 437.144 75.4976 432.445 75.4976ZM461.612 75.4976C456.913 75.4976 453.027 79.4638 453.027 84.4158C453.027 89.3678 456.845 93.3106 461.612 93.3106C466.379 93.3106 470.175 89.3443 470.175 84.4158C470.175 79.4873 466.356 75.4976 461.612 75.4976ZM490.96 75.4976C486.261 75.4976 482.375 79.4638 482.375 84.4158C482.375 89.3678 486.193 93.3106 490.96 93.3106C495.727 93.3106 499.545 89.3443 499.545 84.4158C499.545 79.4873 495.727 75.4976 490.96 75.4976Z" fill="#EEEEF4"/>
<mask id="mask2_232_149" style="mask-type:luminance" maskUnits="userSpaceOnUse" x="363" y="268" width="167" height="111">
<path d="M530 268.906H363.04V378.436H530V268.906Z" fill="white"/>
</mask>
<g mask="url(#mask2_232_149)">
<path d="M487.231 359.402H384.999L365.456 377.028V315.68C365.456 291.553 384.276 272.004 407.501 272.004H487.231C510.456 272.004 529.275 291.553 529.275 315.68C529.275 339.806 510.456 359.402 487.231 359.402Z" fill="#D3483D"/>
</g>
<path d="M411.795 317.111C411.795 321.993 407.977 326.006 403.233 326.006C398.488 326.006 394.647 322.04 394.647 317.111C394.647 312.183 398.466 308.193 403.233 308.193C408 308.193 411.795 312.206 411.795 317.111ZM432.445 308.193C427.746 308.193 423.86 312.159 423.86 317.111C423.86 322.063 427.678 326.006 432.445 326.006C437.212 326.006 441.008 322.04 441.008 317.111C441.008 312.183 437.144 308.193 432.445 308.193ZM461.612 308.193C456.913 308.193 453.027 312.159 453.027 317.111C453.027 322.063 456.845 326.006 461.612 326.006C466.379 326.006 470.175 322.04 470.175 317.111C470.175 312.183 466.356 308.193 461.612 308.193ZM490.96 308.193C486.261 308.193 482.375 312.159 482.375 317.111C482.375 322.063 486.193 326.006 490.96 326.006C495.727 326.006 499.545 322.04 499.545 317.111C499.545 312.183 495.727 308.193 490.96 308.193Z" fill="#EEEEF4"/>
<mask id="mask3_232_149" style="mask-type:luminance" maskUnits="userSpaceOnUse" x="0" y="181" width="165" height="110">
<path d="M164.226 181.296H0V290.826H164.226V181.296Z" fill="white"/>
</mask>
<g mask="url(#mask3_232_149)">
<path d="M42.0672 271.182H144.276L163.841 288.807V227.53C163.841 203.404 145.022 183.854 121.796 183.854H42.0672C18.842 183.784 0.0223389 203.38 0.0223389 227.506C0.0223389 251.633 18.842 271.182 42.0672 271.182Z" fill="#2F5384"/>
</g>
<path d="M126.067 220.043C130.766 220.043 134.652 224.009 134.652 228.961C134.652 233.913 130.834 237.856 126.067 237.856C121.3 237.856 117.482 233.89 117.482 228.961C117.482 224.033 121.3 220.043 126.067 220.043ZM88.3371 228.891C88.3371 233.772 92.1552 237.809 96.8997 237.809C101.644 237.809 105.485 233.843 105.485 228.891C105.485 223.939 101.667 219.996 96.8997 219.996C92.1552 220.043 88.3371 224.009 88.3371 228.891ZM59.1248 228.891C59.1248 233.772 62.943 237.809 67.6874 237.809C72.4319 237.809 76.2726 233.843 76.2726 228.891C76.2726 223.939 72.4545 219.996 67.6874 219.996C62.943 220.043 59.1248 224.009 59.1248 228.891ZM29.777 228.891C29.777 233.772 33.5952 237.809 38.3622 237.809C43.1293 237.809 46.9474 233.843 46.9474 228.891C46.9474 223.939 43.1293 219.996 38.3622 219.996C33.5952 219.996 29.777 224.009 29.777 228.891Z" fill="#EEEEF4"/>
</g>
<g clip-path="url(#clip1_232_149)">
<path d="M316.993 581.275C306.782 570.977 290.43 554.486 282.135 546.122C278.738 542.69 274.195 540.48 268.922 539.652C265.328 539.099 260.983 542.571 260.371 546.497C259.126 554.466 261.714 561.035 264.558 567.111C271.588 582.103 292.938 603.171 306.111 600.784C306.229 600.764 306.328 600.745 306.446 600.725C320.232 598.161 324.971 589.303 316.973 581.255L316.993 581.275Z" fill="#DDDDDD"/>
<mask id="mask4_232_149" style="mask-type:luminance" maskUnits="userSpaceOnUse" x="260" y="539" width="61" height="62">
<path d="M316.993 581.275C306.782 570.977 290.43 554.486 282.135 546.122C278.738 542.69 274.195 540.48 268.922 539.652C265.328 539.099 260.983 542.571 260.371 546.497C259.126 554.466 261.714 561.035 264.558 567.111C271.588 582.103 292.938 603.171 306.111 600.784C306.229 600.764 306.328 600.745 306.446 600.725C320.232 598.161 324.971 589.303 316.973 581.255L316.993 581.275Z" fill="white"/>
</mask>
<g mask="url(#mask4_232_149)">
<path d="M317.132 597.194C316.5 596.405 278.423 598.378 259.878 541.605L255.968 561.726L286.836 603.96L310.911 606.387L317.132 597.174V597.194Z" fill="#B6B6D9"/>
</g>
<path d="M439.499 599.364V642.388C439.499 657.242 435.648 671.958 427.748 684.938C418.525 700.068 405.589 712.18 394.865 715.494C389.987 716.993 377.88 715.869 374.444 714.962C341.028 705.67 323.53 672.885 323.233 641.461V599.384C323.312 587.883 324.616 576.462 331.884 568.196C336.564 562.949 343.398 560.148 350.429 560.069L410.309 559.438C412.087 559.379 413.884 559.556 415.642 559.911C422.672 561.351 428.656 565.987 432.271 572.181L435.233 577.271C436.635 579.658 437.662 582.261 438.215 584.984C439.124 589.343 439.479 593.94 439.499 599.384V599.364Z" fill="#DDDDDD"/>
<mask id="mask5_232_149" style="mask-type:luminance" maskUnits="userSpaceOnUse" x="323" y="559" width="117" height="158">
<path d="M439.499 599.364V642.388C439.499 657.242 435.648 671.958 427.748 684.938C418.525 700.068 405.589 712.18 394.865 715.494C389.987 716.993 377.88 715.869 374.444 714.962C341.028 705.67 323.53 672.885 323.233 641.461V599.384C323.312 587.883 324.616 576.462 331.884 568.196C336.564 562.949 343.398 560.148 350.429 560.069L410.309 559.438C412.087 559.379 413.884 559.556 415.642 559.911C422.672 561.351 428.656 565.987 432.271 572.181L435.233 577.271C436.635 579.658 437.662 582.261 438.215 584.984C439.124 589.343 439.479 593.94 439.499 599.384V599.364Z" fill="white"/>
</mask>
<g mask="url(#mask5_232_149)">
<path d="M340.574 563.896C340.653 604.414 340.811 645.86 353.431 684.819C356.808 695.215 361.054 705.335 366.268 714.962L370.771 711.49C356.354 700.246 341.087 688.331 332.694 671.662C322.957 652.33 326.295 629.131 328.487 608.458C329.692 597.076 331.232 585.733 333.108 574.45C333.543 571.826 333.958 569.183 334.471 566.559C334.866 564.507 335.301 561.509 337.414 560.463C339.329 559.497 340.258 561.213 340.198 562.949C340.119 565.178 338.48 567.249 337.354 569.064C327.025 585.575 327.657 605.953 332.496 624.18C338.52 646.846 351.14 667.164 356.156 690.165C356.946 693.775 362.476 692.237 361.686 688.646C356.847 666.454 344.938 646.747 338.678 625.028C335.834 615.126 334.195 604.769 335.024 594.433C335.419 589.442 336.505 584.471 338.302 579.795C340.1 575.12 343.576 571.175 345.274 566.441C346.657 562.574 345.847 557.505 342.015 555.295C337.67 552.81 332.615 555.769 330.58 559.793C329.415 562.121 329.02 564.705 328.566 567.23C328.013 570.386 327.48 573.542 326.986 576.718C326.038 582.676 325.189 588.633 324.419 594.61C322.858 606.702 321.535 618.874 320.844 631.045C320.212 642.407 320.429 654.086 323.866 665.034C330.758 686.93 349.303 701.942 366.742 715.553C369.191 717.467 372.904 715.139 371.245 712.081C352.483 677.461 347.802 637.634 346.716 598.871C346.4 587.213 346.36 575.554 346.341 563.896C346.341 560.207 340.593 560.207 340.593 563.896H340.574Z" fill="#DDDDDD"/>
<path d="M357.598 555.335C352.641 592.282 355.583 630.236 366.07 666C368.697 674.956 371.798 683.754 375.353 692.394C377.071 696.557 379.54 700.778 380.428 705.217C381.317 709.655 378.631 713.088 374.938 715.455C360.738 724.588 342.154 718.473 330.738 707.781C318.158 696.004 310.337 678.961 304.768 662.923C298.705 645.485 295.703 626.784 298.132 608.379C299.258 599.818 301.549 591.276 305.104 583.386C308.658 575.495 313.122 567.96 319.56 562.357C325.426 557.248 333.74 554.546 340.396 559.872C347.052 565.198 348.77 574.371 348.77 582.597C348.77 592.342 347.921 602.047 348.059 611.812C348.197 621.576 348.79 631.242 349.856 640.908C351.969 660.181 355.84 679.257 361.528 697.819C362.93 702.396 364.451 706.933 366.07 711.431C367.315 714.883 372.845 713.383 371.6 709.912C364.569 690.284 359.533 669.985 356.65 649.331C355.208 639.034 354.319 628.678 353.964 618.282C353.608 607.886 354.043 597.293 354.438 586.779C354.774 577.468 354.082 567.644 348.296 559.931C343.339 553.342 335.538 549.752 327.302 551.744C319.066 553.737 312.312 560.602 307.513 567.486C302.141 575.199 298.171 583.899 295.545 592.894C290.133 611.397 290.568 631.144 294.952 649.805C297.263 659.668 300.699 669.235 304.827 678.487C308.52 686.753 312.747 694.86 318.158 702.139C328.507 716.027 344.168 726.975 362.259 725.417C370.356 724.726 379.559 721.392 384.24 714.35C386.807 710.484 386.748 705.828 385.326 701.548C383.746 696.774 381.376 692.237 379.52 687.561C364.787 650.476 358.664 610.115 361.726 570.327C362.121 565.316 362.654 560.306 363.325 555.315C363.542 553.776 361.864 552.455 360.462 552.455C358.743 552.455 357.795 553.796 357.598 555.315V555.335Z" fill="#DDDDDD"/>
<path d="M344.88 558.353C345.591 559.3 345.867 557.8 345.867 557.8C345.867 557.8 318.337 669.512 372.431 714.626C372.431 714.626 355.209 720.682 333.089 688.212C310.97 655.742 318.83 578.158 318.83 578.158C318.83 578.158 336.526 547.345 344.9 558.353H344.88Z" fill="#B6B6D9"/>
</g>
<path d="M435.786 578.73C421.468 585.615 378.493 596.07 325.327 581.216C326.571 575.811 327.875 573.345 330.798 569.735C339.29 571.786 385.405 581.748 429.308 568.038L435.806 578.73H435.786Z" fill="url(#paint1_linear_232_149)"/>
<path d="M388.703 633.393L389.868 633.629C390.144 633.689 390.401 633.846 390.539 634.083C390.678 634.3 390.697 634.576 390.263 634.734C389.947 634.852 389.591 634.833 389.295 634.655C388.979 634.478 388.545 634.399 388.169 634.596C387.794 634.951 388.643 635.405 389.098 635.602C389.295 635.701 389.611 635.957 389.473 636.233C389.335 636.49 389.275 636.45 388.999 636.47C388.742 636.47 388.426 636.47 387.616 636.174C387.044 635.957 386.589 635.74 386.155 635.365C385.246 634.635 385.246 634.813 383.607 634.3C383.094 634.142 382.264 633.945 381.731 633.886C381.158 633.827 380.743 633.669 379.381 633.55C378.828 633.491 376.557 633.373 375.688 633.038C373.298 632.091 369.368 630.927 367.867 625.108C365.141 614.534 365.023 613.863 366.405 611.457C366.998 610.411 368.005 609.642 369.17 609.346C369.565 609.247 374.305 608.695 374.305 608.695H374.996C376.3 608.735 377.485 609.484 378.038 610.668C378.097 610.806 378.137 610.904 378.156 610.983C378.334 612.364 378.63 615.777 378.769 617.552C378.907 619.347 379.341 621.182 380.901 622.326L380.487 622.227C380.131 622.149 379.776 622.188 379.46 622.385C379.262 622.504 379.144 622.642 379.164 622.859C379.164 623.293 379.519 623.529 380.033 623.628C380.309 623.687 380.566 623.746 380.763 623.786C380.98 623.845 381.178 624.003 381.237 624.22C381.296 624.417 381.277 624.634 380.941 624.733C380.309 624.95 380.013 624.851 380.013 624.851C380.013 624.851 378.887 624.634 378.907 625.344C378.927 626.054 379.519 626.054 379.519 626.054C379.519 626.054 380.664 626.173 381.237 626.054C381.81 625.936 381.928 626.192 381.928 626.192C381.928 626.192 382.067 626.587 381.652 626.843C381.237 627.1 380.704 627.416 380.566 627.613C380.427 627.83 380.408 628.283 380.684 628.5C380.98 628.717 381.573 628.52 381.751 628.382C381.928 628.224 382.501 627.573 382.797 627.613C383.153 627.672 383.232 627.85 383.192 628.067C383.153 628.283 382.975 628.994 382.699 629.25C382.6 629.329 382.541 629.447 382.501 629.566C382.422 629.822 382.501 630.118 382.758 630.276C382.857 630.335 382.995 630.375 383.153 630.375C383.39 630.375 383.607 630.217 383.745 630.019C383.963 629.704 384.061 629.112 384.397 628.796H384.437C384.753 628.895 385.108 628.875 385.483 628.678C385.839 628.481 387.024 626.883 387.735 627.337C388.189 627.613 387.794 628.303 386.747 629.211C385.681 630.118 387.458 629.783 389.295 629.408C390.599 629.151 390.776 629.191 391.092 629.487C391.309 629.684 391.191 630.197 390.283 630.434C389.058 630.73 388.268 630.651 388.288 631.025C388.288 631.459 388.643 631.598 389.868 631.578C390.678 631.578 391.132 631.657 391.231 631.874C391.389 632.229 391.033 632.505 390.678 632.505C390.342 632.505 390.006 632.564 388.959 632.722C387.853 632.88 388.762 633.412 388.762 633.412L388.703 633.393Z" fill="#B6B6D9"/>
<path d="M380.132 622.208C380.251 622.208 380.369 622.208 380.468 622.247L380.883 622.346L381.416 622.484C384.931 623.786 388.763 625.403 388.763 625.403C388.763 625.403 390.501 626.192 392.377 627.396C394.806 628.954 396.682 631.242 397.788 633.905C398.914 636.628 400.395 641.007 400.533 645.386C400.731 651.068 396.485 651.64 394.747 651.64C394.312 651.64 394.036 651.6 394.036 651.6C394.036 651.6 393.996 651.6 393.898 651.6C393.167 651.6 389.75 651.304 389.158 645.623C388.96 643.749 388.605 642.171 388.19 640.869C387.341 638.186 384.971 636.647 382.739 634.912C381.633 634.044 380.527 633.531 379.52 633.156C380.883 633.274 381.159 633.827 381.732 633.905C382.265 633.965 383.095 634.162 383.608 634.32C385.247 634.833 385.247 634.655 386.156 635.385C386.59 635.74 387.044 635.957 387.617 636.194C388.269 636.45 388.585 636.49 388.842 636.49C388.901 636.49 388.96 636.49 389 636.49C389.276 636.47 389.335 636.529 389.474 636.253C389.612 635.977 389.296 635.72 389.098 635.622C388.644 635.424 387.795 634.971 388.17 634.616C388.328 634.537 388.486 634.497 388.664 634.497C388.901 634.497 389.118 634.576 389.296 634.675C389.474 634.773 389.671 634.813 389.869 634.813C390.007 634.813 390.145 634.793 390.283 634.734C390.718 634.576 390.678 634.3 390.56 634.083C390.422 633.846 390.165 633.688 389.888 633.629L388.723 633.393C388.723 633.393 387.815 632.86 388.921 632.702C389.967 632.544 390.303 632.485 390.639 632.485C390.994 632.485 391.35 632.189 391.192 631.854C391.093 631.657 390.698 631.558 389.987 631.558C389.928 631.558 389.888 631.558 389.829 631.558C389.75 631.558 389.671 631.558 389.592 631.558C388.565 631.558 388.269 631.4 388.249 631.006C388.249 630.631 389.039 630.71 390.244 630.414C391.152 630.197 391.271 629.664 391.054 629.467C390.896 629.309 390.757 629.23 390.461 629.23C390.224 629.23 389.849 629.289 389.256 629.408C388.289 629.605 387.321 629.783 386.807 629.783C386.333 629.783 386.215 629.625 386.709 629.211C387.755 628.303 388.15 627.613 387.696 627.337C387.617 627.277 387.518 627.258 387.42 627.258C386.709 627.258 385.761 628.52 385.445 628.678C385.228 628.796 385.01 628.855 384.793 628.855C384.655 628.855 384.536 628.836 384.398 628.796V628.737C384.398 628.737 384.359 628.757 384.359 628.777C384.023 629.092 383.924 629.684 383.707 630C383.569 630.197 383.351 630.335 383.114 630.355C383.114 630.355 383.095 630.355 383.075 630.355C382.937 630.355 382.818 630.315 382.719 630.256C382.482 630.118 382.384 629.822 382.463 629.546C382.502 629.428 382.561 629.329 382.66 629.23C382.937 628.974 383.114 628.264 383.154 628.047C383.193 627.83 383.095 627.652 382.759 627.593C382.759 627.593 382.739 627.593 382.719 627.593C382.423 627.593 381.87 628.224 381.712 628.362C381.594 628.461 381.278 628.579 381.001 628.579C380.863 628.579 380.744 628.56 380.646 628.481C380.349 628.283 380.369 627.81 380.527 627.593C380.646 627.415 381.179 627.08 381.613 626.824C382.028 626.567 381.89 626.173 381.89 626.173C381.89 626.173 381.811 626.015 381.475 626.015C381.396 626.015 381.317 626.015 381.199 626.035C381.001 626.074 380.744 626.074 380.488 626.074C379.974 626.074 379.48 626.035 379.48 626.035C379.48 626.035 378.888 626.035 378.868 625.324C378.868 624.89 379.283 624.792 379.619 624.792C379.816 624.792 379.974 624.812 379.974 624.812C379.974 624.812 380.033 624.831 380.172 624.831C380.33 624.831 380.567 624.812 380.902 624.693C381.218 624.595 381.238 624.358 381.199 624.18C381.139 623.963 380.942 623.806 380.725 623.746C380.527 623.707 380.27 623.628 379.994 623.589C379.5 623.49 379.145 623.273 379.145 622.819C379.145 622.622 379.243 622.484 379.441 622.346C379.638 622.208 379.875 622.148 380.112 622.148M380.112 621.281C379.698 621.281 379.303 621.399 378.967 621.616C378.374 621.971 378.256 622.484 378.256 622.839C378.256 623.056 378.315 623.628 378.848 624.042C378.651 624.121 378.493 624.22 378.355 624.378C378.118 624.634 377.979 624.969 377.999 625.344C378.039 626.33 378.769 626.883 379.461 626.903C379.461 626.903 379.658 626.903 379.915 626.942C379.875 626.981 379.836 627.041 379.796 627.1C379.401 627.692 379.441 628.698 380.152 629.191C380.389 629.349 380.685 629.447 381.001 629.447C381.199 629.447 381.416 629.408 381.613 629.349C381.455 629.98 381.732 630.651 382.285 630.966C382.522 631.104 382.798 631.183 383.075 631.183C383.667 631.144 384.122 630.887 384.418 630.453C384.556 630.236 384.655 630 384.734 629.802C384.734 629.763 384.773 629.723 384.773 629.684C385.01 629.684 385.247 629.645 385.484 629.566C385.484 629.684 385.484 629.802 385.544 629.921C385.662 630.236 385.978 630.611 386.768 630.611C386.946 630.611 387.143 630.611 387.38 630.572C387.341 630.69 387.321 630.828 387.321 630.986C387.341 631.538 387.597 631.874 387.913 632.071C387.617 632.268 387.499 632.525 387.459 632.742C387.38 633.097 387.518 633.452 387.795 633.767C387.775 633.767 387.736 633.787 387.716 633.807C387.637 633.846 387.578 633.886 387.518 633.945C387.242 634.221 387.104 634.596 387.183 634.971V635.01C387.005 634.912 386.827 634.793 386.669 634.655C385.899 634.044 385.603 633.925 384.833 633.728C384.576 633.669 384.26 633.57 383.825 633.432C383.253 633.255 382.344 633.057 381.791 632.998C381.752 632.998 381.633 632.919 381.515 632.86C381.139 632.663 380.586 632.347 379.579 632.248C379.559 632.248 379.52 632.248 379.5 632.248C379.105 632.248 378.73 632.525 378.651 632.919C378.552 633.353 378.789 633.787 379.204 633.925C379.954 634.201 381.06 634.675 382.186 635.563C382.463 635.78 382.739 635.996 383.016 636.213C384.892 637.654 386.669 639.015 387.321 641.106C387.775 642.526 388.091 644.065 388.249 645.682C388.921 652.113 393.048 652.448 393.878 652.448C393.917 652.448 393.957 652.448 393.996 652.448C394.135 652.448 394.391 652.488 394.747 652.488C395.932 652.488 398.144 652.251 399.704 650.614C400.909 649.371 401.481 647.596 401.402 645.327C401.244 640.889 399.783 636.47 398.578 633.55C397.393 630.67 395.418 628.283 392.831 626.626C390.915 625.403 389.177 624.595 389.098 624.575C389.039 624.555 385.188 622.918 381.692 621.616L381.06 621.458L380.646 621.359C380.468 621.32 380.29 621.3 380.093 621.3L380.112 621.281Z" fill="#B6B6D9"/>
<path d="M368.262 632.544L368.716 646.293C368.756 647.497 369.072 648.68 369.684 649.686C370.415 650.909 371.679 652.152 373.812 652.349C375.708 652.507 377.031 651.698 377.92 650.732C378.868 649.686 379.44 648.305 379.579 646.846C379.796 644.557 380.171 639.823 379.816 638.146C379.697 637.574 379.539 637.12 379.342 636.765C378.947 635.976 378.157 635.503 377.327 635.483C376.675 635.483 375.629 635.345 374.167 634.832C371.995 634.083 370.573 632.248 369.23 631.775C368.736 631.597 368.242 631.992 368.262 632.544Z" fill="#B6B6D9"/>
<path d="M443.529 576.324C453.739 566.026 470.092 549.535 478.387 541.171C481.784 537.739 486.326 535.529 491.599 534.701C495.194 534.148 499.538 537.62 500.151 541.546C501.395 549.515 498.808 556.084 495.964 562.16C488.933 577.152 467.584 598.22 454.411 595.833C454.292 595.813 454.193 595.794 454.075 595.774C440.29 593.209 435.55 584.352 443.548 576.304L443.529 576.324Z" fill="#DDDDDD"/>
<mask id="mask6_232_149" style="mask-type:luminance" maskUnits="userSpaceOnUse" x="439" y="534" width="62" height="63">
<path d="M443.529 576.324C453.739 566.026 470.092 549.535 478.387 541.171C481.784 537.739 486.326 535.529 491.599 534.701C495.194 534.148 499.538 537.62 500.151 541.546C501.395 549.515 498.808 556.084 495.964 562.16C488.933 577.152 467.584 598.22 454.411 595.833C454.292 595.813 454.193 595.794 454.075 595.774C440.29 593.209 435.55 584.352 443.548 576.304L443.529 576.324Z" fill="white"/>
</mask>
<g mask="url(#mask6_232_149)">
<path d="M443.39 592.243C444.022 591.454 482.099 593.427 500.644 536.654L504.554 556.775L473.686 599.009L449.611 601.436L443.39 592.224V592.243Z" fill="#B6B6D9"/>
</g>
<path d="M384.835 407.082L383.196 407.08C382.531 407.079 381.991 407.618 381.99 408.282L381.979 419.112C381.978 419.777 382.517 420.316 383.182 420.317L384.822 420.318C385.487 420.319 386.027 419.781 386.027 419.116L386.039 408.286C386.04 407.622 385.501 407.083 384.835 407.082Z" fill="#B6B6D9"/>
<path d="M384.102 408.273C381.1 408.352 379.184 407.583 377.644 406.261C375.866 404.742 375.017 402.907 374.958 401.033L374.898 398.607C374.859 396.95 375.451 395.273 376.834 393.794C378.355 392.176 380.349 391.21 383.628 391.111C387.183 391.012 389.553 392.078 391.172 393.853C392.239 395.017 392.713 396.339 392.752 397.68L392.831 400.383C392.89 402.296 392.1 404.209 390.402 405.847C388.96 407.247 387.104 408.194 384.102 408.273Z" fill="#B6B6D9"/>
<mask id="mask7_232_149" style="mask-type:luminance" maskUnits="userSpaceOnUse" x="374" y="391" width="19" height="18">
<path d="M384.102 408.273C381.1 408.352 379.184 407.583 377.644 406.261C375.866 404.742 375.017 402.907 374.958 401.033L374.898 398.607C374.859 396.95 375.451 395.273 376.834 393.794C378.355 392.176 380.349 391.21 383.628 391.111C387.183 391.012 389.553 392.078 391.172 393.853C392.239 395.017 392.713 396.339 392.752 397.68L392.831 400.383C392.89 402.296 392.1 404.209 390.402 405.847C388.96 407.247 387.104 408.194 384.102 408.273Z" fill="white"/>
</mask>
<g mask="url(#mask7_232_149)">
<path d="M382.581 390.184C382.581 390.184 374.325 401.112 381.139 409.989L369.368 406.695C369.368 406.695 364.826 392.866 370.395 391.012C375.965 389.158 382.581 390.184 382.581 390.184Z" fill="#ACADB0"/>
</g>
<path d="M345.412 415.887H422.831C457.175 415.887 485.061 443.741 485.061 478.046V483.51C485.061 520.852 454.706 551.172 417.32 551.172H350.922C313.537 551.172 283.182 520.852 283.182 483.51V478.046C283.182 443.741 311.068 415.887 345.412 415.887Z" fill="#DDDDDD"/>
<mask id="mask8_232_149" style="mask-type:luminance" maskUnits="userSpaceOnUse" x="283" y="415" width="203" height="137">
<path d="M345.412 415.887H422.831C457.175 415.887 485.061 443.741 485.061 478.046V483.51C485.061 520.852 454.706 551.172 417.32 551.172H350.922C313.537 551.172 283.182 520.852 283.182 483.51V478.046C283.182 443.741 311.068 415.887 345.412 415.887Z" fill="white"/>
</mask>
<g mask="url(#mask8_232_149)">
<path d="M341.541 414.052C341.541 414.052 242.379 463.033 327.223 548.883L290.311 537.876L269.91 473.488L289.185 427.269L333.266 410.758L341.522 414.052H341.541Z" fill="#B6B6D9"/>
</g>
<path d="M415.898 531.623H352.344C325.86 531.623 304.175 509.983 304.175 483.51V479.624C304.175 455.321 324.083 435.437 348.414 435.437H355.307H419.809C444.14 435.437 464.048 455.321 464.048 479.624V483.51C464.048 509.964 442.383 531.623 415.879 531.623H415.898Z" fill="#585B61"/>
<mask id="mask9_232_149" style="mask-type:luminance" maskUnits="userSpaceOnUse" x="304" y="435" width="161" height="97">
<path d="M415.898 531.623H352.344C325.86 531.623 304.175 509.983 304.175 483.51V479.624C304.175 455.321 324.083 435.437 348.414 435.437H355.307H419.809C444.14 435.437 464.048 455.321 464.048 479.624V483.51C464.048 509.964 442.383 531.623 415.879 531.623H415.898Z" fill="white"/>
</mask>
<g mask="url(#mask9_232_149)">
<path d="M363.029 432.754C363.029 432.754 287.546 445.971 322.819 522.45L304.63 523.555L294.715 467.966L323.372 427.25L363.049 432.754H363.029Z" fill="#434457"/>
</g>
<path d="M337.591 483.215C336.051 481.873 335.419 479.782 335.814 477.77C336.92 472.128 340.889 460.095 354.556 460.687C367.61 461.259 371.145 471.655 372.113 477.158C372.646 480.196 370.77 483.313 367.709 483.865C366.129 484.161 364.233 483.767 362.12 481.932C359.651 479.782 357.005 479.092 354.773 479.032C352.048 478.954 349.441 480.157 347.387 482.09C345.333 484.023 341.422 486.529 337.591 483.195V483.215Z" fill="#89CEDA"/>
<mask id="mask10_232_149" style="mask-type:luminance" maskUnits="userSpaceOnUse" x="335" y="460" width="38" height="25">
<path d="M337.591 483.215C336.051 481.873 335.419 479.782 335.814 477.77C336.92 472.128 340.889 460.095 354.556 460.687C367.61 461.259 371.145 471.655 372.113 477.158C372.646 480.196 370.77 483.313 367.709 483.865C366.129 484.161 364.233 483.767 362.12 481.932C359.651 479.782 357.005 479.092 354.773 479.032C352.048 478.954 349.441 480.157 347.387 482.09C345.333 484.023 341.422 486.529 337.591 483.195V483.215Z" fill="white"/>
</mask>
<g mask="url(#mask10_232_149)">
<path d="M354.556 460.707C354.556 460.707 333.858 475.502 344.977 485.109L332.16 487.377L334.036 466.664L347.604 456.683L354.536 460.727" fill="#59C1DD"/>
</g>
<path d="M398.44 484.911C396.899 483.569 396.267 481.478 396.662 479.466C397.768 473.824 401.738 461.791 415.405 462.383C428.459 462.955 431.994 473.351 432.962 478.855C433.495 481.892 431.619 485.009 428.558 485.562C426.978 485.857 425.082 485.463 422.969 483.628C420.5 481.478 417.854 480.788 415.622 480.729C412.896 480.65 410.289 481.853 408.236 483.786C406.083 485.798 402.271 488.225 398.44 484.891V484.911Z" fill="#89CEDA"/>
<mask id="mask11_232_149" style="mask-type:luminance" maskUnits="userSpaceOnUse" x="396" y="462" width="38" height="25">
<path d="M398.44 484.911C396.899 483.569 396.267 481.478 396.662 479.466C397.768 473.824 401.738 461.791 415.405 462.383C428.459 462.955 431.994 473.351 432.962 478.855C433.495 481.892 431.619 485.009 428.558 485.562C426.978 485.857 425.082 485.463 422.969 483.628C420.5 481.478 417.854 480.788 415.622 480.729C412.896 480.65 410.289 481.853 408.236 483.786C406.083 485.798 402.271 488.225 398.44 484.891V484.911Z" fill="white"/>
</mask>
<g mask="url(#mask11_232_149)">
<path d="M415.404 462.403C415.404 462.403 394.706 477.198 405.825 486.805L393.008 489.073L394.884 468.36L408.452 458.379L415.384 462.423" fill="#59C1DD"/>
</g>
</g>
<defs>
<filter id="filter0_d_232_149" x="122" y="1" width="303.161" height="581.369" filterUnits="userSpaceOnUse" color-interpolation-filters="sRGB">
<feFlood flood-opacity="0" result="BackgroundImageFix"/>
<feColorMatrix in="SourceAlpha" type="matrix" values="0 0 0 0 0 0 0 0 0 0 0 0 0 0 0 0 0 0 127 0" result="hardAlpha"/>
<feOffset dx="10.1152" dy="24.2766"/>
<feGaussianBlur stdDeviation="4.0461"/>
<feComposite in2="hardAlpha" operator="out"/>
<feColorMatrix type="matrix" values="0 0 0 0 0 0 0 0 0 0 0 0 0 0 0 0 0 0 0.25 0"/>
<feBlend mode="normal" in2="BackgroundImageFix" result="effect1_dropShadow_232_149"/>
<feBlend mode="normal" in="SourceGraphic" in2="effect1_dropShadow_232_149" result="shape"/>
</filter>
<filter id="filter1_d_232_149" x="20.8476" y="-92.0602" width="487.258" height="751.305" filterUnits="userSpaceOnUse" color-interpolation-filters="sRGB">
<feFlood flood-opacity="0" result="BackgroundImageFix"/>
<feColorMatrix in="SourceAlpha" type="matrix" values="0 0 0 0 0 0 0 0 0 0 0 0 0 0 0 0 0 0 127 0" result="hardAlpha"/>
<feOffset dy="8.09219"/>
<feGaussianBlur stdDeviation="50.5762"/>
<feComposite in2="hardAlpha" operator="out"/>
<feColorMatrix type="matrix" values="0 0 0 0 0 0 0 0 0 0 0 0 0 0 0 0 0 0 0.25 0"/>
<feBlend mode="normal" in2="BackgroundImageFix" result="effect1_dropShadow_232_149"/>
<feBlend mode="normal" in="SourceGraphic" in2="effect1_dropShadow_232_149" result="shape"/>
</filter>
<linearGradient id="paint0_linear_232_149" x1="139.073" y1="-6.1983" x2="451.91" y2="536.953" gradientUnits="userSpaceOnUse">
<stop stop-color="#D3483D"/>
<stop offset="0.02" stop-color="#D2483D"/>
<stop offset="0.03" stop-color="#CF473D"/>
<stop offset="0.04" stop-color="#CB463E"/>
<stop offset="0.05" stop-color="#C7443E"/>
<stop offset="0.06" stop-color="#C4443F"/>
<stop offset="0.07" stop-color="#C0423F"/>
<stop offset="0.08" stop-color="#BD423F"/>
<stop offset="0.09" stop-color="#B94040"/>
<stop offset="0.1" stop-color="#B63F40"/>
<stop offset="0.11" stop-color="#B23E41"/>
<stop offset="0.12" stop-color="#AE3D41"/>
<stop offset="0.13" stop-color="#AB3C42"/>
<stop offset="0.14" stop-color="#A73B42"/>
<stop offset="0.15" stop-color="#A53A42"/>
<stop offset="0.16" stop-color="#A03943"/>
<stop offset="0.17" stop-color="#9E3843"/>
<stop offset="0.18" stop-color="#9A3744"/>
<stop offset="0.19" stop-color="#973644"/>
<stop offset="0.2" stop-color="#933544"/>
<stop offset="0.21" stop-color="#8E3445"/>
<stop offset="0.22" stop-color="#8C3345"/>
<stop offset="0.23" stop-color="#883246"/>
<stop offset="0.24" stop-color="#853146"/>
<stop offset="0.25" stop-color="#813046"/>
<stop offset="0.26" stop-color="#7E2F47"/>
<stop offset="0.27" stop-color="#7A2D47"/>
<stop offset="0.28" stop-color="#772D48"/>
<stop offset="0.29" stop-color="#732B48"/>
<stop offset="0.3" stop-color="#6F2A49"/>
<stop offset="0.31" stop-color="#6C2949"/>
<stop offset="0.32" stop-color="#682849"/>
<stop offset="0.33" stop-color="#65274A"/>
<stop offset="0.34" stop-color="#61264A"/>
<stop offset="0.35" stop-color="#5E254A"/>
<stop offset="0.36" stop-color="#5A244B"/>
<stop offset="0.37" stop-color="#57234B"/>
<stop offset="0.38" stop-color="#53224C"/>
<stop offset="0.39" stop-color="#4F214C"/>
<stop offset="0.4" stop-color="#4C204D"/>
<stop offset="0.41" stop-color="#481F4D"/>
<stop offset="0.42" stop-color="#451E4D"/>
<stop offset="0.43" stop-color="#411D4E"/>
<stop offset="0.44" stop-color="#3E1C4E"/>
<stop offset="0.45" stop-color="#3A1B4F"/>
<stop offset="0.46" stop-color="#36194F"/>
<stop offset="0.47" stop-color="#33194F"/>
<stop offset="0.48" stop-color="#2F1750"/>
<stop offset="0.49" stop-color="#2E1751"/>
<stop offset="0.5" stop-color="#2E1952"/>
<stop offset="0.51" stop-color="#2E1952"/>
<stop offset="0.52" stop-color="#2E1B54"/>
<stop offset="0.53" stop-color="#2E1C54"/>
<stop offset="0.54" stop-color="#2E1D56"/>
<stop offset="0.55" stop-color="#2E1F57"/>
<stop offset="0.56" stop-color="#2E2058"/>
<stop offset="0.57" stop-color="#2E225A"/>
<stop offset="0.58" stop-color="#2E225A"/>
<stop offset="0.59" stop-color="#2E245C"/>
<stop offset="0.6" stop-color="#2E255C"/>
<stop offset="0.61" stop-color="#2E265E"/>
<stop offset="0.62" stop-color="#2E285F"/>
<stop offset="0.63" stop-color="#2E2960"/>
<stop offset="0.64" stop-color="#2E2B61"/>
<stop offset="0.65" stop-color="#2E2B62"/>
<stop offset="0.66" stop-color="#2E2D64"/>
<stop offset="0.67" stop-color="#2E2E64"/>
<stop offset="0.68" stop-color="#2E2F65"/>
<stop offset="0.69" stop-color="#2E3167"/>
<stop offset="0.7" stop-color="#2E3267"/>
<stop offset="0.71" stop-color="#2E3369"/>
<stop offset="0.72" stop-color="#2E356A"/>
<stop offset="0.73" stop-color="#2E366B"/>
<stop offset="0.74" stop-color="#2E376C"/>
<stop offset="0.75" stop-color="#2E386D"/>
<stop offset="0.76" stop-color="#2E3A6E"/>
<stop offset="0.77" stop-color="#2F3B70"/>
<stop offset="0.78" stop-color="#2F3C71"/>
<stop offset="0.79" stop-color="#2F3E72"/>
<stop offset="0.8" stop-color="#2F3F73"/>
<stop offset="0.81" stop-color="#2F4074"/>
<stop offset="0.82" stop-color="#2F4175"/>
<stop offset="0.83" stop-color="#2F4376"/>
<stop offset="0.84" stop-color="#2F4477"/>
<stop offset="0.85" stop-color="#2F4578"/>
<stop offset="0.86" stop-color="#2F477A"/>
<stop offset="0.87" stop-color="#2F477A"/>
<stop offset="0.88" stop-color="#2F497C"/>
<stop offset="0.89" stop-color="#2F4B7D"/>
<stop offset="0.9" stop-color="#2F4C7E"/>
<stop offset="0.91" stop-color="#2F4D7F"/>
<stop offset="0.92" stop-color="#2F4E80"/>
<stop offset="0.93" stop-color="#2F5081"/>
<stop offset="0.94" stop-color="#2F5082"/>
<stop offset="0.95" stop-color="#2F5284"/>
<stop offset="0.97" stop-color="#2F5384"/>
<stop offset="1" stop-color="#2F5384"/>
</linearGradient>
<linearGradient id="paint1_linear_232_149" x1="325.327" y1="578.395" x2="435.786" y2="578.395" gradientUnits="userSpaceOnUse">
<stop stop-color="#36A399"/>
<stop offset="0.54" stop-color="#2D2D73"/>
<stop offset="1" stop-color="#DD4A37"/>
</linearGradient>
<clipPath id="clip0_232_149">
<rect width="530" height="592" fill="white"/>
</clipPath>
<clipPath id="clip1_232_149">
<rect width="240.372" height="325.093" fill="white" transform="translate(260.076 391.111)"/>
</clipPath>
</defs>
</svg>
