<svg width="41" height="41" viewBox="0 0 41 41" fill="none" xmlns="http://www.w3.org/2000/svg">
<path d="M34.5136 25.673C34.4335 25.3848 34.6097 24.9844 34.7778 24.6961C34.8292 24.6103 34.8854 24.5274 34.946 24.4479C36.3844 22.3104 37.1538 19.7931 37.1562 17.2168C37.1802 9.83359 30.9501 3.84375 23.2466 3.84375C16.528 3.84375 10.9226 8.41621 9.60928 14.4861C9.41281 15.3858 9.31348 16.3039 9.31299 17.2248C9.31299 24.616 15.3028 30.766 23.0063 30.766C24.2315 30.766 25.8812 30.3977 26.786 30.1494C27.6909 29.9012 28.5878 29.5729 28.82 29.4848C29.0581 29.395 29.3103 29.3489 29.5647 29.3486C29.8423 29.3476 30.1173 29.402 30.3735 29.5088L34.914 31.1184C35.0135 31.1605 35.1188 31.1875 35.2263 31.1984C35.3962 31.1984 35.5591 31.1309 35.6793 31.0108C35.7994 30.8907 35.8669 30.7277 35.8669 30.5578C35.8613 30.4845 35.8479 30.412 35.8269 30.3416L34.5136 25.673Z" stroke="#41417C" stroke-width="2" stroke-miterlimit="10" stroke-linecap="round"/>
<path d="M5.3218 18.5781C4.27152 20.465 3.76345 22.6055 3.85375 24.763C3.94406 26.9206 4.62922 29.0112 5.8335 30.8037C6.01848 31.0831 6.12258 31.2993 6.09055 31.4443C6.05852 31.5892 5.13521 36.3987 5.13521 36.3987C5.11301 36.5113 5.12143 36.6277 5.1596 36.7359C5.19778 36.8441 5.2643 36.94 5.35223 37.0137C5.46955 37.1072 5.61543 37.1575 5.76543 37.1562C5.84559 37.1565 5.92492 37.1401 5.99846 37.1082L10.4996 35.3465C10.8094 35.2243 11.155 35.2301 11.4606 35.3625C12.9773 35.9535 14.6541 36.3234 16.3317 36.3234C18.5829 36.3258 20.7946 35.7321 22.742 34.6026" stroke="#41417C" stroke-width="2" stroke-miterlimit="10" stroke-linecap="round"/>
</svg>
