<svg width="773" height="463" viewBox="0 0 773 463" fill="none" xmlns="http://www.w3.org/2000/svg">
<path d="M117.245 -38.868C89.2312 -68.4227 76.6306 -99.6277 79.4105 -132.476C82.2125 -165.349 95.3741 -193.436 118.925 -216.793C143.197 -240.861 171.435 -253.817 203.606 -255.651C235.809 -257.492 265.893 -243.626 293.892 -214.075L389.126 -114.419C439.486 -61.7223 505.659 -28.0575 576.267 -19.2143L698.198 -3.95109C763.206 4.18801 813.603 60.5671 815.618 127.414C817.989 206.319 752.804 267.567 675.997 258.621L556.97 244.738C437.048 230.75 324.302 174.533 238.168 85.7546L117.235 -38.8865L117.245 -38.868Z" fill="url(#paint0_linear_130_41)"/>
<path d="M881.081 239.737C892.903 271.819 892.253 300.495 879.158 325.767C866.038 351.053 846.499 369.36 820.501 380.724C793.707 392.433 767.548 394.089 742.052 385.696C716.529 377.299 697.878 357.06 686.066 324.984L645.605 216.567C624.208 159.236 584.239 112.2 532.569 83.5458L443.339 34.0699C395.766 7.69018 375.568 -52.5798 396.281 -106.359C420.737 -169.837 491.565 -198.586 547.996 -167.952L635.439 -120.463C723.541 -72.6163 792.02 6.61678 829.067 103.597L881.083 239.754L881.081 239.737Z" fill="url(#paint1_linear_130_41)"/>
<defs>
<linearGradient id="paint0_linear_130_41" x1="622.031" y1="-149.847" x2="268.758" y2="144.427" gradientUnits="userSpaceOnUse">
<stop offset="0.21" stop-color="#36A399"/>
<stop offset="0.87" stop-color="#2D2D73"/>
</linearGradient>
<linearGradient id="paint1_linear_130_41" x1="453.646" y1="173.423" x2="829.273" y2="62.1496" gradientUnits="userSpaceOnUse">
<stop stop-color="#E34C33"/>
<stop offset="0.865" stop-color="#2D2D73"/>
</linearGradient>
</defs>
</svg>
