<svg width="747" height="479" viewBox="0 0 747 479" fill="none" xmlns="http://www.w3.org/2000/svg">
<path d="M630.44 -22.8494C658.454 -52.4042 671.055 -83.6092 668.275 -116.457C665.473 -149.331 652.311 -177.418 628.76 -200.774C604.488 -224.843 576.25 -237.798 544.079 -239.632C511.876 -241.473 481.792 -227.608 453.793 -198.056L358.559 -98.4001C308.199 -45.7037 242.026 -12.0389 171.418 -3.1957L49.4875 12.0675C-15.5212 20.2066 -65.918 76.5857 -67.9328 143.432C-70.3037 222.337 -5.11899 283.585 71.6883 274.639L190.715 260.756C310.638 246.768 423.383 190.552 509.517 101.773L630.45 -22.8679L630.44 -22.8494Z" fill="url(#paint0_linear_938_214)"/>
<path d="M-133.396 255.755C-145.218 287.838 -144.568 316.513 -131.473 341.786C-118.353 367.072 -98.8142 385.379 -72.8155 396.742C-46.0215 408.451 -19.8627 410.107 5.63308 401.715C31.1566 393.318 49.8066 373.078 61.6188 341.003L102.08 232.585C123.477 175.255 163.446 128.219 215.116 99.5643L304.346 50.0884C351.919 23.7087 372.117 -36.5613 351.404 -90.3406C326.948 -153.819 256.12 -182.568 199.689 -151.934L112.246 -104.444C24.1445 -56.5977 -44.3353 22.6353 -81.3818 119.616L-133.398 255.773L-133.396 255.755Z" fill="url(#paint1_linear_938_214)"/>
<defs>
<linearGradient id="paint0_linear_938_214" x1="125.654" y1="-133.828" x2="478.927" y2="160.446" gradientUnits="userSpaceOnUse">
<stop offset="0.21" stop-color="#36A399"/>
<stop offset="0.87" stop-color="#2D2D73"/>
</linearGradient>
<linearGradient id="paint1_linear_938_214" x1="294.039" y1="189.441" x2="-81.5884" y2="78.1682" gradientUnits="userSpaceOnUse">
<stop stop-color="#E34C33"/>
<stop offset="0.865" stop-color="#2D2D73"/>
</linearGradient>
</defs>
</svg>
