<svg width="59" height="59" viewBox="0 0 59 59" fill="none" xmlns="http://www.w3.org/2000/svg">
<circle cx="29.5" cy="29.5" r="29.5" fill="#2A8E96"/>
<path d="M16.2351 25.1592V44.0448C16.2351 44.3844 16.37 44.7101 16.6101 44.9502C16.8502 45.1903 17.1759 45.3252 17.5155 45.3252H25.1978V34.4419C25.1978 33.9326 25.4001 33.4441 25.7603 33.0839C26.1205 32.7237 26.609 32.5214 27.1184 32.5214H33.5203C34.0296 32.5214 34.5181 32.7237 34.8783 33.0839C35.2385 33.4441 35.4408 33.9326 35.4408 34.4419V45.3252H43.1231C43.4627 45.3252 43.7884 45.1903 44.0285 44.9502C44.2686 44.7101 44.4035 44.3844 44.4035 44.0448V25.1592" stroke="#F3F3F7" stroke-width="2" stroke-linecap="round" stroke-linejoin="round"/>
<path d="M48.2447 28.6807L31.1909 12.3558C30.7907 11.9333 29.8553 11.9285 29.4479 12.3558L12.394 28.6807M41.8428 22.5188V13.3161H38.0017V18.8377" stroke="#F3F3F7" stroke-width="2" stroke-linecap="round" stroke-linejoin="round"/>
</svg>
