<svg width="114" height="114" viewBox="0 0 114 114" fill="none" xmlns="http://www.w3.org/2000/svg">
<mask id="mask0_744_317" style="mask-type:luminance" maskUnits="userSpaceOnUse" x="0" y="0" width="114" height="114">
<path d="M0 0H113.927V113.931H0V0Z" fill="white"/>
</mask>
<g mask="url(#mask0_744_317)">
<path d="M113.604 56.9277C113.604 58.7868 113.514 60.6422 113.331 62.4941C113.148 64.346 112.876 66.1836 112.513 68.0067C112.151 69.8335 111.698 71.6352 111.16 73.4153C110.618 75.1954 109.994 76.9468 109.28 78.6623C108.569 80.3814 107.776 82.061 106.896 83.7047C106.021 85.3449 105.066 86.9384 104.032 88.4852C102.999 90.032 101.89 91.525 100.713 92.9606C99.532 94.3998 98.283 95.7779 96.9695 97.0915C95.6523 98.4086 94.2742 99.654 92.8386 100.835C91.3994 102.015 89.9064 103.121 88.3596 104.154C86.8128 105.188 85.2193 106.146 83.5791 107.022C81.939 107.898 80.2594 108.695 78.5403 109.405C76.8212 110.116 75.0698 110.744 73.2896 111.282C71.5095 111.824 69.7079 112.276 67.8847 112.639C66.0579 113.001 64.2204 113.274 62.3685 113.457C60.5202 113.636 58.6612 113.73 56.8021 113.73C54.943 113.73 53.0875 113.636 51.2356 113.457C49.3838 113.274 47.5462 113.001 45.7195 112.639C43.8963 112.276 42.0946 111.824 40.3145 111.282C38.5344 110.744 36.783 110.116 35.0639 109.405C33.3448 108.695 31.6652 107.898 30.025 107.022C28.3849 106.146 26.7914 105.188 25.2446 104.154C23.6977 103.121 22.2047 102.015 20.7656 100.835C19.33 99.654 17.9519 98.4086 16.6383 97.0915C15.3212 95.7779 14.0722 94.3998 12.895 92.9606C11.7143 91.525 10.6053 90.032 9.57169 88.4852C8.53808 86.9384 7.58342 85.3449 6.70772 83.7047C5.82843 82.061 5.03528 80.3814 4.32467 78.6623C3.61047 76.9468 2.98599 75.1954 2.44765 73.4153C1.90573 71.6352 1.45352 69.8335 1.09104 68.0067C0.728554 66.1836 0.455795 64.346 0.272759 62.4941C0.0897233 60.6422 0 58.7868 0 56.9277C0 55.065 0.0897233 53.2096 0.272759 51.3577C0.455795 49.5094 0.728554 47.6682 1.09104 45.8451C1.45352 44.0219 1.90573 42.2167 2.44765 40.4365C2.98599 38.6564 3.61047 36.9086 4.32467 35.1895C5.03528 33.4704 5.82843 31.7908 6.70772 30.1507C7.58342 28.5105 8.53808 26.917 9.57169 25.3702C10.6053 23.8234 11.7143 22.3304 12.895 20.8912C14.0722 19.452 15.3212 18.0775 16.6383 16.7603C17.9519 15.4468 19.33 14.1978 20.7656 13.0171C22.2047 11.8363 23.6977 10.7309 25.2446 9.6973C26.7914 8.66369 28.3849 7.70903 30.025 6.82975C31.6652 5.95405 33.3448 5.16089 35.0639 4.44669C36.783 3.73608 38.5344 3.11161 40.3145 2.56968C42.0946 2.03134 43.8963 1.57913 45.7195 1.21665C47.5462 0.854168 49.3838 0.581409 51.2356 0.398373C53.0875 0.215337 54.943 0.125614 56.8021 0.125614C58.6647 0.118435 60.5238 0.200981 62.3757 0.376839C64.2312 0.552697 66.0723 0.821868 67.8991 1.17717C69.7258 1.53607 71.5347 1.98109 73.3184 2.51943C75.1021 3.05418 76.8535 3.67866 78.5762 4.38568C80.2988 5.09629 81.9785 5.88944 83.6258 6.76514C85.2695 7.64084 86.863 8.5955 88.4134 9.62553C89.9639 10.6591 91.4604 11.7681 92.8996 12.9489C94.3388 14.1296 95.7169 15.3786 97.034 16.6957C98.3512 18.0129 99.6001 19.391 100.781 20.8302C101.962 22.2693 103.071 23.7659 104.101 25.3164C105.134 26.8632 106.089 28.4603 106.965 30.104C107.84 31.7477 108.633 33.4309 109.341 35.1536C110.051 36.8763 110.676 38.6277 111.21 40.4114C111.745 42.1951 112.194 44.0004 112.553 45.8307C112.908 47.6575 113.177 49.4986 113.353 51.3505C113.529 53.206 113.611 55.065 113.604 56.9277Z" fill="#CDDDEC"/>
</g>
<mask id="mask1_744_317" style="mask-type:luminance" maskUnits="userSpaceOnUse" x="15" y="73" width="85" height="41">
<path d="M15.6191 73.1246H99.227V113.931H15.6191V73.1246Z" fill="white"/>
</mask>
<g mask="url(#mask1_744_317)">
<path d="M99.1874 94.7407C98.5378 95.4693 97.8703 96.1835 97.1812 96.8761C96.4957 97.5724 95.7923 98.2471 95.0673 98.9039C94.346 99.5643 93.6066 100.203 92.853 100.824C92.0993 101.441 91.3277 102.044 90.5417 102.622C89.7557 103.203 88.9554 103.763 88.1407 104.302C87.326 104.84 86.497 105.357 85.6571 105.856C84.8137 106.351 83.9596 106.825 83.0946 107.277C82.2297 107.729 81.354 108.16 80.464 108.565C79.5775 108.971 78.6767 109.355 77.7687 109.717C76.8607 110.076 75.9455 110.414 75.0195 110.729C74.0936 111.042 73.1605 111.329 72.2238 111.594C71.2835 111.86 70.336 112.1 69.3813 112.319C68.4303 112.535 67.472 112.725 66.5102 112.894C65.5483 113.059 64.5829 113.202 63.6103 113.321C62.6413 113.435 61.6687 113.529 60.6961 113.597C59.7199 113.662 58.7437 113.705 57.7675 113.723C56.7913 113.737 55.8151 113.73 54.839 113.694C53.8628 113.662 52.8866 113.604 51.914 113.518C50.9414 113.435 49.9688 113.324 49.0033 113.191C48.0343 113.059 47.0725 112.901 46.1107 112.714C45.1524 112.531 44.1978 112.323 43.2503 112.09C42.2992 111.856 41.3589 111.602 40.4222 111.318C39.4891 111.038 38.5595 110.729 37.6408 110.403C36.722 110.073 35.8104 109.721 34.9096 109.344C34.0052 108.967 33.1151 108.569 32.2358 108.145C31.353 107.722 30.4844 107.277 29.6267 106.81C28.7689 106.344 27.9219 105.856 27.0893 105.342C26.2567 104.833 25.4384 104.302 24.6345 103.749C23.827 103.196 23.0374 102.622 22.2622 102.026C21.487 101.434 20.7261 100.82 19.9832 100.189C19.2403 99.5535 18.5117 98.9039 17.8011 98.2328C17.0905 97.5616 16.3979 96.8726 15.7231 96.1655C16.5953 94.8161 17.5212 93.4451 18.5189 92.0957C28.3741 78.709 48.0846 75.4681 48.0846 75.4681L48.7198 75.3318L57.9254 73.322L58.0439 73.3435L66.1549 75.12L67.7699 75.4681C67.7699 75.4681 87.4803 78.7125 97.3248 92.0957C97.978 92.9786 98.5953 93.8578 99.1874 94.7407Z" fill="#A3B4C4"/>
</g>
<path d="M73.8785 42.7765C85.2267 39.0656 87.4806 30.0143 84.5305 27.3334C81.5768 24.6488 75.0808 27.3334 75.0808 27.3334C75.0808 27.3334 78.6518 21.7454 76.2149 18.4723C73.778 15.1956 71.9369 21.8782 65.9326 22.4309C59.9319 22.98 50.8986 19.7392 46.4806 24.2289C42.0626 28.7151 43.9432 32.7993 43.9432 32.7993C43.9432 32.7993 34.6873 33.1546 36.69 42.4176C38.6926 51.6807 44.9373 61.2667 48.5191 65.0208C52.1044 68.7712 61.6043 54.6093 61.6043 54.6093L73.8785 42.7765Z" fill="#758CA3"/>
<path d="M60.118 84.0314C54.6233 84.4728 51.4615 81.6017 49.3404 78.2604C48.7841 77.4026 48.576 76.4659 48.7123 75.4502C49.1322 72.0587 49.3799 68.6528 49.4481 65.2361C49.5091 62.7669 49.5198 59.9389 49.4122 56.7662L66.6139 63.1689L66.2874 71.6747L66.151 75.4646L66.072 77.5534C66.072 77.5534 67.0159 83.4751 60.118 84.0314Z" fill="#D6C4BF"/>
<path d="M66.1509 75.4646C57.7743 75.3569 51.5009 68.9902 49.448 65.2325C49.509 62.7669 49.5198 59.9353 49.4121 56.7662L66.6139 63.1689L66.2873 71.6747L66.1509 75.4646Z" fill="#C6BBBB"/>
<path d="M77.0619 35.7817C59.9355 42.5971 52.3126 41.7788 52.3126 41.7788C52.3126 41.7788 52.833 51.8961 51.3508 52.3088C49.8686 52.7251 51.3077 48.3502 48.3397 46.6526C45.3716 44.9551 40.7347 48.1528 41.7899 52.3519C42.845 56.5509 48.4832 55.4024 48.4832 55.4024C48.4832 55.4024 52.3557 72.0228 66.7868 71.6352C81.2143 71.2512 79.1076 48.2784 78.2355 44.7613C77.367 41.2441 77.0619 35.7817 77.0619 35.7817Z" fill="#D6C4BF"/>
</svg>
