<?xml version="1.0" encoding="UTF-8"?>
<svg id="Capa_2" data-name="Capa 2" xmlns="http://www.w3.org/2000/svg" viewBox="0 0 90.34 114.57">
  <defs>
    <style>
      .cls-1 {
        fill: #fff;
      }

      .cls-2 {
        fill: none;
        stroke: #fff;
        stroke-miterlimit: 10;
        stroke-width: 2.76px;
      }
    </style>
  </defs>
  <g id="Capa_1-2" data-name="Capa 1">
    <g>
      <g>
        <path class="cls-1" d="m58.36,66.32l2.95.62c.7.15,1.32.54,1.67,1.15.33.56.39,1.23-.69,1.65-.82.31-1.71.23-2.45-.18-.8-.44-1.87-.64-2.83-.13-.94.91,1.2,2.04,2.33,2.54.52.23,1.31.89.95,1.57-.35.66-.48.52-1.2.58-.66.05-1.45.04-3.47-.74-1.45-.57-2.58-1.12-3.69-2.02-2.31-1.86-2.31-1.39-6.42-2.7-1.27-.4-3.4-.87-4.73-1.02-1.44-.17-2.49-.53-5.93-.84-1.39-.13-7.11-.43-9.29-1.3-6.03-2.41-15.91-5.3-19.69-19.97C-1,18.87-1.3,17.19,2.18,11.14c1.51-2.64,4.04-4.55,6.96-5.34.99-.26,12.92-1.63,12.92-1.63l1.76.04c3.27.07,6.26,1.95,7.63,4.91.16.34.26.61.28.8.46,3.5,1.2,12.1,1.53,16.55.34,4.54,1.46,9.15,5.37,12.05l-1.04-.25c-.87-.22-1.81-.11-2.58.37-.5.31-.78.66-.77,1.17,0,1.11.9,1.68,2.16,1.92.68.13,1.34.29,1.82.41.56.13,1.02.54,1.19,1.08.14.48.08,1.04-.72,1.31-1.61.54-2.32.3-2.32.3,0,0-2.84-.53-2.79,1.25.05,1.77,1.53,1.8,1.53,1.8,0,0,2.86.27,4.33,0,1.43-.27,1.72.33,1.72.33,0,0,.37,1.01-.7,1.65-1.06.64-2.41,1.46-2.73,1.92-.36.54-.42,1.7.32,2.22.74.52,2.25.06,2.7-.32.45-.38,1.88-2.06,2.63-1.94.87.15,1.11.59,1,1.14-.11.54-.55,2.34-1.23,2.96-.25.22-.4.51-.49.78-.22.67.01,1.41.63,1.77.25.15.58.25.98.23.6-.04,1.13-.37,1.47-.87.56-.82.8-2.3,1.64-3.1.04.01.08.03.12.04.79.25,1.69.22,2.61-.27.9-.48,3.86-4.5,5.67-3.39,1.15.7.16,2.42-2.5,4.72-2.67,2.3,1.8,1.43,6.43.5,3.29-.66,3.73-.56,4.5.17.52.5.23,1.81-2.06,2.36-3.07.75-5.08.55-5.04,1.51.05,1.1.91,1.47,3.98,1.41,2.05-.04,3.2.21,3.45.73.41.88-.52,1.6-1.4,1.6-.84,0-1.68.16-4.34.56-2.77.41-.48,1.75-.48,1.75Z"/>
        <path class="cls-1" d="m36.74,38.14c.29,0,.58.04.86.11l1.04.25,1.35.33c8.85,3.28,18.49,7.38,18.49,7.38,0,0,4.36,1.99,9.1,5.03,6.12,3.94,10.84,9.7,13.61,16.42,2.83,6.87,6.56,17.9,6.93,28.92.48,14.31-10.2,15.76-14.56,15.76-1.11,0-1.81-.09-1.81-.09,0,0-.12.01-.34.01-1.83,0-10.45-.77-11.95-15.08-.5-4.73-1.41-8.71-2.44-11.98-2.14-6.77-8.11-10.62-13.7-15-2.79-2.19-5.57-3.49-8.09-4.44,3.44.31,4.12,1.7,5.56,1.86,1.33.15,3.46.62,4.73,1.02,4.11,1.31,4.11.84,6.42,2.7,1.11.9,2.24,1.45,3.69,2.02,1.63.63,2.46.75,3.07.75.14,0,.28,0,.4-.02.72-.06.85.08,1.2-.58.36-.68-.44-1.35-.95-1.57-1.13-.5-3.27-1.63-2.33-2.54.4-.21.81-.3,1.22-.3.58,0,1.14.18,1.6.43.43.24.93.37,1.42.37.35,0,.69-.06,1.03-.19,1.08-.42,1.02-1.09.69-1.65-.35-.61-.97-1-1.67-1.15l-2.95-.62s-2.29-1.35.48-1.75c2.66-.4,3.5-.56,4.34-.56.88,0,1.81-.72,1.4-1.6-.23-.49-1.24-.73-3.03-.73-.13,0-.27,0-.42,0-.21,0-.42,0-.61,0-2.57,0-3.33-.38-3.37-1.41-.03-.96,1.97-.76,5.04-1.51,2.29-.56,2.58-1.87,2.06-2.36-.42-.4-.74-.61-1.49-.61-.62,0-1.52.14-3.01.44-2.45.49-4.85.97-6.18.97-1.18,0-1.51-.38-.25-1.46,2.66-2.3,3.64-4.02,2.5-4.72-.22-.13-.45-.19-.7-.19-1.8,0-4.19,3.16-4.97,3.59-.56.3-1.11.43-1.63.43-.34,0-.67-.06-.98-.16l-.02-.15s-.06.07-.1.11c-.84.8-1.08,2.28-1.64,3.1-.34.5-.88.83-1.47.87-.03,0-.07,0-.1,0-.35,0-.65-.1-.88-.23-.62-.35-.85-1.1-.63-1.77.09-.27.24-.56.49-.78.68-.62,1.12-2.42,1.23-2.96.11-.55-.13-.99-1-1.14-.03,0-.06,0-.08,0-.77,0-2.11,1.57-2.55,1.94-.3.26-1.1.56-1.81.56-.34,0-.65-.07-.89-.23-.74-.52-.68-1.69-.32-2.22.31-.46,1.66-1.28,2.73-1.92,1.06-.64.7-1.65.7-1.65,0,0-.19-.41-1.04-.41-.19,0-.42.02-.68.07-.49.09-1.13.12-1.77.12-1.28,0-2.55-.12-2.55-.12,0,0-1.48-.03-1.53-1.8-.03-1.11,1.07-1.32,1.9-1.32.49,0,.89.07.89.07,0,0,.15.05.48.05.37,0,.98-.07,1.84-.35.8-.27.86-.82.72-1.31-.16-.55-.63-.95-1.19-1.08-.48-.12-1.15-.27-1.82-.41-1.27-.24-2.16-.81-2.16-1.92,0-.51.27-.86.77-1.17.52-.33,1.11-.48,1.72-.48m0-2.21h0c-1.04,0-2.04.29-2.89.82-1.5.92-1.81,2.18-1.8,3.07,0,.54.15,1.99,1.52,3.04-.49.19-.91.47-1.26.82-.62.64-.94,1.5-.92,2.44.08,2.77,2.15,3.86,3.59,3.94.17.02.64.06,1.24.09-.11.12-.21.25-.3.37-1.01,1.5-.9,4.03.88,5.27.59.42,1.34.64,2.16.64.5,0,1.04-.08,1.55-.23-.39,1.61.29,3.29,1.7,4.1.59.34,1.28.52,1.98.52.07,0,.14,0,.21,0,1.29-.09,2.44-.75,3.18-1.82.37-.53.61-1.13.82-1.66.03-.09.07-.19.12-.29.6,0,1.2-.1,1.78-.3,0,.29.04.59.16.91.3.8,1.08,1.75,3.11,1.75.44,0,.95-.04,1.52-.11-.1.31-.16.66-.14,1.06.06,1.39.68,2.24,1.52,2.75-.74.5-1.04,1.15-1.15,1.71-.18.91.13,1.81.85,2.57-.07.03-.13.06-.19.1-.18.1-.34.22-.49.36-.72.69-1.03,1.63-.87,2.57,0,.04.02.08.02.12-.46-.25-.89-.53-1.32-.87-1.93-1.56-2.7-1.82-4.62-2.35-.63-.17-1.42-.39-2.52-.74-1.45-.46-3.71-.95-5.14-1.11-.12-.01-.41-.17-.72-.34-.93-.51-2.33-1.29-4.9-1.52-.07,0-.14,0-.2,0-1.02,0-1.92.7-2.15,1.71-.25,1.08.34,2.17,1.37,2.56,1.87.7,4.68,1.9,7.5,4.11.7.55,1.4,1.09,2.1,1.62,4.73,3.62,9.19,7.04,10.85,12.31,1.13,3.57,1.92,7.45,2.35,11.55,1.71,16.23,12.08,17.05,14.15,17.05.11,0,.2,0,.28,0,.33.03.99.09,1.88.09,2.96,0,8.53-.61,12.49-4.7,3.04-3.14,4.48-7.63,4.28-13.34-.38-11.2-4.06-22.33-7.09-29.69-2.98-7.24-7.98-13.27-14.46-17.44-4.82-3.1-9.19-5.1-9.38-5.19-.02,0-.03-.02-.05-.02-.1-.04-9.79-4.16-18.59-7.42-.08-.03-.16-.05-.23-.07l-1.35-.33-1.04-.26c-.44-.11-.92-.17-1.39-.17h0Z"/>
        <path class="cls-2" d="m44.14,23.14l11.45-15.09c2.06-2.72,4.98-4.72,8.31-5.57,2.46-.62,5.77-1.11,10.09-1.11h8.23c1.34,0,2.67.34,3.77,1.08,1.78,1.21,3.49,3.67,1.39,8.55-3.61,8.36-21.89,24.07-21.89,24.07,0,0-7.47,6.33-17.25,1.77-5.59-2.61-6.39-6.37-6.05-9.12.21-1.67.92-3.24,1.95-4.59Z"/>
      </g>
      <path class="cls-1" d="m6.77,62.39l1.21,35.85c.11,3.13.91,6.23,2.46,8.87,1.85,3.17,5.05,6.46,10.42,6.96,4.78.44,8.1-1.7,10.32-4.21,2.4-2.71,3.8-6.32,4.13-10.13.52-5.94,1.44-18.31.54-22.67-.31-1.48-.72-2.66-1.18-3.61-1-2.07-2.98-3.3-5.08-3.34-1.65-.03-4.29-.36-7.96-1.7-5.46-1.99-9.07-6.75-12.43-8-1.22-.46-2.47.56-2.42,1.99Z"/>
    </g>
  </g>
</svg>