<?xml version="1.0" encoding="UTF-8"?>
<svg id="Capa_2" data-name="Capa 2" xmlns="http://www.w3.org/2000/svg" xmlns:xlink="http://www.w3.org/1999/xlink" viewBox="0 0 97.41 124.33">
  <defs>
    <style>
      .cls-1 {
        fill: url(#Degradado_sin_nombre_45);
      }

      .cls-2 {
        fill: #2d2d73;
      }

      .cls-3 {
        fill: #2c2d6e;
      }

      .cls-4 {
        fill: url(#Degradado_sin_nombre_68);
      }
    </style>
    <linearGradient id="Degradado_sin_nombre_45" data-name="Degradado sin nombre 45" x1="-3.09" y1="21.78" x2="76.4" y2="60.76" gradientUnits="userSpaceOnUse">
      <stop offset=".14" stop-color="#36a399"/>
      <stop offset=".75" stop-color="#2d2d73"/>
    </linearGradient>
    <linearGradient id="Degradado_sin_nombre_68" data-name="Degradado sin nombre 68" x1="26.89" y1="66.23" x2="101.99" y2="100.02" gradientUnits="userSpaceOnUse">
      <stop offset=".15" stop-color="#e34c33"/>
      <stop offset=".96" stop-color="#2c2d6e"/>
    </linearGradient>
  </defs>
  <g id="Capa_1-2" data-name="Capa 1">
    <g>
      <g>
        <path class="cls-1" d="m64.34,71.6l3.25.68c.77.16,1.45.6,1.84,1.27.36.61.43,1.35-.76,1.82-.9.34-1.89.25-2.7-.2-.88-.49-2.07-.71-3.12-.15-1.04,1,1.32,2.24,2.57,2.8.57.25,1.45.98,1.05,1.73-.38.73-.53.58-1.32.64-.73.05-1.6.04-3.82-.81-1.6-.63-2.84-1.23-4.07-2.22-2.55-2.05-2.55-1.54-7.08-2.98-1.4-.44-3.75-.96-5.21-1.13-1.59-.18-2.75-.58-6.53-.93-1.53-.14-7.84-.47-10.24-1.43-6.64-2.66-17.54-5.85-21.71-22.02C-1.1,19.28-1.43,17.43,2.4,10.76c1.67-2.91,4.46-5.02,7.67-5.88,1.09-.29,14.25-1.8,14.25-1.8l1.94.04c3.6.08,6.9,2.15,8.42,5.41.17.37.29.68.31.88.51,3.86,1.32,13.34,1.69,18.24.38,5.01,1.61,10.09,5.92,13.28l-1.14-.28c-.96-.24-2-.12-2.84.41-.55.34-.86.73-.85,1.29,0,1.23.99,1.85,2.38,2.12.75.15,1.48.32,2.01.45.61.15,1.13.59,1.31,1.2.16.53.09,1.14-.8,1.44-1.78.59-2.55.33-2.55.33,0,0-3.13-.58-3.07,1.37.06,1.96,1.69,1.99,1.69,1.99,0,0,3.15.3,4.77,0,1.58-.3,1.9.37,1.9.37,0,0,.41,1.11-.77,1.82-1.17.71-2.66,1.61-3,2.12-.4.59-.47,1.88.35,2.45.82.58,2.48.07,2.98-.35.49-.42,2.07-2.27,2.9-2.13.96.16,1.23.65,1.11,1.26-.12.6-.61,2.58-1.36,3.26-.27.24-.44.56-.54.86-.24.74.01,1.56.69,1.95.28.16.64.27,1.08.25.66-.04,1.25-.41,1.62-.96.62-.9.89-2.53,1.81-3.42.04.01.09.03.13.04.87.28,1.87.24,2.88-.3.99-.53,4.25-4.96,6.25-3.74,1.26.77.18,2.67-2.75,5.2-2.94,2.54,1.99,1.57,7.09.55,3.63-.72,4.11-.62,4.96.19.58.55.26,1.99-2.27,2.61-3.39.83-5.6.61-5.56,1.67.05,1.22,1,1.62,4.39,1.55,2.26-.04,3.53.23,3.8.8.45.97-.57,1.76-1.54,1.76-.92,0-1.85.18-4.78.61-3.06.45-.53,1.93-.53,1.93Z"/>
        <path class="cls-4" d="m79.09,122.26s-11.69,1.06-13.55-16.61c-.55-5.21-1.55-9.61-2.69-13.21-2.36-7.46-7.89-13.5-15.1-16.54-3.13-1.32-6.55-2.72-9.32-3.77,3.79.35,4.95.75,6.53.93,1.46.17,3.81.69,5.21,1.13,4.53,1.44,4.53.92,7.08,2.98,1.23.99,2.47,1.59,4.07,2.22,2.22.86,3.09.86,3.82.81.79-.07.94.09,1.32-.64.4-.75-.48-1.48-1.05-1.73-1.25-.55-3.61-1.79-2.57-2.8,1.05-.56,2.24-.34,3.12.15.81.45,1.8.54,2.7.2,1.19-.47,1.12-1.2.76-1.82-.38-.67-1.07-1.11-1.84-1.27l-3.25-.68s-2.52-1.48.53-1.93c2.93-.44,3.86-.61,4.78-.61.97,0,1.99-.8,1.54-1.76-.27-.58-1.54-.85-3.8-.8-3.38.07-4.33-.33-4.39-1.55-.04-1.06,2.17-.84,5.56-1.67,2.52-.61,2.84-2.06,2.27-2.61-.85-.81-1.33-.92-4.96-.19-5.11,1.03-10.03,1.99-7.09-.55,2.93-2.54,4.02-4.44,2.75-5.2-2-1.22-5.26,3.21-6.25,3.74-1.01.55-2.01.58-2.88.3l-.02-.16s-.07.08-.11.12c-.92.89-1.19,2.52-1.81,3.42-.38.55-.97.92-1.62.96-.44.02-.8-.09-1.08-.25-.68-.39-.94-1.21-.69-1.95.1-.3.27-.62.54-.86.75-.69,1.24-2.67,1.36-3.26.12-.61-.15-1.09-1.11-1.26-.83-.14-2.41,1.71-2.9,2.13-.49.42-2.16.93-2.98.35-.82-.58-.75-1.86-.35-2.45.35-.51,1.83-1.41,3-2.12,1.17-.7.77-1.82.77-1.82,0,0-.32-.67-1.9-.37-1.62.3-4.77,0-4.77,0,0,0-1.63-.03-1.69-1.99-.06-1.96,3.07-1.37,3.07-1.37,0,0,.78.26,2.55-.33.89-.3.95-.91.8-1.44-.18-.61-.69-1.05-1.31-1.2-.53-.13-1.26-.3-2.01-.45-1.4-.27-2.38-.89-2.38-2.12,0-.56.3-.95.85-1.29.84-.53,1.88-.66,2.84-.41l1.14.28,1.48.37c9.76,3.62,20.39,8.14,20.39,8.14,0,0,4.81,2.19,10.03,5.55,6.75,4.34,11.95,10.69,15,18.11,3.12,7.57,7.23,19.73,7.64,31.89.66,19.8-18.06,17.28-18.06,17.28Z"/>
        <path class="cls-2" d="m48.66,23.99l12.62-16.63c2.27-3,5.49-5.2,9.17-6.14,2.71-.69,6.36-1.22,11.12-1.22h9.08c1.47,0,2.94.37,4.16,1.19,1.97,1.33,3.85,4.05,1.53,9.42-3.97,9.22-24.13,26.54-24.13,26.54,0,0-8.23,6.98-19.02,1.96-6.16-2.87-7.05-7.02-6.67-10.05.23-1.84,1.02-3.58,2.15-5.06Z"/>
      </g>
      <path class="cls-3" d="m7.57,69.22l1.28,38.2c.11,3.34.97,6.63,2.64,9.45,1.99,3.38,5.44,6.88,11.22,7.4,5.14.46,8.73-1.82,11.12-4.5,2.58-2.89,4.09-6.74,4.46-10.8.56-6.33,1.56-19.51.6-24.16-.33-1.57-.78-2.84-1.27-3.85-1.07-2.21-3.21-3.52-5.47-3.55-1.78-.03-4.62-.39-8.57-1.81-5.87-2.12-9.76-7.18-13.39-8.52-1.32-.48-2.66.6-2.61,2.12Z"/>
    </g>
  </g>
</svg>