<?xml version="1.0" encoding="UTF-8"?>
<svg id="Capa_2" data-name="Capa 2" xmlns="http://www.w3.org/2000/svg" xmlns:xlink="http://www.w3.org/1999/xlink" viewBox="0 0 265.69 527.36">
  <defs>
    <style>
      .cls-1 {
        fill: url(#Degradado_sin_nombre_100);
      }
    </style>
    <linearGradient id="Degradado_sin_nombre_100" data-name="Degradado sin nombre 100" x1="11590.22" y1="869.65" x2="11853.35" y2="1021.57" gradientTransform="translate(11732.08 2241.92) rotate(-174.93)" gradientUnits="userSpaceOnUse">
      <stop offset=".21" stop-color="#36a399"/>
      <stop offset=".87" stop-color="#2d2d73"/>
    </linearGradient>
  </defs>
  <g id="Capa_1-2" data-name="Capa 1">
    <path class="cls-1" d="m111.03,41.63c14.16-23.17,31.89-36.59,53.18-40.28,21.31-3.68,41.28.18,59.95,11.59,19.24,11.76,32.08,27.96,38.51,48.58,6.44,20.64,2.57,42.53-11.59,65.69l-47.62,78.63c-25.18,41.58-35.7,90.26-29.75,137.67l10.28,81.87c5.48,43.65-22.03,85.87-64.1,98.37h0c-49.66,14.75-99.18-17.4-106.08-68.86l-10.68-79.75c-10.76-80.35,6.44-163.1,48.65-233.99l59.26-99.53Z"/>
  </g>
</svg>