<?xml version="1.0" encoding="UTF-8"?>
<svg id="Capa_2" data-name="Capa 2" xmlns="http://www.w3.org/2000/svg" xmlns:xlink="http://www.w3.org/1999/xlink" viewBox="0 0 219.64 80.61">
  <defs>
    <style>
      .cls-1 {
        fill: url(#Degradado_sin_nombre_45);
      }

      .cls-2 {
        fill: #2d2d73;
      }

      .cls-3 {
        fill: #2c2d6e;
      }

      .cls-4 {
        fill: url(#Degradado_sin_nombre_68);
      }
    </style>
    <linearGradient id="Degradado_sin_nombre_45" data-name="Degradado sin nombre 45" x1="35.28" y1="9.18" x2="87.45" y2="34.77" gradientTransform="translate(-37.11 2.76) rotate(1.49)" gradientUnits="userSpaceOnUse">
      <stop offset=".14" stop-color="#36a399"/>
      <stop offset=".75" stop-color="#2d2d73"/>
    </linearGradient>
    <linearGradient id="Degradado_sin_nombre_68" data-name="Degradado sin nombre 68" x1="54.96" y1="38.36" x2="104.25" y2="60.53" gradientTransform="translate(-37.11 2.76) rotate(1.49)" gradientUnits="userSpaceOnUse">
      <stop offset=".15" stop-color="#e34c33"/>
      <stop offset=".96" stop-color="#2c2d6e"/>
    </linearGradient>
  </defs>
  <g id="Capa_1-2" data-name="Capa 1">
    <g>
      <path class="cls-3" d="m90.5,69.26c0,3.24-1.1,5.71-3.3,7.41-2.2,1.7-4.78,2.55-7.75,2.55s-5.68-.85-7.88-2.55c-2.2-1.7-3.3-4.17-3.3-7.41l-.05-10.98c-.03-5.8-2.25-11.42-6.29-15.88l-6.97-7.7c-3.72-4.11-3.52-10.12.46-14.01h0c4.7-4.59,12.69-4.4,17.12.41l6.87,7.46c6.92,7.52,10.77,17.02,10.9,26.87l.18,13.83Z"/>
      <g>
        <g>
          <path class="cls-1" d="m41.32,46.7l2.12.5c.5.12.94.42,1.18.86.23.41.26.89-.53,1.18-.6.21-1.24.13-1.77-.18-.57-.33-1.34-.5-2.04-.15-.7.64.83,1.5,1.64,1.88.37.17.93.67.66,1.16-.26.47-.36.37-.88.4-.48.02-1.05,0-2.5-.6-1.04-.44-1.84-.86-2.63-1.53-1.64-1.39-1.64-1.05-4.59-2.07-.91-.31-2.44-.69-3.4-.83-1.04-.15-1.79-.43-4.27-.72-1-.12-5.13-.44-6.69-1.11-4.31-1.86-11.41-4.14-13.87-14.82C-.73,11.25-.91,10.03,1.71,5.72c1.14-1.88,3.01-3.22,5.13-3.73.72-.17,9.38-.94,9.38-.94l1.27.06c2.36.11,4.49,1.53,5.43,3.7.11.25.18.45.19.58.27,2.54.64,8.78.8,12,.16,3.29.88,6.65,3.66,8.82l-.75-.2c-.63-.18-1.31-.11-1.87.22-.37.21-.57.46-.58.83-.02.8.62,1.23,1.53,1.43.49.11.96.23,1.31.33.4.11.73.41.84.81.09.35.04.75-.55.93-1.18.36-1.68.17-1.68.17,0,0-2.04-.44-2.04.85,0,1.28,1.08,1.33,1.08,1.33,0,0,2.06.25,3.13.08,1.04-.17,1.24.27,1.24.27,0,0,.25.74-.53,1.18-.78.44-1.77,1.01-2.01,1.34-.27.38-.34,1.22.19,1.61.53.39,1.63.09,1.96-.18.33-.27,1.4-1.46,1.94-1.35.63.12.79.45.71.84-.09.39-.44,1.68-.95,2.12-.18.16-.3.36-.37.56-.17.48-.02,1.02.42,1.29.18.11.42.19.7.18.43-.02.83-.25,1.08-.6.42-.58.62-1.65,1.25-2.21.03.01.06.02.09.03.57.2,1.22.19,1.89-.15.66-.33,2.87-3.18,4.17-2.35.82.53.07,1.75-1.9,3.37-1.97,1.62,1.28,1.07,4.65.48,2.4-.41,2.71-.34,3.25.21.37.37.14,1.31-1.53,1.67-2.24.48-3.68.3-3.68,1,.01.8.63,1.08,2.85,1.09,1.48,0,2.31.21,2.48.59.28.64-.4,1.15-1.04,1.13-.61-.02-1.22.08-3.15.32-2.01.24-.38,1.26-.38,1.26Z"/>
          <path class="cls-4" d="m50.13,80.19s-7.69.5-8.61-11.13c-.27-3.43-.85-6.33-1.54-8.71-1.42-4.94-4.95-8.99-9.63-11.11-2.03-.92-4.25-1.9-6.05-2.63,2.48.29,3.23.57,4.27.72.96.14,2.49.52,3.4.83,2.95,1.02,2.96.68,4.59,2.07.79.67,1.59,1.09,2.63,1.53,1.44.6,2.01.62,2.5.6.52-.03.61.07.88-.4.27-.49-.29-.98-.66-1.16-.81-.38-2.34-1.24-1.64-1.88.7-.35,1.47-.18,2.04.15.53.31,1.17.38,1.77.18.79-.28.76-.77.53-1.18-.24-.45-.68-.74-1.18-.86l-2.12-.5s-1.63-1.02.38-1.26c1.93-.24,2.54-.34,3.15-.32.64.02,1.32-.49,1.04-1.13-.17-.38-1-.58-2.48-.59-2.22-.01-2.84-.29-2.85-1.09,0-.7,1.44-.52,3.68-1,1.67-.36,1.9-1.3,1.53-1.67-.54-.55-.86-.62-3.25-.21-3.37.59-6.62,1.14-4.65-.48,1.97-1.62,2.71-2.84,1.9-3.37-1.29-.83-3.51,2.02-4.17,2.35-.67.34-1.33.35-1.89.15v-.11s-.06.05-.09.08c-.62.57-.82,1.63-1.25,2.21-.26.35-.65.58-1.08.6-.29,0-.52-.07-.7-.18-.44-.27-.59-.81-.42-1.29.07-.2.18-.4.37-.56.51-.44.86-1.73.95-2.12.09-.4-.08-.72-.71-.84-.54-.11-1.61,1.08-1.94,1.35-.33.27-1.43.57-1.96.18-.53-.39-.46-1.23-.19-1.61.24-.33,1.23-.89,2.01-1.34.78-.44.53-1.18.53-1.18,0,0-.2-.45-1.24-.27-1.07.17-3.13-.08-3.13-.08,0,0-1.07-.05-1.08-1.33,0-1.28,2.04-.85,2.04-.85,0,0,.5.18,1.68-.17.59-.18.64-.58.55-.93-.11-.4-.44-.7-.84-.81-.35-.1-.82-.22-1.31-.33-.91-.2-1.54-.63-1.53-1.43,0-.37.21-.62.58-.83.56-.33,1.25-.4,1.87-.22l.75.2.97.27c6.34,2.54,13.24,5.69,13.24,5.69,0,0,3.12,1.52,6.49,3.81,4.35,2.96,7.66,7.22,9.54,12.14,1.92,5.02,4.41,13.07,4.47,21.05.1,13-12.14,11.03-12.14,11.03Z"/>
          <path class="cls-2" d="m31.84,15.19l8.57-10.7c1.54-1.93,3.69-3.32,6.12-3.87,1.79-.4,4.19-.69,7.32-.61l5.96.15c.97.03,1.93.29,2.71.85,1.27.91,2.45,2.72.84,6.21-2.77,5.98-16.29,17-16.29,17,0,0-5.52,4.44-12.51.96-4-1.99-4.5-4.73-4.2-6.71.18-1.21.73-2.33,1.49-3.29Z"/>
        </g>
        <path class="cls-3" d="m4.1,44.17l.19,25.08c.02,2.19.52,4.37,1.57,6.25,1.25,2.25,3.45,4.61,7.24,5.05,3.37.39,5.76-1.04,7.37-2.76,1.75-1.85,2.8-4.35,3.11-7.01.48-4.14,1.36-12.77.8-15.84-.19-1.04-.46-1.87-.77-2.54-.67-1.47-2.04-2.36-3.53-2.42-1.17-.05-3.02-.33-5.59-1.33-3.82-1.49-6.28-4.88-8.64-5.82-.86-.34-1.75.35-1.75,1.35Z"/>
      </g>
      <path class="cls-3" d="m151.75,42.23c0-5.02.89-9.76,2.67-14.23,1.78-4.46,4.18-8.35,7.22-11.65,3.04-3.31,6.63-5.92,10.78-7.83,4.15-1.91,8.56-2.87,13.22-2.87s9.07.96,13.22,2.87c4.15,1.91,7.76,4.52,10.83,7.83,3.07,3.31,5.5,7.19,7.28,11.65,1.78,4.46,2.67,9.2,2.67,14.23s-.89,9.76-2.67,14.22c-1.78,4.46-4.2,8.33-7.28,11.59-3.07,3.27-6.69,5.86-10.83,7.77-4.15,1.91-8.56,2.87-13.22,2.87s-9.07-.96-13.22-2.87c-4.15-1.91-7.74-4.5-10.78-7.77-3.04-3.27-5.44-7.13-7.22-11.59-1.78-4.46-2.67-9.2-2.67-14.22Zm21.89-.88c0,2.29.31,4.42.94,6.38.63,1.97,1.51,3.71,2.65,5.2,1.14,1.5,2.46,2.66,3.96,3.49,1.5.83,3.12,1.24,4.85,1.24s3.37-.41,4.9-1.24c1.53-.83,2.85-1.99,3.96-3.49,1.11-1.5,1.99-3.23,2.65-5.2.66-1.97.99-4.1.99-6.38s-.33-4.43-.99-6.44c-.66-2.01-1.54-3.74-2.65-5.2-1.11-1.46-2.43-2.62-3.96-3.49-1.53-.87-3.16-1.3-4.9-1.3s-3.36.43-4.85,1.3c-1.5.87-2.82,2.03-3.96,3.49-1.14,1.46-2.02,3.19-2.65,5.2-.63,2.01-.94,4.16-.94,6.44Z"/>
      <path class="cls-3" d="m119.34,77.41c2.97-.13,5.88-1.05,8.32-2.77,1-.7,1.95-1.53,2.63-2.44l9.39-12.97c6.69-9.24,10.42-20.23,10.55-31.08l.12-10.77c.07-6-4.13-9.99-9.57-10.28-.86-.05-4.22.21-5.12.44-5.58,1.41-7.4,6.79-7.51,12.69l-.22,11.05c-.12,6.4-1.62,11.47-5.6,16.89h0c-1.27,1.92-4.01,2.03-5.42.22l-.11-.14c-4.1-5.33-5.24-10.21-5.51-16.61l-.45-11.04c-.12-2.94-.66-7.26-2.49-9.5-1.84-2.25-4.9-2.88-7.77-3.06-7.89-.49-12.23,3.26-12,10.2l.36,10.77c.36,10.85,4.31,21.75,11.2,30.84l9.67,12.76c1.69,2.19,3.28,3.28,5.3,4.09,1.35.54,2.8.78,4.24.71h0Z"/>
    </g>
  </g>
</svg>