<?xml version="1.0" encoding="UTF-8"?>
<svg id="Capa_2" data-name="Capa 2" xmlns="http://www.w3.org/2000/svg" viewBox="0 0 134.63 151.94">
  <defs>
    <style>
      .cls-1 {
        fill: #fff;
      }

      .cls-2 {
        fill: none;
        stroke: #fff;
        stroke-miterlimit: 10;
        stroke-width: 2.03px;
      }
    </style>
  </defs>
  <g id="Capa_1-2" data-name="Capa 1">
    <g>
      <g>
        <path class="cls-1" d="m96.39,71.73c0,3.29-1.12,5.8-3.35,7.52-2.24,1.73-4.85,2.59-7.86,2.59s-5.77-.86-8-2.59c-2.24-1.73-3.35-4.23-3.35-7.52l-.05-11.14c-.03-5.89-2.28-11.59-6.38-16.11l-7.07-7.82c-3.77-4.17-3.57-10.27.47-14.22h0c4.77-4.66,12.88-4.47,17.38.42l6.97,7.57c7.02,7.63,10.94,17.27,11.07,27.27l.18,14.03Z"/>
        <path class="cls-1" d="m10.14,118.38c0-4.62.82-8.99,2.45-13.1,1.64-4.11,3.85-7.68,6.65-10.73,2.8-3.04,6.1-5.45,9.92-7.21,3.82-1.76,7.88-2.64,12.17-2.64s8.35.88,12.17,2.64c3.82,1.76,7.14,4.16,9.97,7.21,2.83,3.04,5.06,6.62,6.7,10.73,1.64,4.11,2.45,8.47,2.45,13.1s-.82,8.99-2.45,13.09c-1.64,4.11-3.87,7.67-6.7,10.67-2.83,3.01-6.15,5.39-9.97,7.15-3.82,1.76-7.88,2.64-12.17,2.64s-8.35-.88-12.17-2.64c-3.82-1.76-7.13-4.14-9.92-7.15-2.8-3.01-5.01-6.56-6.65-10.67-1.64-4.11-2.45-8.47-2.45-13.09Zm20.15-.81c0,2.11.29,4.06.87,5.88.58,1.81,1.39,3.41,2.44,4.79,1.05,1.38,2.26,2.45,3.64,3.21,1.38.76,2.87,1.14,4.47,1.14s3.1-.38,4.51-1.14c1.41-.76,2.62-1.83,3.64-3.21,1.02-1.38,1.83-2.97,2.44-4.79.61-1.81.91-3.77.91-5.88s-.3-4.08-.91-5.93c-.61-1.85-1.42-3.45-2.44-4.79-1.02-1.34-2.23-2.41-3.64-3.21-1.41-.8-2.91-1.2-4.51-1.2s-3.09.4-4.47,1.2c-1.38.8-2.59,1.87-3.64,3.21-1.05,1.34-1.86,2.94-2.44,4.79-.58,1.85-.87,3.83-.87,5.93Z"/>
        <path class="cls-1" d="m104,149.86c2.94-.13,5.8-1,8.22-2.62.99-.66,1.93-1.44,2.6-2.3l9.27-12.24c6.61-8.71,10.3-19.09,10.42-29.32l.12-10.16c.07-5.66-4.08-9.43-9.45-9.7-.85-.04-4.16.19-5.06.41-5.52,1.33-7.31,6.41-7.42,11.97l-.22,10.43c-.12,6.04-1.6,10.82-5.53,15.94h0c-1.26,1.81-3.96,1.91-5.36.21l-.11-.14c-4.05-5.03-5.18-9.64-5.44-15.67l-.44-10.42c-.12-2.78-.65-6.85-2.46-8.96-1.81-2.12-4.84-2.72-7.67-2.89-7.79-.47-12.08,3.07-11.86,9.62l.35,10.16c.35,10.23,4.26,20.52,11.06,29.1l9.55,12.04c1.67,2.07,3.24,3.09,5.23,3.86,1.33.51,2.76.73,4.19.67h0Z"/>
      </g>
      <g>
        <g>
          <path class="cls-1" d="m42.87,48.72l2.16.45c.51.11.97.4,1.22.85.24.41.29.9-.51,1.21-.6.23-1.26.17-1.8-.13-.59-.32-1.38-.47-2.08-.1-.69.67.88,1.5,1.71,1.86.38.17.96.65.7,1.16-.26.49-.35.38-.88.43-.49.03-1.07.03-2.55-.54-1.07-.42-1.89-.82-2.71-1.48-1.7-1.37-1.7-1.02-4.72-1.98-.93-.3-2.5-.64-3.47-.75-1.06-.12-1.83-.39-4.35-.62-1.02-.09-5.22-.31-6.82-.95-4.43-1.77-11.69-3.9-14.47-14.67C-.73,13.86-.95,12.63,1.6,8.18c1.11-1.94,2.97-3.34,5.11-3.92.73-.19,9.49-1.2,9.49-1.2l1.29.03c2.4.05,4.6,1.43,5.61,3.61.11.25.19.45.21.58.34,2.57.88,8.89,1.13,12.15.25,3.33,1.07,6.72,3.94,8.85l-.76-.19c-.64-.16-1.33-.08-1.89.28-.37.23-.57.49-.57.86,0,.82.66,1.23,1.59,1.41.5.1.98.21,1.34.3.41.1.75.39.87.8.1.35.06.76-.53.96-1.19.39-1.7.22-1.7.22,0,0-2.09-.39-2.05.91.04,1.3,1.13,1.32,1.13,1.32,0,0,2.1.2,3.18,0,1.05-.2,1.26.25,1.26.25,0,0,.27.74-.51,1.21-.78.47-1.77,1.07-2,1.41-.27.39-.31,1.25.24,1.63.55.38,1.65.04,1.98-.24.33-.28,1.38-1.51,1.93-1.42.64.11.82.43.74.84-.08.4-.4,1.72-.91,2.17-.18.16-.29.37-.36.58-.16.49,0,1.04.46,1.3.19.11.43.18.72.17.44-.03.83-.28,1.08-.64.41-.6.59-1.69,1.21-2.28.03,0,.06.02.09.03.58.19,1.24.16,1.92-.2.66-.35,2.83-3.31,4.17-2.49.84.51.12,1.78-1.83,3.47-1.96,1.69,1.32,1.05,4.73.36,2.42-.48,2.74-.41,3.31.13.38.36.17,1.33-1.51,1.74-2.26.55-3.73.4-3.7,1.11.03.81.67,1.08,2.92,1.03,1.51-.03,2.35.15,2.53.54.3.64-.38,1.18-1.03,1.18-.61,0-1.23.12-3.19.41-2.04.3-.35,1.29-.35,1.29Z"/>
          <path class="cls-1" d="m26.99,28.02c.21,0,.43.03.63.08l.76.19.99.25c6.5,2.41,13.59,5.42,13.59,5.42,0,0,3.2,1.46,6.68,3.7,4.49,2.89,7.96,7.12,10,12.06,2.08,5.05,4.82,13.15,5.09,21.25.35,10.51-7.49,11.58-10.7,11.58-.82,0-1.33-.07-1.33-.07,0,0-.09,0-.25,0-1.35,0-7.67-.56-8.78-11.08-.37-3.47-1.03-6.4-1.79-8.8-1.57-4.97-5.96-7.8-10.06-11.02-2.05-1.61-4.09-2.56-5.94-3.26,2.52.23,3.03,1.25,4.08,1.37.97.11,2.54.46,3.47.75,3.02.96,3.02.61,4.72,1.98.82.66,1.64,1.06,2.71,1.48,1.2.46,1.81.55,2.25.55.11,0,.2,0,.3-.01.53-.04.62.06.88-.43.27-.5-.32-.99-.7-1.16-.83-.37-2.41-1.2-1.71-1.86.29-.16.6-.22.9-.22.42,0,.84.13,1.18.32.32.18.68.27,1.05.27.25,0,.51-.04.75-.14.79-.31.75-.8.51-1.21-.26-.45-.71-.74-1.22-.85l-2.16-.45s-1.68-.99.35-1.29c1.95-.29,2.57-.41,3.19-.41.65,0,1.33-.53,1.03-1.18-.17-.36-.91-.54-2.23-.54-.1,0-.2,0-.31,0-.16,0-.31,0-.45,0-1.89,0-2.44-.28-2.47-1.04-.02-.71,1.45-.56,3.7-1.11,1.68-.41,1.89-1.37,1.51-1.74-.31-.3-.55-.45-1.09-.45-.45,0-1.12.11-2.21.32-1.8.36-3.56.71-4.54.71-.87,0-1.11-.28-.19-1.08,1.95-1.69,2.68-2.96,1.83-3.47-.16-.1-.33-.14-.51-.14-1.32,0-3.07,2.32-3.65,2.63-.41.22-.81.32-1.2.32-.25,0-.49-.04-.72-.11l-.02-.11s-.04.05-.07.08c-.61.59-.79,1.68-1.21,2.28-.25.36-.64.61-1.08.64-.02,0-.05,0-.07,0-.26,0-.47-.07-.65-.17-.45-.26-.62-.81-.46-1.3.07-.2.18-.41.36-.58.5-.46.83-1.78.9-2.17.08-.4-.1-.73-.74-.84-.02,0-.04,0-.06,0-.56,0-1.55,1.16-1.87,1.43-.22.19-.81.41-1.33.41-.25,0-.48-.05-.65-.17-.55-.38-.5-1.24-.24-1.63.23-.34,1.22-.94,2-1.41.78-.47.51-1.21.51-1.21,0,0-.14-.3-.77-.3-.14,0-.31.02-.5.05-.36.07-.83.09-1.3.09-.94,0-1.88-.09-1.88-.09,0,0-1.09-.02-1.13-1.32-.02-.82.78-.97,1.39-.97.36,0,.65.05.65.05,0,0,.11.04.35.04.27,0,.72-.05,1.35-.26.59-.2.63-.61.53-.96-.12-.4-.46-.7-.87-.8-.35-.09-.84-.2-1.34-.3-.93-.18-1.58-.6-1.59-1.41,0-.37.2-.63.57-.86.38-.24.82-.35,1.26-.35m0-1.62c-.76,0-1.5.21-2.13.61-1.11.68-1.33,1.6-1.32,2.25,0,.39.11,1.46,1.11,2.23-.36.14-.67.34-.92.61-.45.47-.69,1.11-.67,1.79.06,2.04,1.58,2.84,2.64,2.89.12.01.47.04.91.06-.08.09-.15.18-.22.27-.74,1.1-.66,2.96.64,3.87.43.3.98.47,1.59.47.37,0,.76-.06,1.14-.17-.29,1.18.22,2.41,1.25,3.01.43.25.94.39,1.45.39.05,0,.1,0,.16,0,.95-.06,1.79-.55,2.33-1.34.27-.39.45-.83.6-1.22.03-.06.05-.14.09-.21.44,0,.88-.08,1.31-.22,0,.21.03.44.12.67.22.59.79,1.29,2.28,1.29.32,0,.69-.03,1.12-.08-.08.22-.12.48-.11.78.04,1.02.5,1.64,1.11,2.02-.55.37-.77.84-.85,1.25-.13.67.1,1.33.62,1.89-.05.02-.1.05-.14.07-.13.07-.25.16-.36.26-.53.51-.76,1.19-.64,1.88,0,.03.01.06.02.09-.34-.18-.65-.39-.97-.64-1.42-1.14-1.98-1.34-3.4-1.72-.47-.13-1.05-.29-1.85-.54-1.07-.34-2.72-.7-3.78-.82-.09-.01-.3-.13-.53-.25-.68-.38-1.71-.95-3.6-1.12-.05,0-.1,0-.15,0-.75,0-1.41.52-1.58,1.26-.18.79.25,1.59,1.01,1.88,1.37.52,3.44,1.39,5.51,3.02.51.4,1.03.8,1.54,1.19,3.47,2.66,6.75,5.17,7.97,9.04.83,2.62,1.41,5.47,1.72,8.48,1.25,11.92,8.88,12.53,10.39,12.53.08,0,.15,0,.2,0,.24.03.73.06,1.38.06,2.18,0,6.27-.45,9.17-3.46,2.23-2.31,3.29-5.6,3.15-9.8-.28-8.23-2.99-16.4-5.21-21.81-2.19-5.32-5.86-9.75-10.62-12.81-3.54-2.28-6.75-3.75-6.89-3.81-.11-.05-7.23-3.07-13.69-5.47-.06-.02-.11-.04-.17-.05l-.99-.25-.77-.19c-.32-.08-.67-.13-1.02-.13h0Z"/>
          <path class="cls-2" d="m32.42,17l8.41-11.08c1.51-2,3.66-3.47,6.11-4.09,1.81-.46,4.24-.81,7.41-.81h6.05c.98,0,1.96.25,2.77.79,1.31.89,2.56,2.7,1.02,6.28-2.65,6.14-16.08,17.68-16.08,17.68,0,0-5.49,4.65-12.67,1.3-4.11-1.91-4.69-4.68-4.44-6.7.15-1.23.68-2.38,1.43-3.37Z"/>
        </g>
        <path class="cls-1" d="m5.06,47.13l.83,25.45c.07,2.23.66,4.42,1.79,6.3,1.36,2.25,3.7,4.58,7.64,4.92,3.51.3,5.95-1.22,7.59-3.01,1.77-1.93,2.8-4.5,3.05-7.2.39-4.22,1.09-13,.43-16.1-.22-1.05-.53-1.89-.86-2.56-.73-1.47-2.18-2.34-3.73-2.36-1.21-.02-3.15-.25-5.85-1.2-4-1.4-6.65-4.77-9.12-5.66-.9-.32-1.81.4-1.78,1.41Z"/>
      </g>
    </g>
  </g>
</svg>