<?xml version="1.0" encoding="UTF-8"?>
<svg id="Capa_2" data-name="Capa 2" xmlns="http://www.w3.org/2000/svg" viewBox="0 0 552.26 207.87">
  <defs>
    <style>
      .cls-1 {
        fill: #fff;
      }

      .cls-2 {
        fill: none;
        stroke: #fff;
        stroke-miterlimit: 10;
        stroke-width: 5px;
      }
    </style>
  </defs>
  <g id="Capa_1-2" data-name="Capa 1">
    <g>
      <path class="cls-1" d="m236.47,174.99c0,7.55-2.56,13.3-7.69,17.27-5.13,3.96-11.14,5.94-18.04,5.94s-13.23-1.98-18.35-5.94c-5.13-3.96-7.69-9.72-7.69-17.27l-.12-25.56c-.06-13.52-5.24-26.59-14.64-36.97l-16.23-17.93c-8.66-9.56-8.2-23.57,1.07-32.63h0c10.94-10.7,29.55-10.25,39.87.96l15.99,17.37c16.11,17.5,25.09,39.63,25.39,62.56l.42,32.2Z"/>
      <path class="cls-1" d="m394.17,112.06c0-11.69,2.07-22.73,6.21-33.13,4.14-10.39,9.74-19.44,16.82-27.14,7.07-7.7,15.44-13.78,25.1-18.23,9.66-4.45,19.92-6.68,30.79-6.68s21.13,2.23,30.79,6.68c9.66,4.45,18.07,10.53,25.23,18.23,7.16,7.7,12.81,16.75,16.95,27.14,4.14,10.4,6.21,21.44,6.21,33.13s-2.07,22.73-6.21,33.13c-4.14,10.39-9.79,19.39-16.95,27-7.16,7.61-15.57,13.64-25.23,18.09-9.66,4.45-19.92,6.68-30.79,6.68s-21.13-2.23-30.79-6.68c-9.66-4.45-18.03-10.48-25.1-18.09-7.07-7.61-12.68-16.61-16.82-27-4.14-10.39-6.21-21.44-6.21-33.13Zm50.99-2.05c0,5.33.73,10.28,2.2,14.87,1.46,4.59,3.52,8.63,6.18,12.11,2.65,3.49,5.72,6.19,9.21,8.12,3.49,1.93,7.26,2.89,11.3,2.89s7.85-.96,11.41-2.89c3.56-1.93,6.63-4.63,9.21-8.12,2.58-3.48,4.64-7.53,6.18-12.11,1.53-4.59,2.3-9.54,2.3-14.87s-.77-10.32-2.3-15.01c-1.54-4.68-3.6-8.72-6.18-12.11-2.58-3.39-5.65-6.1-9.21-8.12-3.56-2.02-7.36-3.03-11.41-3.03s-7.82,1.01-11.3,3.03c-3.49,2.02-6.56,4.73-9.21,8.12-2.65,3.4-4.71,7.43-6.18,12.11-1.46,4.68-2.2,9.68-2.2,15.01Z"/>
      <path class="cls-1" d="m311.99,193.99c6.92-.31,13.69-2.46,19.38-6.46,2.33-1.64,4.55-3.55,6.12-5.67l21.86-30.2c15.59-21.51,24.28-47.11,24.56-72.37l.28-25.09c.17-13.98-9.61-23.27-22.28-23.94-2-.11-9.82.48-11.93,1.02-13,3.27-17.23,15.82-17.49,29.55l-.51,25.74c-.28,14.9-3.77,26.72-13.04,39.34h0c-2.96,4.46-9.33,4.72-12.63.51l-.26-.33c-9.54-12.41-12.21-23.79-12.84-38.69l-1.04-25.72c-.28-6.86-1.53-16.91-5.81-22.12-4.28-5.23-11.41-6.71-18.09-7.12-18.38-1.15-28.48,7.58-27.95,23.75l.83,25.09c.83,25.26,10.05,50.66,26.09,71.82l22.52,29.72c3.94,5.11,7.64,7.64,12.34,9.54,3.13,1.26,6.51,1.81,9.88,1.66h0Z"/>
      <g>
        <g>
          <path class="cls-1" d="m44.99,6.05l3.19.07c5.92.13,11.34,3.53,13.84,8.9.28.61.47,1.11.51,1.44.84,6.35,2.17,21.93,2.78,29.99.62,8.23,2.65,16.59,9.73,21.83l-1.88-.46c-.51-.13-1.04-.2-1.56-.2-1.09,0-2.18.29-3.11.88-.91.56-1.41,1.2-1.4,2.12.01,2.01,1.63,3.05,3.92,3.48,1.23.24,2.43.52,3.3.74,1.01.24,1.86.97,2.15,1.97.25.87.15,1.88-1.31,2.37-1.56.52-2.65.64-3.33.64-.59,0-.87-.09-.87-.09,0,0-.72-.13-1.61-.13-1.5,0-3.5.38-3.44,2.39.1,3.22,2.78,3.26,2.78,3.26,0,0,2.3.22,4.63.22,1.16,0,2.33-.06,3.21-.22.48-.09.88-.13,1.23-.13,1.54,0,1.89.74,1.89.74,0,0,.67,1.83-1.26,2.99-1.93,1.17-4.37,2.65-4.94,3.48-.66.97-.76,3.08.58,4.03.43.3,1.01.42,1.62.42,1.29,0,2.72-.54,3.28-1.01.78-.67,3.22-3.52,4.62-3.52.05,0,.1,0,.15.01,1.58.27,2.01,1.07,1.82,2.06-.19.98-1,4.24-2.23,5.36-.45.4-.72.92-.89,1.42-.4,1.21.02,2.56,1.14,3.2.42.24.96.42,1.59.42.06,0,.12,0,.18,0,1.08-.07,2.05-.68,2.67-1.58,1.02-1.48,1.46-4.16,2.97-5.62.07.02.15.05.22.07.57.18,1.16.28,1.78.28.95,0,1.95-.24,2.95-.78,1.43-.77,5.76-6.5,9.02-6.5.44,0,.87.11,1.26.35,2.08,1.26.29,4.38-4.53,8.56-2.28,1.97-1.68,2.65.46,2.65,2.41,0,6.76-.86,11.2-1.76,2.7-.54,4.34-.8,5.46-.8,1.35,0,1.94.38,2.7,1.11.95.9.42,3.28-3.73,4.28-5.57,1.36-9.2,1-9.14,2.74.08,1.86,1.44,2.56,6.11,2.56.35,0,.72,0,1.1-.01.26,0,.51,0,.75,0,3.24,0,5.08.45,5.5,1.33.74,1.59-.93,2.9-2.54,2.9-1.52,0-3.05.29-7.86,1.01-5.02.74-.87,3.18-.87,3.18l5.34,1.12c1.26.27,2.39.98,3.02,2.09.59,1.01.7,2.22-1.25,2.99-.61.23-1.24.34-1.86.34-.9,0-1.79-.23-2.58-.67-.84-.47-1.86-.79-2.91-.79-.74,0-1.5.16-2.21.54-1.71,1.65,2.17,3.69,4.22,4.6.93.41,2.38,1.61,1.72,2.85-.63,1.2-.87.95-2.17,1.06-.23.02-.47.03-.73.03-1.1,0-2.6-.23-5.56-1.36-2.63-1.03-4.67-2.03-6.69-3.65-4.19-3.37-4.19-2.52-11.64-4.89-2.31-.73-6.17-1.58-8.57-1.86-2.61-.3-4.52-.96-10.74-1.53-2.51-.23-12.89-.78-16.83-2.35-10.92-4.37-28.84-9.61-35.7-36.21C3.19,32.7,2.66,29.66,8.96,18.68c2.74-4.78,7.33-8.25,12.61-9.67,1.79-.48,23.42-2.96,23.42-2.96m-.23-5.01l-.34.04c-8.21.94-22.27,2.6-24.14,3.1-6.59,1.77-12.29,6.15-15.66,12.02-7.48,13.03-6.19,18.05,6.2,66.07,7.04,27.29,25.44,34.45,36.44,38.72.77.3,1.52.59,2.24.88,3.74,1.5,10.56,2.11,16.66,2.57.67.05,1.21.09,1.58.12,3.79.35,5.88.73,7.56,1.03,1.01.18,1.97.36,3.06.48,2.01.23,5.58,1.01,7.64,1.66,2.15.68,3.74,1.12,4.9,1.44,2.78.76,2.89.79,5.11,2.58,2.71,2.19,5.45,3.42,8,4.42,3.12,1.2,5.31,1.71,7.38,1.71.44,0,.81-.02,1.08-.04h.03s.03,0,.03,0c.15-.01.28-.02.39-.02,1.83-.07,4.14-.55,5.79-3.69.72-1.36.92-2.9.58-4.39.13-.04.25-.09.38-.13h.03s.03-.02.03-.02c2.83-1.11,3.99-2.97,4.46-4.34.65-1.87.39-3.93-.71-5.82-.13-.23-.28-.46-.43-.67,1.28-.61,2.39-1.55,3.14-2.74,1.24-1.95,1.39-4.37.41-6.48-.51-1.08-1.26-1.88-2.13-2.48,1.41-1.35,1.96-2.77,2.17-3.57.62-2.33-.04-4.77-1.73-6.37-1.28-1.22-3.02-2.49-6.14-2.49-1.63,0-3.59.33-6.43.89-.34.07-.69.14-1.05.21.59-1.34.82-2.62.72-3.88-.18-2.13-1.36-4.01-3.23-5.15-1.15-.7-2.49-1.08-3.86-1.08-4.31,0-7.88,3.54-10.49,6.13-.36.36-.84.83-1.11,1.07-.14.06-.26.08-.37.08-.08,0-.16-.01-.25-.04l-.17-.06-2.25-.75c-.19-.64-.48-1.24-.86-1.79-.72-1.05-2.12-2.38-4.69-2.87.12-1.14-.03-2.26-.39-3.23l-.08-.22-.1-.21c-.55-1.16-1.67-2.37-3.38-3.05.83-1.51,1.03-3.35.48-5.26-.05-.17-.1-.34-.17-.5l16.93,4.15-20.01-14.8c-4.65-3.44-7.03-9.05-7.72-18.19-.64-8.44-1.97-23.9-2.81-30.27-.11-.85-.4-1.74-.94-2.9-3.25-6.99-10.42-11.61-18.26-11.79l-3.19-.07h-.34Z"/>
          <path class="cls-1" d="m83.5,125.78c10.13,7.94,20.95,14.92,24.83,27.19,1.87,5.92,3.52,13.15,4.42,21.72,3.06,29.06,22.28,27.31,22.28,27.31,0,0,30.78,4.15,29.69-28.4-.67-19.99-7.44-39.97-12.56-52.43-5.02-12.2-13.58-22.63-24.67-29.77-8.59-5.53-16.49-9.12-16.49-9.12,0,0-17.48-7.43-33.52-13.38l-2.44-.61-1.88-.46c-1.58-.4-3.29-.19-4.67.68-.91.56-1.41,1.2-1.4,2.12.01,2.01,1.63,3.05,3.92,3.48,1.23.24,2.43.52,3.3.74,1.01.24,1.86.97,2.15,1.97.25.87.15,1.88-1.31,2.37-2.93.97-4.2.55-4.2.55,0,0-5.15-.96-5.05,2.26.1,3.22,2.78,3.26,2.78,3.26,0,0,5.18.5,7.84,0,2.6-.5,3.12.61,3.12.61,0,0,.67,1.83-1.26,2.99-1.93,1.17-4.37,2.65-4.94,3.48-.66.97-.76,3.08.58,4.03,1.35.95,4.08.11,4.89-.58.81-.69,3.41-3.74,4.77-3.51,1.58.27,2.01,1.07,1.82,2.06-.19.98-1,4.24-2.23,5.36-.45.4-.72.92-.89,1.42-.4,1.21.02,2.56,1.14,3.2.46.27,1.06.45,1.77.41,1.08-.07,2.05-.68,2.67-1.58,1.02-1.48,1.46-4.16,2.97-5.62.07-.06.12-.13.18-.19l.04.27c1.43.46,3.07.4,4.73-.5,1.63-.87,6.99-8.16,10.28-6.15,2.08,1.26.29,4.38-4.53,8.56-4.83,4.18,3.26,2.59,11.66.9,5.97-1.19,6.76-1.02,8.16.32.95.9.42,3.28-3.73,4.28-5.57,1.36-9.2,1-9.14,2.74.08,2,1.65,2.66,7.21,2.55,3.71-.07,5.8.38,6.25,1.32.74,1.59-.93,2.9-2.54,2.9-1.52,0-3.05.29-7.86,1.01-5.02.74-.87,3.18-.87,3.18l5.34,1.12c1.26.27,2.39.98,3.02,2.09.59,1.01.7,2.22-1.25,2.99-1.48.56-3.11.41-4.44-.33-1.44-.8-3.4-1.17-5.12-.24-1.71,1.65,2.17,3.69,4.22,4.6.93.41,2.38,1.61,1.72,2.85-.63,1.2-.87.95-2.17,1.06-1.2.08-2.63.07-6.29-1.34-2.63-1.03-4.67-2.03-6.69-3.65-4.19-3.37-4.19-2.52-11.64-4.89-2.31-.73-6.17-1.58-8.57-1.86"/>
          <path class="cls-1" d="m85.01,39.44l20.75-27.35c3.74-4.92,9.02-8.56,15.07-10.09,4.46-1.13,10.45-2.01,18.29-2.01h14.92c2.42,0,4.84.61,6.84,1.96,3.24,2.19,6.32,6.65,2.51,15.49-6.53,15.16-39.67,43.63-39.67,43.63,0,0-13.54,11.48-31.27,3.21-10.14-4.72-11.58-11.55-10.96-16.53.38-3.03,1.67-5.88,3.53-8.33Z"/>
        </g>
        <path class="cls-2" d="m17.94,121.17l1.75,58.46c.15,5.11,1.57,10.15,4.34,14.44,3.32,5.15,9.07,10.48,18.8,11.22,8.65.66,14.7-2.87,18.75-7,4.38-4.45,6.96-10.36,7.61-16.58,1.02-9.7,2.83-29.88,1.25-36.99-.53-2.41-1.28-4.33-2.09-5.87-1.78-3.37-5.36-5.35-9.17-5.38-2.99-.02-7.77-.54-14.4-2.68-9.86-3.18-16.35-10.89-22.43-12.9-2.21-.73-4.48.94-4.41,3.27Z"/>
      </g>
    </g>
  </g>
</svg>