<?xml version="1.0" encoding="UTF-8"?>
<svg id="Capa_2" data-name="Capa 2" xmlns="http://www.w3.org/2000/svg" xmlns:xlink="http://www.w3.org/1999/xlink" viewBox="0 0 124.23 143.43">
  <defs>
    <style>
      .cls-1 {
        fill: url(#Degradado_sin_nombre_45);
      }

      .cls-2 {
        fill: #2d2d73;
      }

      .cls-3 {
        fill: #2c2d6e;
      }

      .cls-4 {
        fill: url(#Degradado_sin_nombre_68);
      }
    </style>
    <linearGradient id="Degradado_sin_nombre_45" data-name="Degradado sin nombre 45" x1="-1.96" y1="13.77" x2="48.32" y2="38.43" gradientUnits="userSpaceOnUse">
      <stop offset=".14" stop-color="#36a399"/>
      <stop offset=".75" stop-color="#2d2d73"/>
    </linearGradient>
    <linearGradient id="Degradado_sin_nombre_68" data-name="Degradado sin nombre 68" x1="17.01" y1="41.89" x2="64.5" y2="63.25" gradientUnits="userSpaceOnUse">
      <stop offset=".15" stop-color="#e34c33"/>
      <stop offset=".96" stop-color="#2c2d6e"/>
    </linearGradient>
  </defs>
  <g id="Capa_1-2" data-name="Capa 1">
    <g>
      <path class="cls-3" d="m87.93,67.27c0,3.12-1.06,5.5-3.18,7.14-2.12,1.64-4.61,2.46-7.46,2.46s-5.47-.82-7.59-2.46c-2.12-1.64-3.18-4.02-3.18-7.14l-.05-10.58c-.03-5.59-2.17-11-6.06-15.3l-6.72-7.42c-3.58-3.96-3.39-9.75.44-13.5h0c4.53-4.43,12.23-4.24,16.5.4l6.62,7.19c6.67,7.24,10.38,16.4,10.51,25.89l.18,13.32Z"/>
      <g>
        <g>
          <path class="cls-1" d="m40.69,45.29l2.05.43c.49.1.92.38,1.16.8.23.39.27.85-.48,1.15-.57.21-1.2.16-1.71-.13-.56-.31-1.31-.45-1.97-.09-.66.63.84,1.42,1.62,1.77.36.16.92.62.66,1.1-.24.46-.34.36-.84.41-.46.03-1.01.03-2.42-.51-1.01-.4-1.8-.78-2.57-1.41-1.61-1.3-1.61-.97-4.48-1.88-.89-.28-2.37-.61-3.3-.71-1-.12-1.74-.37-4.13-.59-.97-.09-4.96-.3-6.48-.91-4.2-1.68-11.09-3.7-13.73-13.93C-.7,12.19-.9,11.02,1.52,6.8c1.06-1.84,2.82-3.17,4.85-3.72.69-.18,9.01-1.14,9.01-1.14l1.23.03c2.28.05,4.36,1.36,5.32,3.42.11.23.18.43.2.55.32,2.44.84,8.44,1.07,11.54.24,3.17,1.02,6.38,3.74,8.4l-.72-.18c-.61-.15-1.27-.07-1.8.26-.35.21-.54.46-.54.82,0,.78.63,1.17,1.51,1.34.47.09.93.2,1.27.28.39.09.71.37.83.76.1.34.06.72-.5.91-1.13.37-1.62.21-1.62.21,0,0-1.98-.37-1.94.87.04,1.24,1.07,1.26,1.07,1.26,0,0,1.99.19,3.02,0,1-.19,1.2.23,1.2.23,0,0,.26.71-.49,1.15-.74.45-1.68,1.02-1.9,1.34-.25.37-.29,1.19.22,1.55.52.36,1.57.04,1.88-.22.31-.27,1.31-1.44,1.83-1.35.61.1.78.41.7.79-.07.38-.38,1.63-.86,2.06-.17.15-.28.35-.34.55-.15.47,0,.99.44,1.23.18.1.41.17.68.16.42-.03.79-.26,1.03-.61.39-.57.56-1.6,1.14-2.16.03,0,.06.02.08.03.55.18,1.18.15,1.82-.19.63-.34,2.69-3.14,3.95-2.37.8.49.11,1.69-1.74,3.29-1.86,1.61,1.26.99,4.49.35,2.3-.46,2.6-.39,3.14.12.36.35.16,1.26-1.43,1.65-2.14.52-3.54.38-3.52,1.06.03.77.63,1.02,2.77.98,1.43-.03,2.23.14,2.4.51.28.61-.36,1.12-.98,1.12-.58,0-1.17.11-3.03.39-1.93.28-.34,1.22-.34,1.22Z"/>
          <path class="cls-4" d="m50.02,77.32s-7.4.67-8.57-10.51c-.35-3.3-.98-6.08-1.7-8.35-1.49-4.72-4.99-8.53-9.55-10.46-1.98-.83-4.14-1.72-5.89-2.38,2.4.22,3.13.47,4.13.59.92.11,2.41.43,3.3.71,2.87.91,2.87.58,4.48,1.88.78.63,1.56,1.01,2.57,1.41,1.41.54,1.96.55,2.42.51.5-.04.59.06.84-.41.25-.48-.3-.94-.66-1.1-.79-.35-2.28-1.13-1.62-1.77.66-.35,1.41-.21,1.97.09.51.28,1.14.34,1.71.13.75-.29.71-.76.48-1.15-.24-.42-.68-.7-1.16-.8l-2.05-.43s-1.6-.94.34-1.22c1.85-.28,2.44-.39,3.03-.39.62,0,1.26-.5.98-1.12-.17-.36-.98-.54-2.4-.51-2.14.04-2.74-.21-2.77-.98-.02-.67,1.37-.53,3.52-1.06,1.6-.39,1.8-1.3,1.43-1.65-.54-.51-.84-.58-3.14-.12-3.23.65-6.35,1.26-4.49-.35,1.85-1.61,2.54-2.81,1.74-3.29-1.27-.77-3.33,2.03-3.95,2.37-.64.35-1.27.37-1.82.19v-.1s-.06.05-.08.07c-.58.56-.75,1.59-1.14,2.16-.24.35-.61.58-1.03.61-.28.01-.5-.06-.68-.16-.43-.25-.59-.77-.44-1.23.07-.19.17-.39.34-.55.48-.43.78-1.69.86-2.06.07-.38-.09-.69-.7-.79-.52-.09-1.52,1.08-1.83,1.35-.31.27-1.36.59-1.88.22-.52-.36-.48-1.18-.22-1.55.22-.32,1.16-.89,1.9-1.34.74-.44.49-1.15.49-1.15,0,0-.2-.42-1.2-.23-1.02.19-3.02,0-3.02,0,0,0-1.03-.02-1.07-1.26-.04-1.24,1.94-.87,1.94-.87,0,0,.49.16,1.62-.21.56-.19.6-.57.5-.91-.11-.38-.44-.66-.83-.76-.34-.08-.8-.19-1.27-.28-.88-.17-1.5-.56-1.51-1.34,0-.35.19-.6.54-.82.53-.34,1.19-.42,1.8-.26l.72.18.94.23c6.17,2.29,12.9,5.15,12.9,5.15,0,0,3.04,1.38,6.34,3.51,4.27,2.74,7.56,6.76,9.49,11.45,1.97,4.79,4.57,12.48,4.83,20.17.42,12.52-11.42,10.93-11.42,10.93Z"/>
          <path class="cls-2" d="m30.78,15.17l7.98-10.52c1.44-1.89,3.47-3.29,5.8-3.88,1.72-.43,4.02-.77,7.03-.77h5.74c.93,0,1.86.24,2.63.75,1.24.84,2.43,2.56.97,5.96-2.51,5.83-15.26,16.78-15.26,16.78,0,0-5.21,4.42-12.03,1.24-3.9-1.82-4.46-4.44-4.22-6.36.15-1.17.64-2.26,1.36-3.2Z"/>
        </g>
        <path class="cls-3" d="m4.79,43.78l.81,24.16c.07,2.11.61,4.2,1.67,5.98,1.26,2.13,3.44,4.35,7.1,4.68,3.25.29,5.52-1.15,7.03-2.84,1.63-1.83,2.59-4.26,2.82-6.83.36-4,.99-12.34.38-15.28-.21-1-.49-1.79-.8-2.43-.68-1.4-2.03-2.22-3.46-2.25-1.12-.02-2.92-.24-5.42-1.14-3.72-1.34-6.17-4.54-8.47-5.39-.83-.31-1.68.38-1.65,1.34Z"/>
      </g>
      <path class="cls-3" d="m6.04,111.56c0-4.39.78-8.53,2.33-12.43,1.55-3.9,3.66-7.29,6.31-10.19,2.65-2.89,5.79-5.17,9.42-6.84,3.62-1.67,7.48-2.51,11.56-2.51s7.93.84,11.56,2.51c3.62,1.67,6.78,3.95,9.47,6.84,2.69,2.89,4.81,6.29,6.36,10.19,1.55,3.9,2.33,8.04,2.33,12.43s-.78,8.53-2.33,12.43c-1.55,3.9-3.67,7.28-6.36,10.13-2.69,2.86-5.84,5.12-9.47,6.79-3.63,1.67-7.48,2.51-11.56,2.51s-7.93-.84-11.56-2.51c-3.63-1.67-6.77-3.93-9.42-6.79-2.66-2.86-4.76-6.23-6.31-10.13-1.55-3.9-2.33-8.04-2.33-12.43Zm19.14-.77c0,2,.28,3.86.82,5.58.55,1.72,1.32,3.24,2.32,4.55.99,1.31,2.15,2.32,3.46,3.05,1.31.72,2.72,1.09,4.24,1.09s2.95-.36,4.28-1.09c1.34-.72,2.49-1.74,3.46-3.05.97-1.31,1.74-2.82,2.32-4.55.58-1.72.86-3.58.86-5.58s-.29-3.87-.86-5.63c-.58-1.76-1.35-3.27-2.32-4.55-.97-1.27-2.12-2.29-3.46-3.05-1.34-.76-2.76-1.14-4.28-1.14s-2.93.38-4.24,1.14c-1.31.76-2.46,1.77-3.46,3.05-1,1.28-1.77,2.79-2.32,4.55-.55,1.76-.82,3.63-.82,5.63Z"/>
      <path class="cls-3" d="m95.15,141.45c2.79-.12,5.51-.94,7.81-2.49.94-.63,1.83-1.37,2.46-2.18l8.8-11.62c6.28-8.27,9.78-18.12,9.89-27.84l.11-9.65c.07-5.38-3.87-8.95-8.97-9.21-.8-.04-3.95.18-4.8.39-5.24,1.26-6.94,6.08-7.04,11.37l-.2,9.9c-.11,5.73-1.52,10.28-5.25,15.13h0c-1.19,1.72-3.76,1.81-5.09.2l-.11-.13c-3.84-4.77-4.92-9.15-5.17-14.88l-.42-9.89c-.11-2.64-.61-6.5-2.34-8.51-1.72-2.01-4.59-2.58-7.29-2.74-7.4-.44-11.47,2.92-11.26,9.13l.33,9.65c.33,9.72,4.05,19.48,10.5,27.63l9.07,11.43c1.59,1.96,3.08,2.94,4.97,3.67,1.26.49,2.62.7,3.98.64h0Z"/>
    </g>
  </g>
</svg>