<?xml version="1.0" encoding="UTF-8"?>
<svg id="Capa_2" data-name="Capa 2" xmlns="http://www.w3.org/2000/svg" xmlns:xlink="http://www.w3.org/1999/xlink" viewBox="0 0 320.15 660.81">
  <defs>
    <style>
      .cls-1 {
        fill: url(#Degradado_sin_nombre_45);
      }

      .cls-2 {
        fill: url(#Degradado_sin_nombre_68);
      }

      .cls-3 {
        fill: none;
        opacity: .95;
      }
    </style>
    <linearGradient id="Degradado_sin_nombre_45" data-name="Degradado sin nombre 45" x1="-703.17" y1="-.59" x2="-314.65" y2="189.93" gradientTransform="translate(626.28 280.13) rotate(19.56) scale(.94 1.01)" gradientUnits="userSpaceOnUse">
      <stop offset=".14" stop-color="#36a399"/>
      <stop offset=".75" stop-color="#2d2d73"/>
    </linearGradient>
    <linearGradient id="Degradado_sin_nombre_68" data-name="Degradado sin nombre 68" x1="-556.61" y1="216.68" x2="-189.55" y2="381.81" gradientTransform="translate(626.28 280.13) rotate(19.56) scale(.94 1.01)" gradientUnits="userSpaceOnUse">
      <stop offset=".15" stop-color="#e34c33"/>
      <stop offset=".96" stop-color="#2c2d6e"/>
    </linearGradient>
  </defs>
  <g id="Capa_1-2" data-name="Capa 1">
    <g class="cls-3">
      <g>
        <path class="cls-1" d="m213.56,393.82l12.93,8.15c3.05,1.94,5.3,5.02,5.85,8.73.55,3.41-.38,6.94-6.29,7.28-4.46.19-8.59-1.74-11.36-5.08-2.99-3.62-7.77-6.47-13.23-5.47-6.16,3.07,2.01,12.47,6.49,16.96,2.04,2.04,4.64,6.79,1.67,9.68-2.87,2.81-3.25,1.86-6.78.96-3.25-.88-7-2.26-15.2-9.65-5.89-5.38-10.26-10.1-13.92-16.59-7.63-13.46-8.48-11.06-25.71-24.72-5.34-4.22-14.64-10.23-20.68-13.26-6.56-3.3-10.92-6.93-26.72-14.37-6.38-3-33.12-14.24-41.92-22.4C34.34,311.47-7.52,279.89,1.17,198.26,16.95,49.93,18.59,40.82,46.19,15.67,58.21,4.71,73.77-.82,89.09.1c5.2.32,64.61,13.52,64.61,13.52l8.31,3.18c15.44,5.91,26.28,20.6,27.46,38.11.13,1.98.12,3.58-.1,4.56-4.18,18.74-16.33,64.07-22.83,87.43-6.64,23.85-9.71,49.4,3.66,70.86l-4.49-3.06c-3.75-2.61-8.46-3.62-12.98-2.45-2.96.73-4.91,2.08-5.81,4.7-1.99,5.71,1.22,10.14,6.81,13.52,2.98,1.83,5.86,3.75,7.94,5.18,2.41,1.63,3.91,4.48,3.68,7.57-.21,2.71-1.51,5.46-5.83,5.47-8.67.01-11.6-2.38-11.6-2.38,0,0-12.58-7.52-15.55,1.67-2.98,9.19,4.03,11.83,4.03,11.83,0,0,13.13,6.25,20.63,7.33,7.33,1.02,7.6,4.63,7.6,4.63,0,0-.09,5.81-6.32,7.27-6.25,1.49-14.15,3.4-16.5,5.24-2.7,2.13-5.11,8.01-2.52,11.94,2.59,3.94,10.62,4.12,13.45,2.92,2.83-1.2,12.73-7.39,16.07-5.46,3.88,2.23,4.23,4.9,2.72,7.54-1.5,2.6-6.88,11.05-11.27,13.09-1.58.71-2.81,1.94-3.76,3.19-2.27,3.06-2.51,7.27-.22,10.13.95,1.19,2.33,2.26,4.25,2.82,2.92.8,6.08,0,8.61-1.97,4.17-3.24,8.02-10.41,13.47-13.12.17.14.33.27.5.41,3.3,2.64,7.68,4,12.95,3.02,5.16-.95,26.59-16.54,33.23-7.8,4.19,5.51-3.64,12.67-20.51,19.97-16.91,7.29,5.99,10.36,29.78,13.44,16.91,2.22,18.81,3.44,21.14,8.52,1.59,3.43-2.18,9.67-14.11,8.64-16.02-1.36-25.2-5.79-26.8-.78-1.79,5.74,1.67,9.06,16.41,13.95,9.84,3.27,14.89,6.49,15.12,9.59.35,5.19-5.37,7.33-9.59,5.83-3.99-1.42-8.31-2.02-21.7-4.5-13.96-2.6-5.49,8.18-5.49,8.18Z"/>
        <path class="cls-2" d="m193.67,652.03s-52.34-13.03-31.18-98.08c6.24-25.09,9.17-47.06,10.2-65.56,2.13-38.34-11.83-74.88-38-100.12-11.34-10.94-23.82-22.73-34.08-31.85,15.81,7.43,20.16,11.07,26.72,14.37,6.04,3.04,15.34,9.05,20.68,13.26,17.23,13.66,18.08,11.26,25.71,24.72,3.67,6.48,8.03,11.2,13.92,16.59,8.2,7.4,11.95,8.77,15.2,9.65,3.53.9,3.91,1.85,6.78-.96,2.97-2.89.38-7.64-1.67-9.68-4.48-4.49-12.65-13.89-6.49-16.96,5.46-1,10.24,1.86,13.23,5.47,2.77,3.34,6.9,5.27,11.36,5.08,5.91-.34,6.84-3.87,6.29-7.28-.55-3.71-2.8-6.79-5.85-8.73l-12.93-8.15s-8.47-10.78,5.49-8.18c13.4,2.48,17.71,3.08,21.7,4.5,4.21,1.5,9.94-.64,9.59-5.83-.23-3.1-5.27-6.32-15.12-9.59-14.73-4.89-18.2-8.21-16.41-13.95,1.6-5,10.78-.58,26.8.78,11.93,1.03,15.7-5.21,14.11-8.64-2.33-5.08-4.24-6.3-21.14-8.52-23.79-3.08-46.69-6.15-29.78-13.44,16.87-7.31,24.7-14.46,20.51-19.97-6.64-8.74-28.07,6.84-33.23,7.8-5.28.99-9.65-.37-12.95-3.02l.17-.79c-.22.11-.42.28-.67.38-5.46,2.7-9.3,9.88-13.47,13.12-2.53,1.96-5.7,2.77-8.61,1.97-1.92-.57-3.3-1.64-4.25-2.82-2.29-2.86-2.05-7.07.22-10.13.95-1.25,2.17-2.48,3.76-3.19,4.39-2.04,9.77-10.49,11.27-13.09,1.51-2.63,1.17-5.31-2.72-7.54-3.34-1.92-13.24,4.27-16.07,5.46-2.83,1.2-10.86,1.01-13.45-2.92-2.59-3.94-.18-9.81,2.52-11.94,2.34-1.84,10.25-3.74,16.5-5.24,6.24-1.46,6.32-7.27,6.32-7.27,0,0-.26-3.61-7.6-4.63-7.49-1.08-20.63-7.33-20.63-7.33,0,0-7.01-2.64-4.03-11.83,2.98-9.19,15.55-1.67,15.55-1.67,0,0,2.93,2.39,11.6,2.38,4.32-.01,5.62-2.76,5.83-5.47.23-3.09-1.27-5.94-3.68-7.57-2.08-1.43-4.96-3.35-7.94-5.18-5.6-3.38-8.81-7.81-6.81-13.52.9-2.62,2.85-3.97,5.81-4.7,4.52-1.18,9.23-.16,12.98,2.45l4.49,3.06,5.81,4c36.24,31.82,74.75,69.17,74.75,69.17,0,0,17.17,17.57,34.22,41.23,22.01,30.55,34.04,68.08,34.98,107.26.96,40.01-1.32,102.87-19.65,160.03-29.84,93.1-106.65,52.58-106.65,52.58Z"/>
      </g>
    </g>
  </g>
</svg>