<svg width="42" height="42" viewBox="0 0 42 42" fill="none" xmlns="http://www.w3.org/2000/svg">
<path d="M32.9765 13.7812C32.7362 17.1175 30.2613 19.6875 27.5625 19.6875C24.8636 19.6875 22.3846 17.1183 22.1484 13.7812C21.9023 10.3105 24.3116 7.875 27.5625 7.875C30.8134 7.875 33.2226 10.3737 32.9765 13.7812Z" stroke="#41417C" stroke-width="2" stroke-linecap="round" stroke-linejoin="round"/>
<path d="M27.5627 24.9375C22.2167 24.9375 17.0758 27.5929 15.7879 32.7641C15.6173 33.4482 16.0463 34.125 16.7493 34.125H38.3768C39.0799 34.125 39.5064 33.4482 39.3382 32.7641C38.0504 27.51 32.9095 24.9375 27.5627 24.9375Z" stroke="#41417C" stroke-width="2" stroke-miterlimit="10"/>
<path d="M16.4062 15.2529C16.2142 17.9173 14.2143 20.0156 12.0585 20.0156C9.90274 20.0156 7.89954 17.9181 7.71087 15.2529C7.51481 12.4811 9.46141 10.5 12.0585 10.5C14.6556 10.5 16.6022 12.5319 16.4062 15.2529Z" stroke="#41417C" stroke-width="2" stroke-linecap="round" stroke-linejoin="round"/>
<path d="M16.8983 25.1014C15.4176 24.423 13.7868 24.1621 12.0584 24.1621C7.79279 24.1621 3.68303 26.2826 2.65354 30.4129C2.51819 30.9592 2.86108 31.4998 3.42217 31.4998H12.6326" stroke="#41417C" stroke-width="2" stroke-miterlimit="10" stroke-linecap="round"/>
</svg>
