<svg width="481" height="910" viewBox="0 0 481 910" fill="none" xmlns="http://www.w3.org/2000/svg">
<g clip-path="url(#clip0_147_930)">
<path d="M224.247 111.57L220.337 110.384C218.749 109.902 217.072 110.799 216.59 112.388L208.726 138.309C208.245 139.897 209.141 141.575 210.728 142.057L214.638 143.243C216.225 143.724 217.902 142.827 218.384 141.239L226.248 115.318C226.73 113.729 225.834 112.052 224.247 111.57Z" fill="#C0C0C1"/>
<path d="M221.656 113.862C214.419 111.889 210.405 108.647 207.694 104.41C204.564 99.5132 203.822 94.4836 205.053 89.9863L206.653 84.1269C207.742 80.0993 210.422 76.5308 214.772 74.0013C219.555 71.2396 225.05 70.359 232.944 72.4884C241.483 74.8129 246.405 79.077 248.98 84.4684C250.663 88.0097 250.864 91.5091 249.992 94.748L248.216 101.259C246.956 105.854 243.714 109.872 238.451 112.596C233.978 114.896 228.898 115.816 221.661 113.843L221.656 113.862Z" fill="#C0C0C1"/>
<mask id="mask0_147_930" style="mask-type:luminance" maskUnits="userSpaceOnUse" x="204" y="71" width="47" height="44">
<path d="M221.656 113.862C214.419 111.889 210.405 108.647 207.694 104.41C204.564 99.5132 203.822 94.4836 205.053 89.9863L206.653 84.1269C207.742 80.0993 210.422 76.5308 214.772 74.0013C219.555 71.2396 225.05 70.359 232.944 72.4884C241.483 74.8129 246.405 79.077 248.98 84.4684C250.663 88.0097 250.864 91.5091 249.992 94.748L248.216 101.259C246.956 105.854 243.714 109.872 238.451 112.596C233.978 114.896 228.898 115.816 221.661 113.843L221.656 113.862Z" fill="white"/>
</mask>
<g mask="url(#mask0_147_930)">
<path d="M231.095 69.4951C231.095 69.4951 203.455 89.6955 213.315 115.826L187.582 99.4208C187.582 99.4208 186.723 63.0681 201.384 62.651C216.045 62.2339 231.081 69.4696 231.081 69.4696L231.095 69.4951Z" fill="#ACADB0"/>
</g>
<path d="M123.764 104.159L308.593 160.021C390.594 184.805 437.031 271.539 412.232 353.593L408.281 366.666C381.287 455.98 286.911 506.605 197.635 479.623L39.1089 431.711C-50.1474 404.735 -100.685 310.312 -73.6913 220.997L-69.7404 207.925C-44.9408 125.87 41.763 79.376 123.764 104.159Z" fill="#DDDDDD"/>
<mask id="mask1_147_930" style="mask-type:luminance" maskUnits="userSpaceOnUse" x="-81" y="97" width="500" height="390">
<path d="M123.764 104.159L308.593 160.021C390.594 184.805 437.031 271.539 412.232 353.593L408.281 366.666C381.287 455.98 286.911 506.605 197.635 479.623L39.1089 431.711C-50.1474 404.735 -100.685 310.312 -73.6913 220.997L-69.7404 207.925C-44.9408 125.87 41.763 79.376 123.764 104.159Z" fill="white"/>
</mask>
<g mask="url(#mask1_147_930)">
<path d="M115.838 96.9802C115.838 96.9802 -156.338 142.562 -15.8318 409.126L-95.9988 356.172L-98.1336 187.469L-18.6743 90.796L98.4953 83.1103L115.838 96.9802Z" fill="#C0C0C1"/>
</g>
<path d="M208.381 431.849L56.622 385.983C-6.62398 366.867 -42.7209 299.447 -23.5932 236.16L-20.7838 226.864C-3.21174 168.724 58.7086 135.519 116.811 153.08L133.258 158.051L287.267 204.597C345.369 222.158 378.533 284.1 360.961 342.241L358.151 351.536C339.024 414.823 271.627 450.964 208.381 431.849Z" fill="#585B61"/>
<mask id="mask2_147_930" style="mask-type:luminance" maskUnits="userSpaceOnUse" x="-29" y="148" width="395" height="289">
<path d="M208.381 431.849L56.622 385.983C-6.62398 366.867 -42.7209 299.447 -23.5932 236.16L-20.7838 226.864C-3.21174 168.724 58.7086 135.519 116.811 153.08L133.258 158.051L287.267 204.597C345.369 222.158 378.533 284.1 360.961 342.241L358.151 351.536C339.024 414.823 271.627 450.964 208.381 431.849Z" fill="white"/>
</mask>
<g mask="url(#mask2_147_930)">
<path d="M153.609 157.239C153.609 157.239 -36.1513 134.357 -7.25517 342.757L-51.4693 332.277L-34.9749 192.184L62.8708 115.463L153.603 157.259L153.609 157.239Z" fill="#434457"/>
</g>
<path d="M86.9053 305.628C73.7714 302.406 66.6059 295.82 61.8803 286.81C56.4358 276.365 55.394 265.265 57.9042 254.982L61.1747 241.619C63.432 232.455 68.5154 224.039 76.655 217.658C85.5728 210.678 95.691 207.778 110.016 211.296C125.532 215.109 134.296 223.823 138.675 235.462C141.552 243.102 141.707 250.923 139.916 258.262L136.274 273.137C133.699 283.635 127.515 293.149 117.717 300.076C109.382 305.972 100.033 308.87 86.8994 305.648L86.9053 305.628Z" fill="#89CEDA"/>
<mask id="mask3_147_930" style="mask-type:luminance" maskUnits="userSpaceOnUse" x="56" y="209" width="86" height="98">
<path d="M86.9053 305.628C73.7714 302.406 66.6059 295.82 61.8803 286.81C56.4358 276.365 55.394 265.265 57.9042 254.982L61.1747 241.619C63.432 232.455 68.5154 224.039 76.655 217.658C85.5728 210.678 95.691 207.778 110.016 211.296C125.532 215.109 134.296 223.823 138.675 235.462C141.552 243.102 141.707 250.923 139.916 258.262L136.274 273.137C133.699 283.635 127.515 293.149 117.717 300.076C109.382 305.972 100.033 308.87 86.8994 305.648L86.9053 305.628Z" fill="white"/>
</mask>
<g mask="url(#mask3_147_930)">
<path d="M110.041 211.282C109.523 212.855 65.6271 244.118 79.9711 305.903L45.2247 306.892L38.5009 253.154L52.9656 195.762L94.3026 196.765L110.061 211.288" fill="#59C1DD"/>
</g>
<path d="M253.893 585.557C246.352 624.347 234.29 686.502 228.161 718.009C225.641 730.938 227.577 744.444 233.75 757.351C237.965 766.143 252.344 770.189 262.058 765.309C281.739 755.41 292.541 739.304 301.815 723.377C324.713 684.124 339.405 603.734 314.052 578.516C313.839 578.302 313.626 578.089 313.413 577.875C286.751 551.62 259.743 555.183 253.847 585.564L253.893 585.557Z" fill="#DDDDDD"/>
<mask id="mask4_147_930" style="mask-type:luminance" maskUnits="userSpaceOnUse" x="227" y="560" width="101" height="208">
<path d="M253.893 585.557C246.352 624.347 234.29 686.502 228.161 718.009C225.641 730.938 227.577 744.444 233.75 757.351C237.965 766.143 252.344 770.189 262.058 765.309C281.739 755.41 292.541 739.304 301.815 723.377C324.713 684.124 339.405 603.734 314.052 578.516C313.839 578.302 313.626 578.089 313.413 577.875C286.751 551.62 259.743 555.183 253.847 585.564L253.893 585.557Z" fill="white"/>
</mask>
<g mask="url(#mask4_147_930)">
<path d="M284.759 554.542C284.759 554.542 223.319 719.835 239.248 776.376L214.962 747.487L253.797 566.734C253.797 566.734 258.083 533.559 270.171 545.819C282.259 558.08 284.759 554.542 284.759 554.542Z" fill="#C0C0C1"/>
</g>
<path d="M233.654 627.45L202.556 730.346C191.815 765.884 172.002 798.317 143.775 823.637C110.832 853.191 71.1853 872.795 43.1708 872.978C30.4268 873.056 2.33833 861.619 -5.20528 856.99C-78.2636 810.669 -96.3565 719.624 -74.3114 644.211L-43.893 543.566C-35.4011 516.105 -23.9958 489.737 -0.689073 475.19C14.269 466.021 32.6333 464.224 49.4661 469.119L192.874 510.839C197.179 511.991 201.318 513.69 205.243 515.816C221.001 524.338 231.91 539.723 236.052 557.163L239.439 571.449C241.03 578.188 241.6 585.13 240.986 592.035C239.99 603.096 237.535 614.399 233.641 627.425L233.654 627.45Z" fill="#DDDDDD"/>
<mask id="mask5_147_930" style="mask-type:luminance" maskUnits="userSpaceOnUse" x="-84" y="466" width="326" height="407">
<path d="M233.654 627.45L202.556 730.346C191.815 765.884 172.002 798.317 143.775 823.637C110.832 853.191 71.1853 872.795 43.1708 872.978C30.4268 873.056 2.33833 861.619 -5.20528 856.99C-78.2636 810.669 -96.3565 719.624 -74.3114 644.211L-43.893 543.566C-35.4011 516.105 -23.9958 489.737 -0.689073 475.19C14.269 466.021 32.6333 464.224 49.4661 469.119L192.874 510.839C197.179 511.991 201.318 513.69 205.243 515.816C221.001 524.338 231.91 539.723 236.052 557.163L239.439 571.449C241.03 578.188 241.6 585.13 240.986 592.035C239.99 603.096 237.535 614.399 233.641 627.425L233.654 627.45Z" fill="white"/>
</mask>
<g mask="url(#mask5_147_930)">
<path d="M23.0696 471.222C7.99657 521.447 -7.106 571.77 -17.9525 623.123C-28.1246 671.327 -34.6297 720.532 -33.6848 769.874C-33.1722 797.131 -30.3777 824.394 -24.852 851.095L-11.5822 846.029C-25.2808 826.597 -38.887 807.001 -50.3123 786.121C-61.5466 765.597 -70.1815 744.876 -73.987 721.664C-75.9216 709.846 -76.2205 697.347 -75.0145 684.812C-73.7502 671.59 -70.7799 658.584 -67.0095 645.756C-59.0312 618.652 -47.9334 592.384 -36.9183 566.39C-25.9033 540.396 -13.6911 513.76 -0.911403 488.001C2.11601 481.868 5.01652 475.59 8.45051 469.666C9.98488 466.99 11.3554 464.927 13.4046 463.09C14.6145 461.982 14.3907 462.299 15.7311 461.465C17.5105 460.38 15.3377 461.496 16.458 461.108C17.2708 460.82 18.1499 460.594 18.9936 460.486C17.9307 460.614 21.6738 460.869 20.3263 460.526C20.5218 460.585 22.4202 461.436 21.2573 460.765C21.6579 460.993 22.1113 461.258 22.4883 461.564C21.3105 460.589 22.7535 462.028 22.8744 462.193C22.055 461.091 22.8567 462.252 22.9695 462.585C23.3055 463.733 22.7108 460.969 23.0899 462.963C23.1577 463.304 23.4067 465.728 23.3804 464.332C23.3931 464.785 23.3922 465.211 23.3853 465.658C23.3712 465.846 23.0885 467.982 23.3875 466.427C23.1795 467.539 22.8406 468.59 22.4566 469.649C23.0394 468.073 22.05 470.359 22.0008 470.451C21.7238 470.943 21.4077 471.425 21.0974 471.886C20.2473 473.145 19.6332 473.835 18.4642 475.02C14.1098 479.47 9.0955 483.209 4.7079 487.627C0.320294 492.046 -3.89044 497.01 -7.65137 502.11C-14.8434 511.853 -20.5074 522.614 -25.0922 533.829C-34.4427 556.716 -38.5708 581.674 -39.6843 606.261C-42.1296 659.405 -29.3207 711.864 -30.0986 765C-30.2011 771.483 -30.4974 777.971 -31.0401 784.428C-31.3521 788.284 -27.7666 791.675 -24.0603 791.77C-20.0115 791.861 -17.0376 788.66 -16.7198 784.783C-12.1894 729.471 -25.7745 674.92 -25.6945 619.715C-25.652 594.505 -22.8271 570.329 -14.6017 546.503C-10.615 534.937 -5.83704 524.848 1.14907 514.444C4.53022 509.401 7.71162 505.301 11.5762 501.129C15.9802 496.374 20.9131 492.269 25.6841 487.923C30.4805 483.564 35.0383 478.299 36.7786 471.906C38.3374 466.183 38.0488 459.582 34.7901 454.475C30.5932 447.953 23.1567 445.3 15.643 446.574C8.68916 447.761 3.22499 452.282 -0.91257 457.78C-5.05013 463.279 -7.92251 470.099 -11.0186 476.318C-14.3171 482.924 -17.5629 489.567 -20.7755 496.242C-27.4563 510.155 -33.9279 524.153 -40.1903 538.235C-52.1369 565.122 -63.6478 592.333 -73.5942 620.017C-83.2116 646.754 -90.8403 675.032 -89.998 703.67C-88.5225 753.728 -62.1628 798.001 -34.4924 838.079C-31.0963 843.014 -27.6434 847.902 -24.1963 852.809C-22.1304 855.719 -18.9523 857.491 -15.36 856.057C-12.0106 854.72 -10.1732 851.324 -10.9265 847.743C-20.4987 801.453 -21.3181 753.814 -16.7672 706.837C-11.9281 657 -0.916721 608.068 12.25 559.701C19.9314 531.461 28.3423 503.42 36.7533 475.379C37.8711 471.68 35.6748 467.578 31.9786 466.461C28.2824 465.344 24.1679 467.518 23.0637 471.242L23.0696 471.222Z" fill="#DDDDDD"/>
<path d="M70.6991 461.292C50.746 505.066 35.4247 550.816 25.304 597.861C15.2703 644.547 10.0562 692.306 10.0711 740.065C10.086 764.096 11.4572 788.088 14.0537 811.981C14.6844 817.874 15.6185 823.752 16.0104 829.658C16.3706 834.893 16.3874 840.557 14.4398 845.094C10.83 853.507 1.31078 857.251 -7.53744 859.339C-9.9262 859.899 -12.3322 860.303 -14.7655 860.657C-16.1045 860.851 -19.0854 861.039 -21.3595 861.078C-23.6336 861.117 -25.9818 861.047 -28.2809 860.887C-29.5567 860.8 -30.8402 860.668 -32.1177 860.517C-33.5381 860.344 -34.1348 860.271 -34.8039 860.154C-44.8802 858.326 -54.1722 854.962 -62.4499 850.431C-80.2992 840.637 -94.0187 826.218 -104.185 808.729C-114.841 790.388 -121.091 770.815 -125.56 750.009C-130.348 727.717 -133.107 704.928 -134.037 682.158C-135.91 635.888 -129.365 588.105 -110.125 546.336C-101.022 526.599 -89.0343 507.413 -74.9397 491.426C-60.8452 475.44 -44.624 460.608 -25.182 452.068C-20.9939 450.216 -16.235 448.664 -11.2269 447.701C-6.68861 446.808 -2.49655 446.709 2.6806 447.163C2.8234 447.184 4.07551 447.349 3.05628 447.191C3.68619 447.296 4.31019 447.42 4.92827 447.564C6.0471 447.817 7.1541 448.109 8.26883 448.446C11.0145 449.318 11.9627 449.712 14.3081 451.061C15.3655 451.659 16.3992 452.334 17.4016 453.043C17.7377 453.273 19.615 454.758 18.8337 454.095C20.7733 455.728 22.5324 457.605 24.1191 459.558C25.3174 461.031 26.0918 462.14 27.3705 464.406C28.6493 466.672 29.6524 468.791 30.6082 471.066C30.6432 471.162 31.0633 472.314 30.7482 471.45C30.9233 471.93 31.0847 472.384 31.2402 472.859C31.629 474.044 31.9922 475.243 32.3105 476.45C32.9607 478.889 33.4562 481.345 33.8166 483.825C35.191 493.189 33.6103 505.269 30.9554 515.465C27.8347 527.486 23.3058 539.08 19.2072 550.805C15.1086 562.53 11.2679 574.461 7.73826 586.422C0.767694 610.051 -5.0431 634.008 -9.68414 658.191C-19.0495 707.045 -23.8531 756.764 -23.6724 806.516C-23.6267 818.511 -23.3032 830.505 -22.6958 842.478C-22.4969 846.339 -19.7843 849.722 -15.716 849.82C-12.0742 849.917 -8.18251 846.715 -8.37544 842.833C-10.9511 792.037 -8.42055 741.011 -0.854303 690.696C6.686 640.607 19.7268 591.669 36.7784 544.007C44.8582 521.44 52.5838 497.078 46.1969 473.086C43.509 462.984 38.5056 453.057 30.8876 445.778C22.7385 437.997 12.3413 433.488 1.11608 432.637C-21.4636 430.938 -42.9655 443.469 -59.8983 457.124C-77.7859 471.537 -93.1209 489.156 -105.598 508.408C-131.867 548.927 -145.062 596.538 -148.022 644.465C-149.541 669.336 -148.311 694.289 -145.213 718.996C-142.421 741.325 -138.258 763.705 -130.675 784.94C-123.092 806.176 -112.53 826.24 -96.7824 842.212C-81.8063 857.417 -62.3016 869.078 -41.2777 873.382C-30.4018 875.601 -19.3634 876.011 -8.40985 874.09C2.54372 872.168 13.7622 868.169 21.2402 860.092C30.7387 849.85 31.1147 836.53 29.6665 823.385C28.341 811.387 26.9213 799.489 26.0538 787.46C22.5246 738.617 24.511 689.392 31.801 640.979C39.091 592.567 51.749 545.883 69.3508 500.779C73.5234 490.08 78.1095 479.143 82.7606 468.91C84.3555 465.398 84.1044 461.285 80.5183 459.027C77.5968 457.183 72.2667 457.729 70.6404 461.274L70.6991 461.292Z" fill="#DDDDDD"/>
<path d="M37.3937 461.114C38.415 463.879 40.1368 460.512 40.1368 460.512C40.1368 460.512 -106.37 707.841 -9.83655 854.8C-9.83655 854.8 -55.3017 856.863 -84.6747 763.241C-114.048 669.619 -39.1604 489.703 -39.1604 489.703C-39.1604 489.703 25.3815 428.758 37.3878 461.134L37.3937 461.114Z" fill="#C0C0C1"/>
</g>
<path d="M239.692 575.413C200.513 581.533 90.3607 575.535 -25.8403 501.631C-18.9446 489.62 -14.0744 484.663 -4.49798 478.118C14.2977 489.159 117.178 546.266 231.914 545.149L239.692 575.413Z" fill="url(#paint0_linear_147_930)"/>
<path d="M227.995 352.478C214.861 349.255 207.695 342.669 202.97 333.659C197.525 323.214 196.483 312.114 198.994 301.831L202.264 288.468C204.522 279.305 209.605 270.889 217.745 264.507C226.662 257.527 236.78 254.627 251.106 258.145C266.622 261.959 275.385 270.673 279.764 282.312C282.642 289.952 282.797 297.772 281.005 305.112L277.363 319.986C274.788 330.484 268.604 339.998 258.806 346.925C250.472 352.821 241.123 355.719 227.989 352.497L227.995 352.478Z" fill="#89CEDA"/>
<mask id="mask6_147_930" style="mask-type:luminance" maskUnits="userSpaceOnUse" x="197" y="256" width="86" height="98">
<path d="M227.995 352.478C214.861 349.255 207.695 342.669 202.97 333.659C197.525 323.214 196.483 312.114 198.994 301.831L202.264 288.468C204.522 279.305 209.605 270.889 217.745 264.507C226.662 257.527 236.78 254.627 251.106 258.145C266.622 261.959 275.385 270.673 279.764 282.312C282.642 289.952 282.797 297.772 281.005 305.112L277.363 319.986C274.788 330.484 268.604 339.998 258.806 346.925C250.472 352.821 241.123 355.719 227.989 352.497L227.995 352.478Z" fill="white"/>
</mask>
<g mask="url(#mask6_147_930)">
<path d="M251.131 258.131C250.613 259.705 206.717 290.967 221.061 352.752L186.314 353.741L179.59 300.004L194.055 242.611L235.392 243.614L251.151 258.137" fill="#59C1DD"/>
</g>
<path d="M87.7793 672.207L90.3984 673.639C91.022 673.977 91.4963 674.526 91.6513 675.214C91.8045 675.837 91.6739 676.481 90.5328 676.585C89.6618 676.642 88.8445 676.309 88.2588 675.705C87.6203 675.064 86.6625 674.56 85.615 674.778C84.4552 675.367 86.1637 677.058 87.0974 677.853C87.5213 678.216 88.0947 679.073 87.5475 679.612C87.0258 680.138 86.9499 679.965 86.2476 679.817C85.61 679.667 84.8668 679.442 83.175 678.12C81.9717 677.158 81.0498 676.324 80.254 675.144C78.596 672.721 78.4659 673.151 74.9467 670.742C73.8466 670.004 71.9683 668.945 70.764 668.41C69.4423 667.84 68.5514 667.186 65.3938 665.911C64.1189 665.398 58.7709 663.461 56.9659 662.019C51.9474 658.003 43.3883 652.426 44.0206 637.411C45.1557 610.14 45.3414 608.466 50.3854 603.711C52.5701 601.638 55.5256 600.545 58.5078 600.635C59.5234 600.664 71.237 602.795 71.237 602.795L72.8875 603.336C75.9538 604.348 78.2513 606.986 78.7158 610.181C78.7776 610.541 78.7926 610.845 78.7589 611.027C78.1837 614.484 76.4214 622.857 75.4627 627.159C74.4939 631.565 74.2251 636.267 77.0933 640.124L76.1864 639.594C75.4301 639.13 74.495 638.976 73.6354 639.207C73.0773 639.359 72.703 639.609 72.5747 640.104C72.2553 641.161 72.9501 641.969 74.078 642.544C74.6879 642.857 75.2664 643.203 75.6807 643.456C76.1733 643.733 76.5048 644.26 76.482 644.83C76.4829 645.322 76.2645 645.832 75.4249 645.856C73.7457 645.904 73.1458 645.488 73.1458 645.488C73.1458 645.488 70.6008 644.163 70.1508 645.864C69.7008 647.565 71.0835 648.004 71.0835 648.004C71.0835 648.004 73.7249 649.08 75.1903 649.245C76.6166 649.398 76.7189 650.049 76.7189 650.049C76.7189 650.049 76.7811 651.114 75.5808 651.413C74.3805 651.713 72.8728 652.111 72.4493 652.453C71.9435 652.855 71.5732 653.94 72.1234 654.661C72.6796 655.363 74.2373 655.364 74.78 655.122C75.3226 654.881 77.1511 653.703 77.8392 654.039C78.6192 654.425 78.7237 654.926 78.4722 655.405C78.2206 655.885 77.2758 657.457 76.4471 657.869C76.1473 658.013 75.9276 658.246 75.753 658.47C75.3486 659.032 75.3448 659.821 75.8506 660.337C76.0438 660.545 76.3272 660.737 76.7047 660.83C77.2836 660.962 77.8867 660.803 78.3416 660.427C79.1062 659.804 79.7608 658.486 80.7933 657.965C80.8324 657.977 80.8656 658.008 80.8988 658.039C81.571 658.499 82.4374 658.739 83.4594 658.536C84.4559 658.346 88.4058 655.375 89.8133 656.932C90.7074 657.929 89.2778 659.269 86.0926 660.698C82.9073 662.128 87.3859 662.563 92.0523 663.012C95.3706 663.332 95.7517 663.554 96.2683 664.457C96.6153 665.075 95.9629 666.244 93.6324 666.117C90.5056 665.941 88.6618 665.191 88.4093 666.097C88.1291 667.166 88.8499 667.747 91.7816 668.569C93.7295 669.115 94.7537 669.68 94.8405 670.241C94.9773 671.2 93.8903 671.619 93.0493 671.365C92.2475 671.123 91.3984 671.037 88.7828 670.652C86.0439 670.252 87.8302 672.18 87.8302 672.18L87.7793 672.207Z" fill="#C0C0C1"/>
<path d="M75.3496 639.255C75.6234 639.338 75.8853 639.46 76.1414 639.601L77.0482 640.132L78.2248 640.829C85.6742 646.476 93.6497 653.137 93.6497 653.137C93.6497 653.137 97.2083 656.263 100.831 660.518C105.51 666.012 108.338 672.825 109.03 679.997C109.74 687.323 110.116 698.862 107.303 709.438C103.648 723.156 93.1041 721.464 88.9776 720.217C87.9216 719.897 87.2862 719.599 87.2862 719.599C87.2862 719.599 87.1689 719.563 86.9537 719.498C85.2132 718.972 77.2574 715.777 79.9344 701.765C80.8195 697.141 81.1065 693.085 81.0631 689.697C80.9692 682.664 76.4234 677.296 72.3774 671.546C70.3642 668.674 68.0967 666.643 65.9829 665.021C69.1601 666.302 69.4092 667.808 70.7308 668.379C71.941 668.894 73.8389 669.959 74.9135 670.711C78.4327 673.12 78.5628 672.689 80.2208 675.112C81.0167 676.293 81.9189 677.121 83.1419 678.088C84.5094 679.142 85.2562 679.496 85.8429 679.673C85.9798 679.715 86.0971 679.75 86.234 679.792C86.9362 679.94 87.0121 680.112 87.5339 679.586C88.0811 679.047 87.5077 678.19 87.0838 677.827C86.1501 677.033 84.4415 675.342 85.6014 674.752C86.0321 674.669 86.4528 674.689 86.8439 674.808C87.3915 674.973 87.8663 675.309 88.2451 675.68C88.5848 676.038 89.0187 676.298 89.4881 676.44C89.8205 676.54 90.1707 676.582 90.5191 676.559C91.6544 676.475 91.7909 675.811 91.6377 675.189C91.4826 674.501 91.0083 673.952 90.3848 673.614L87.7656 672.182C87.7656 672.182 85.9793 670.253 88.7182 670.654C91.3534 671.045 92.2025 671.131 92.9848 671.367C93.8257 671.621 94.9128 671.202 94.7759 670.242C94.7028 669.708 93.8155 669.183 92.1141 668.669C91.9772 668.628 91.8598 668.592 91.7229 668.551C91.5274 668.492 91.3318 668.433 91.1558 668.379C88.7112 667.641 88.1195 667.056 88.3566 666.06C88.5955 665.128 90.4333 665.897 93.5797 666.079C95.9102 666.207 96.5625 665.037 96.2155 664.42C95.9427 663.91 95.6889 663.62 94.9849 663.407C94.3982 663.23 93.4963 663.107 92.0054 662.955C89.5363 662.722 87.1317 662.486 85.8605 662.102C84.7458 661.765 84.5393 661.318 86.0458 660.642C89.231 659.212 90.6606 657.872 89.7665 656.875C89.5869 656.693 89.3895 656.569 89.1548 656.498C87.4534 655.984 84.2799 658.293 83.4125 658.479C82.7958 658.613 82.2323 658.571 81.7434 658.423C81.4109 658.322 81.1157 658.169 80.852 657.983L80.8934 657.846C80.8934 657.846 80.7915 657.9 80.7465 657.908C79.714 658.429 79.073 659.773 78.2948 660.371C77.8203 660.74 77.2172 660.899 76.6578 660.773C76.6187 660.761 76.5992 660.755 76.56 660.743C76.2276 660.643 75.9834 660.462 75.7842 660.274C75.298 659.764 75.2958 658.994 75.6866 658.408C75.8612 658.183 76.0809 657.95 76.3807 657.806C77.2035 657.414 78.1483 655.841 78.4058 655.343C78.6633 654.844 78.5723 654.368 77.7728 653.977C77.7532 653.971 77.7141 653.959 77.6946 653.953C76.971 653.734 75.2307 654.831 74.7136 655.06C74.3433 655.225 73.5174 655.275 72.8329 655.068C72.52 654.973 72.2249 654.82 72.0571 654.598C71.5009 653.896 71.8967 652.799 72.3829 652.39C72.8064 652.048 74.3337 651.656 75.5144 651.351C76.7147 651.051 76.6525 649.986 76.6525 649.986C76.6525 649.986 76.5948 649.541 75.7734 649.293C75.5974 649.24 75.3764 649.194 75.1103 649.157C74.6173 649.093 73.9992 648.949 73.393 648.766C72.1805 648.399 71.0034 647.916 71.0034 647.916C71.0034 647.916 69.6013 647.47 70.0708 645.776C70.3511 644.707 71.4663 644.831 72.2485 645.067C72.7179 645.209 73.0658 645.399 73.0658 645.399C73.0658 645.399 73.1909 645.48 73.5038 645.574C73.8558 645.681 74.4407 645.794 75.3449 645.768C76.1845 645.744 76.4028 645.233 76.402 644.742C76.4052 644.166 76.0678 643.658 75.6007 643.368C75.1864 643.114 74.5824 642.782 73.998 642.456C72.8761 641.861 72.1753 641.072 72.4946 640.016C72.6425 639.526 72.9973 639.271 73.5554 639.119C74.1389 638.954 74.7474 638.988 75.3146 639.159M75.9474 637.065C74.9696 636.77 73.9285 636.754 72.9729 637.021C71.2791 637.47 70.625 638.575 70.3903 639.422C70.2365 639.931 69.9594 641.342 70.968 642.736C70.4454 642.771 69.9715 642.926 69.5385 643.159C68.7684 643.588 68.2071 644.315 67.98 645.208C67.2598 647.873 68.9079 649.482 70.2532 649.974C70.4097 650.021 70.8417 650.216 71.403 650.407C71.2697 650.495 71.1364 650.583 71.0227 650.676C69.6327 651.815 69.0285 654.238 70.33 655.934C70.7788 656.497 71.4178 656.925 72.2 657.162C72.6694 657.304 73.2211 657.385 73.7319 657.39C72.899 658.804 73.0652 660.584 74.1585 661.769C74.6251 662.273 75.2231 662.624 75.8881 662.825C75.9272 662.837 76.0641 662.879 76.0836 662.885C77.3394 663.179 78.6042 662.877 79.6158 662.073C80.1216 661.67 80.5083 661.168 80.8713 660.743C80.9341 660.677 81.0027 660.591 81.0714 660.505C81.6386 660.676 82.2353 660.75 82.842 660.72C82.7592 660.994 82.7096 661.299 82.7382 661.628C82.7814 662.474 83.2524 663.599 85.1885 664.184C85.5992 664.308 86.1 664.417 86.6653 664.524C86.4788 664.788 86.3195 665.103 86.2267 665.48C85.8832 666.829 86.2274 667.808 86.8873 668.52C86.0413 668.777 85.5587 669.315 85.3012 669.814C84.865 670.621 84.8981 671.571 85.3637 672.502C85.2932 672.523 85.2286 672.525 85.1581 672.547C84.9525 672.591 84.7666 672.642 84.5883 672.738C83.7086 673.176 83.1432 673.988 83.0335 674.916C83.0216 674.955 83.0098 674.994 83.0175 675.039C82.6583 674.674 82.3304 674.276 82.0143 673.839C80.6255 671.796 79.9729 671.343 78.3079 670.284C77.7685 669.95 77.0709 669.504 76.1349 668.859C74.8961 668.014 72.8868 666.894 71.5847 666.33C71.4674 666.295 71.2409 666.055 71.0008 665.791C70.2686 665.035 69.1635 663.89 66.8035 662.942C66.7449 662.924 66.6666 662.9 66.608 662.882C65.6497 662.593 64.5881 662.998 64.0832 663.892C63.5409 664.839 63.7751 666.041 64.6601 666.715C66.2386 667.918 68.5553 669.857 70.6017 672.76C71.1069 673.49 71.6181 674.199 72.1292 674.909C75.5726 679.687 78.8346 684.219 78.885 689.701C78.9374 693.412 78.5686 697.315 77.8023 701.334C74.7708 717.226 84.3711 720.981 86.3268 721.573C86.4246 721.602 86.5224 721.632 86.581 721.649C86.8821 721.783 87.4961 722.011 88.337 722.265C91.1532 723.117 96.6109 724.125 101.537 721.386C105.311 719.28 107.969 715.427 109.431 709.954C112.291 699.221 111.984 687.595 111.221 679.74C110.461 672.014 107.461 664.85 102.515 659.041C98.8262 654.723 95.254 651.571 95.1075 651.42C94.9884 651.32 86.9797 644.628 79.5635 639.013C79.4912 638.969 79.4248 638.907 79.3721 638.869L78.1955 638.172L77.2691 637.636C76.888 637.414 76.4559 637.219 76.0061 637.083L75.9474 637.065Z" fill="#C0C0C1"/>
<path d="M86.6703 627.15L101.854 616.106C104.59 614.114 107.921 613.049 111.332 613.204C113.837 613.321 117.127 613.803 121.214 615.038L129.018 617.396C130.289 617.78 131.446 618.472 132.289 619.495C133.647 621.145 134.541 623.978 131.151 627.993C125.333 634.884 103.479 644.554 103.479 644.554C103.479 644.554 94.5839 648.422 86.6016 641.289C82.047 637.222 82.3667 633.41 83.4858 630.908C84.1605 629.382 85.2944 628.101 86.6431 627.099L86.6703 627.15Z" stroke="#C0C0C1" stroke-width="3.71655" stroke-miterlimit="10"/>
<path d="M39.5871 655.399L30.7263 688.601C29.9547 691.507 29.8402 694.569 30.5736 697.439C31.4583 700.867 33.5592 704.791 38.5274 706.784C42.9463 708.547 46.6922 707.522 49.5023 705.851C52.5415 704.057 54.8769 701.132 56.2425 697.744C58.4012 692.438 62.7253 681.379 63.0968 677.113C63.2116 675.674 63.1517 674.46 62.9817 673.469C62.6167 671.287 61.0764 669.604 59.0934 668.962C57.5348 668.469 55.1262 667.4 52.0118 665.134C47.3989 661.754 45.2896 656.375 42.4508 654.257C41.4212 653.497 39.9443 654.076 39.593 655.38L39.5871 655.399Z" fill="#C0C0C1"/>
</g>
<defs>
<linearGradient id="paint0_linear_147_930" x1="-23.8057" y1="494.899" x2="239.934" y2="574.611" gradientUnits="userSpaceOnUse">
<stop stop-color="#36A399"/>
<stop offset="0.54" stop-color="#2D2D73"/>
<stop offset="1" stop-color="#DD4A37"/>
</linearGradient>
<clipPath id="clip0_147_930">
<rect width="509" height="823" fill="white" transform="translate(-6.89844) rotate(16.8166)"/>
</clipPath>
</defs>
</svg>
