<?xml version="1.0" encoding="UTF-8"?>
<svg id="Capa_2" data-name="Capa 2" xmlns="http://www.w3.org/2000/svg" xmlns:xlink="http://www.w3.org/1999/xlink" viewBox="0 0 125.88 170.17">
  <defs>
    <style>
      .cls-1 {
        clip-path: url(#clippath-4);
      }

      .cls-1, .cls-2, .cls-3, .cls-4, .cls-5, .cls-6, .cls-7, .cls-8, .cls-9 {
        fill: none;
      }

      .cls-10 {
        fill: #ddd;
      }

      .cls-2 {
        clip-path: url(#clippath-2);
      }

      .cls-3 {
        clip-path: url(#clippath-6);
      }

      .cls-11 {
        fill: #585b61;
      }

      .cls-12 {
        fill: #434457;
      }

      .cls-13 {
        fill: #c0c0c1;
      }

      .cls-14 {
        fill: url(#Degradado_sin_nombre_11);
      }

      .cls-15 {
        fill: #59c1dd;
      }

      .cls-4 {
        clip-path: url(#clippath-7);
      }

      .cls-5 {
        clip-path: url(#clippath-5);
      }

      .cls-6 {
        stroke: #c0c0c1;
        stroke-miterlimit: 10;
        stroke-width: .55px;
      }

      .cls-7 {
        clip-path: url(#clippath-3);
      }

      .cls-8 {
        clip-path: url(#clippath);
      }

      .cls-16 {
        fill: #89ceda;
      }

      .cls-9 {
        clip-path: url(#clippath-1);
      }

      .cls-17 {
        fill: #acadb0;
      }
    </style>
    <clipPath id="clippath">
      <path class="cls-10" d="m30.91,97.01c-5.17-5.22-13.45-13.58-17.65-17.82-1.72-1.74-4.02-2.86-6.69-3.28h0c-1.82-.28-4.02,1.48-4.33,3.47h0c-.63,4.04.68,7.37,2.12,10.45,3.56,7.6,14.37,18.28,21.04,17.07.06-.01.11-.02.17-.03,6.98-1.3,9.38-5.79,5.33-9.87Z"/>
    </clipPath>
    <clipPath id="clippath-1">
      <path class="cls-10" d="m92.93,106.18v21.81c0,7.53-1.95,14.99-5.95,21.57-4.67,7.67-11.22,13.81-16.65,15.49-2.47.76-8.6.19-10.34-.27-16.92-4.71-25.78-21.33-25.93-37.26,0,0,0-21.33,0-21.33.04-5.83.7-11.62,4.38-15.81,2.37-2.66,5.83-4.08,9.39-4.12l30.32-.32c.9-.03,1.81.06,2.7.24,3.56.73,6.59,3.08,8.42,6.22l1.5,2.58c.71,1.21,1.23,2.53,1.51,3.91.46,2.21.64,4.54.65,7.3Z"/>
    </clipPath>
    <linearGradient id="Degradado_sin_nombre_11" data-name="Degradado sin nombre 11" x1="35.12" y1="95.55" x2="91.05" y2="95.55" gradientUnits="userSpaceOnUse">
      <stop offset="0" stop-color="#36a399"/>
      <stop offset=".54" stop-color="#2d2d73"/>
      <stop offset="1" stop-color="#dd4a37"/>
    </linearGradient>
    <clipPath id="clippath-2">
      <path class="cls-10" d="m94.97,94.5c5.17-5.22,13.45-13.58,17.65-17.82,1.72-1.74,4.02-2.86,6.69-3.28h0c1.82-.28,4.02,1.48,4.33,3.47h0c.63,4.04-.68,7.37-2.12,10.45-3.56,7.6-14.37,18.28-21.04,17.07-.06-.01-.11-.02-.17-.03-6.98-1.3-9.38-5.79-5.33-9.87Z"/>
    </clipPath>
    <clipPath id="clippath-3">
      <path class="cls-13" d="m64.88,9.31h0c-1.52.04-2.49-.35-3.27-1.02-.9-.77-1.33-1.7-1.36-2.65l-.03-1.23c-.02-.84.28-1.69.98-2.44.77-.82,1.78-1.31,3.44-1.36h0c1.8-.05,3,.49,3.82,1.39.54.59.78,1.26.8,1.94l.04,1.37c.03.97-.37,1.94-1.23,2.77-.73.71-1.67,1.19-3.19,1.23Z"/>
    </clipPath>
    <clipPath id="clippath-4">
      <path class="cls-10" d="m45.29,13.17h39.2c17.39,0,31.51,14.12,31.51,31.51v2.77c0,18.93-15.37,34.3-34.3,34.3h-33.62c-18.93,0-34.3-15.37-34.3-34.3v-2.77c0-17.39,14.12-31.51,31.51-31.51Z"/>
    </clipPath>
    <clipPath id="clippath-5">
      <path class="cls-11" d="m80.98,71.84h-32.18c-13.41,0-24.39-10.97-24.39-24.39v-1.97c0-12.32,10.08-22.4,22.4-22.4h3.49s32.66,0,32.66,0c12.32,0,22.4,10.08,22.4,22.4v1.97c0,13.41-10.97,24.39-24.39,24.39Z"/>
    </clipPath>
    <clipPath id="clippath-6">
      <path class="cls-16" d="m41.33,47.31c-.78-.68-1.1-1.74-.9-2.76.56-2.86,2.57-8.96,9.49-8.66,6.61.29,8.4,5.56,8.89,8.35.27,1.54-.68,3.12-2.23,3.4-.8.15-1.76-.05-2.83-.98-1.25-1.09-2.59-1.44-3.72-1.47-1.38-.04-2.7.57-3.74,1.55s-3.02,2.25-4.96.56Z"/>
    </clipPath>
    <clipPath id="clippath-7">
      <path class="cls-16" d="m72.14,48.17c-.78-.68-1.1-1.74-.9-2.76.56-2.86,2.57-8.96,9.49-8.66,6.61.29,8.4,5.56,8.89,8.35.27,1.54-.68,3.12-2.23,3.4-.8.15-1.76-.05-2.83-.98-1.25-1.09-2.59-1.44-3.72-1.47-1.38-.04-2.7.57-3.74,1.55-1.09,1.02-3.02,2.25-4.96.56Z"/>
    </clipPath>
  </defs>
  <g id="Capa_1-2" data-name="Capa 1">
    <g>
      <g>
        <g>
          <path class="cls-10" d="m30.91,97.01c-5.17-5.22-13.45-13.58-17.65-17.82-1.72-1.74-4.02-2.86-6.69-3.28h0c-1.82-.28-4.02,1.48-4.33,3.47h0c-.63,4.04.68,7.37,2.12,10.45,3.56,7.6,14.37,18.28,21.04,17.07.06-.01.11-.02.17-.03,6.98-1.3,9.38-5.79,5.33-9.87Z"/>
          <g class="cls-8">
            <path class="cls-13" d="m30.97,105.09c-.32-.4-19.6.6-28.99-28.18l-1.98,10.2,15.63,21.41,12.19,1.23,3.15-4.67Z"/>
          </g>
        </g>
        <g>
          <path class="cls-10" d="m92.93,106.18v21.81c0,7.53-1.95,14.99-5.95,21.57-4.67,7.67-11.22,13.81-16.65,15.49-2.47.76-8.6.19-10.34-.27-16.92-4.71-25.78-21.33-25.93-37.26,0,0,0-21.33,0-21.33.04-5.83.7-11.62,4.38-15.81,2.37-2.66,5.83-4.08,9.39-4.12l30.32-.32c.9-.03,1.81.06,2.7.24,3.56.73,6.59,3.08,8.42,6.22l1.5,2.58c.71,1.21,1.23,2.53,1.51,3.91.46,2.21.64,4.54.65,7.3Z"/>
          <g class="cls-9">
            <path class="cls-10" d="m42.84,88.21c.04,20.54.12,41.55,6.51,61.3,1.71,5.27,3.86,10.4,6.5,15.28l2.28-1.76c-7.3-5.7-15.03-11.74-19.28-20.19-4.93-9.8-3.24-21.56-2.13-32.04.61-5.77,1.39-11.52,2.34-17.24.22-1.33.43-2.67.69-4,.2-1.04.42-2.56,1.49-3.09.97-.49,1.44.38,1.41,1.26-.04,1.13-.87,2.18-1.44,3.1-5.23,8.37-4.91,18.7-2.46,27.94,3.05,11.49,9.44,21.79,11.98,33.45.4,1.83,3.2,1.05,2.8-.77-2.45-11.25-8.48-21.24-11.65-32.25-1.44-5.02-2.27-10.27-1.85-15.51.2-2.53.75-5.05,1.66-7.42s2.67-4.37,3.53-6.77c.7-1.96.29-4.53-1.65-5.65-2.2-1.26-4.76.24-5.79,2.28-.59,1.18-.79,2.49-1.02,3.77-.28,1.6-.55,3.2-.8,4.81-.48,3.02-.91,6.04-1.3,9.07-.79,6.13-1.46,12.3-1.81,18.47-.32,5.76-.21,11.68,1.53,17.23,3.49,11.1,12.88,18.71,21.71,25.61,1.24.97,3.12-.21,2.28-1.76-9.5-17.55-11.87-37.74-12.42-57.39-.16-5.91-.18-11.82-.19-17.73,0-1.87-2.91-1.87-2.91,0h0Z"/>
            <path class="cls-10" d="m51.46,83.87c-2.51,18.73-1.02,37.97,4.29,56.1,1.33,4.54,2.9,9,4.7,13.38.87,2.11,2.12,4.25,2.57,6.5s-.91,3.99-2.78,5.19c-7.19,4.63-16.6,1.53-22.38-3.89-6.37-5.97-10.33-14.61-13.15-22.74-3.07-8.84-4.59-18.32-3.36-27.65.57-4.34,1.73-8.67,3.53-12.67s4.06-7.82,7.32-10.66c2.97-2.59,7.18-3.96,10.55-1.26s4.24,7.35,4.24,11.52c0,4.94-.43,9.86-.36,14.81s.37,9.85.91,14.75c1.07,9.77,3.03,19.44,5.91,28.85.71,2.32,1.48,4.62,2.3,6.9.63,1.75,3.43.99,2.8-.77-3.56-9.95-6.11-20.24-7.57-30.71-.73-5.22-1.18-10.47-1.36-15.74s.04-10.64.24-15.97c.17-4.72-.18-9.7-3.11-13.61-2.51-3.34-6.46-5.16-10.63-4.15-4.27,1.04-7.59,4.49-10.02,7.98-2.72,3.91-4.73,8.32-6.06,12.88-2.74,9.38-2.52,19.39-.3,28.85,1.17,5,2.91,9.85,5,14.54,1.87,4.19,4.01,8.3,6.75,11.99,5.24,7.04,13.17,12.59,22.33,11.8,4.1-.35,8.76-2.04,11.13-5.61,1.3-1.96,1.27-4.32.55-6.49-.8-2.42-2-4.72-2.94-7.09-7.46-18.8-10.56-39.26-9.01-59.43.2-2.54.47-5.08.81-7.61.11-.78-.74-1.45-1.45-1.45-.87,0-1.35.68-1.45,1.45h0Z"/>
            <path class="cls-13" d="m45.03,85.4c.36.48.5-.28.5-.28,0,0-13.94,56.63,13.45,79.5,0,0-8.72,3.07-19.92-13.39s-7.22-55.79-7.22-55.79c0,0,8.96-15.62,13.2-10.04Z"/>
          </g>
        </g>
        <path class="cls-14" d="m91.05,95.72c-7.25,3.49-29.01,8.79-55.93,1.26.63-2.74,1.29-3.99,2.77-5.82,4.3,1.04,27.65,6.09,49.88-.86l3.29,5.42Z"/>
        <g>
          <g>
            <path class="cls-13" d="m67.22,123.44l.59.12c.14.03.27.11.34.23.07.11.08.25-.14.33-.16.06-.34.05-.49-.04-.16-.09-.38-.13-.57-.03-.19.18.24.41.47.51.1.05.26.18.19.32-.07.13-.1.11-.24.12-.13,0-.29,0-.7-.15-.29-.11-.52-.22-.74-.41-.46-.37-.46-.28-1.29-.54-.26-.08-.68-.18-.95-.21-.29-.03-.5-.11-1.19-.17-.28-.03-1.43-.09-1.87-.26-1.21-.48-3.2-1.07-3.96-4.02-1.38-5.36-1.44-5.7-.74-6.92.3-.53.81-.92,1.4-1.07.2-.05,2.6-.33,2.6-.33h.35c.66.02,1.26.4,1.54,1,.03.07.05.12.06.16.09.7.24,2.43.31,3.33.07.91.29,1.84,1.08,2.42l-.21-.05c-.18-.04-.36-.02-.52.08-.1.06-.16.13-.15.24,0,.22.18.34.44.39.14.03.27.06.37.08.11.03.21.11.24.22.03.1.02.21-.15.26-.32.11-.47.06-.47.06,0,0-.57-.11-.56.25.01.36.31.36.31.36,0,0,.58.06.87,0,.29-.06.35.07.35.07,0,0,.07.2-.14.33-.21.13-.48.29-.55.39-.07.11-.08.34.06.45.15.11.45.01.54-.06.09-.08.38-.41.53-.39.18.03.22.12.2.23-.02.11-.11.47-.25.6-.05.04-.08.1-.1.16-.04.13,0,.28.13.36.05.03.12.05.2.05.12,0,.23-.08.3-.18.11-.16.16-.46.33-.62,0,0,.02,0,.02,0,.16.05.34.04.53-.06.18-.1.78-.91,1.14-.68.23.14.03.49-.5.95-.54.46.36.29,1.29.1.66-.13.75-.11.91.04.11.1.05.36-.41.48-.62.15-1.02.11-1.01.3,0,.22.18.29.8.28.41,0,.64.04.69.15.08.18-.1.32-.28.32-.17,0-.34.03-.87.11-.56.08-.1.35-.1.35Z"/>
            <path class="cls-13" d="m62.87,117.77c.06,0,.12,0,.17.02l.21.05.27.07c1.78.66,3.72,1.48,3.72,1.48,0,0,.88.4,1.83,1.01,1.23.79,2.18,1.95,2.74,3.3.57,1.38,1.32,3.6,1.39,5.82.1,2.88-2.05,3.17-2.93,3.17-.22,0-.36-.02-.36-.02,0,0-.02,0-.07,0-.37,0-2.1-.15-2.4-3.03-.1-.95-.28-1.75-.49-2.41-.43-1.36-1.63-2.14-2.76-3.02-.56-.44-1.12-.7-1.63-.89.69.06.83.34,1.12.37.27.03.69.13.95.21.83.26.83.17,1.29.54.22.18.45.29.74.41.33.13.49.15.62.15.03,0,.06,0,.08,0,.14-.01.17.02.24-.12.07-.14-.09-.27-.19-.32-.23-.1-.66-.33-.47-.51.08-.04.16-.06.25-.06.12,0,.23.04.32.09.09.05.19.07.29.07.07,0,.14-.01.21-.04.22-.08.2-.22.14-.33-.07-.12-.2-.2-.34-.23l-.59-.12s-.46-.27.1-.35c.53-.08.7-.11.87-.11.18,0,.36-.15.28-.32-.05-.1-.25-.15-.61-.15-.03,0-.06,0-.09,0-.04,0-.08,0-.12,0-.52,0-.67-.08-.68-.28,0-.19.4-.15,1.01-.3.46-.11.52-.38.41-.48-.08-.08-.15-.12-.3-.12-.12,0-.31.03-.61.09-.49.1-.98.2-1.24.2-.24,0-.3-.08-.05-.29.53-.46.73-.81.5-.95-.04-.03-.09-.04-.14-.04-.36,0-.84.64-1,.72-.11.06-.22.09-.33.09-.07,0-.13-.01-.2-.03v-.03s-.02.01-.02.02c-.17.16-.22.46-.33.62-.07.1-.18.17-.3.18,0,0-.01,0-.02,0-.07,0-.13-.02-.18-.05-.12-.07-.17-.22-.13-.36.02-.06.05-.11.1-.16.14-.13.23-.49.25-.6.02-.11-.03-.2-.2-.23,0,0-.01,0-.02,0-.15,0-.43.32-.51.39-.06.05-.22.11-.36.11-.07,0-.13-.01-.18-.05-.15-.1-.14-.34-.06-.45.06-.09.33-.26.55-.39.21-.13.14-.33.14-.33,0,0-.04-.08-.21-.08-.04,0-.08,0-.14.01-.1.02-.23.02-.36.02-.26,0-.51-.02-.51-.02,0,0-.3,0-.31-.36,0-.22.21-.27.38-.27.1,0,.18.01.18.01,0,0,.03.01.1.01.08,0,.2-.01.37-.07.16-.05.17-.17.15-.26-.03-.11-.13-.19-.24-.22-.1-.02-.23-.06-.37-.08-.25-.05-.43-.16-.44-.39,0-.1.05-.17.15-.24.1-.07.22-.1.35-.1m0-.44c-.21,0-.41.06-.58.17-.3.19-.36.44-.36.62,0,.11.03.4.3.61-.1.04-.18.09-.25.17-.12.13-.19.3-.18.49.02.5.39.78.74.79,0,0,.1,0,.23.02-.02.02-.04.05-.06.07-.2.3-.18.81.18,1.06.12.08.27.13.43.13.1,0,.21-.02.31-.05-.08.33.05.66.34.82.12.07.26.11.4.11,0,0,.04,0,.05,0,.25-.02.48-.15.63-.37.07-.11.12-.23.16-.33,0-.02.01-.04.02-.06.12,0,.24-.02.36-.06,0,.06,0,.12.03.18.06.16.22.35.62.35.09,0,.19,0,.31-.02-.02.06-.03.13-.03.21.01.28.14.45.31.55-.15.1-.21.23-.23.34-.04.18.03.36.17.52-.01,0-.03.01-.04.02-.04.02-.07.04-.1.07-.14.14-.21.33-.17.52,0,0,0,.02,0,.02-.09-.05-.18-.11-.26-.18-.39-.31-.54-.37-.93-.47-.13-.03-.29-.08-.51-.15-.29-.09-.75-.19-1.03-.22-.03,0-.08-.04-.14-.07-.19-.1-.47-.26-.98-.31-.01,0-.03,0-.04,0-.2,0-.39.14-.43.34-.05.22.07.44.28.51.38.14.94.38,1.51.83.14.11.28.22.42.33.95.73,1.85,1.42,2.18,2.48.23.72.39,1.5.47,2.32.34,3.26,2.43,3.43,2.85,3.43.02,0,.04,0,.06,0,.07,0,.2.02.38.02.6,0,1.72-.12,2.51-.95.61-.63.9-1.53.86-2.68-.08-2.25-.82-4.49-1.43-5.97-.6-1.46-1.6-2.67-2.91-3.51-.97-.62-1.85-1.03-1.89-1.04-.03-.01-1.98-.84-3.75-1.5l-.32-.08-.21-.05c-.09-.02-.18-.03-.28-.03h0Z"/>
            <path class="cls-6" d="m64.36,114.75l2.3-3.03c.41-.55,1-.95,1.67-1.12.5-.13,1.16-.22,2.03-.22h1.66c.27,0,.54.07.76.22.36.24.7.74.28,1.72-.73,1.68-4.4,4.84-4.4,4.84,0,0-1.5,1.27-3.47.36-1.12-.52-1.29-1.28-1.22-1.83.04-.34.19-.65.39-.92Z"/>
          </g>
          <path class="cls-13" d="m56.86,123l.23,6.97c.02.61.18,1.21.49,1.72.37.62,1.01,1.25,2.09,1.35.96.08,1.63-.33,2.08-.82.48-.53.77-1.23.84-1.97.11-1.16.3-3.56.12-4.41-.06-.29-.14-.52-.24-.7-.2-.4-.6-.64-1.02-.65-.33,0-.86-.07-1.6-.33-1.1-.38-1.82-1.31-2.5-1.55-.25-.09-.5.11-.49.39Z"/>
        </g>
        <g>
          <path class="cls-10" d="m94.97,94.5c5.17-5.22,13.45-13.58,17.65-17.82,1.72-1.74,4.02-2.86,6.69-3.28h0c1.82-.28,4.02,1.48,4.33,3.47h0c.63,4.04-.68,7.37-2.12,10.45-3.56,7.6-14.37,18.28-21.04,17.07-.06-.01-.11-.02-.17-.03-6.98-1.3-9.38-5.79-5.33-9.87Z"/>
          <g class="cls-2">
            <path class="cls-13" d="m94.9,102.58c.32-.4,19.6.6,28.99-28.18l1.98,10.2-15.63,21.41-12.19,1.23-3.15-4.67Z"/>
          </g>
        </g>
      </g>
      <g>
        <g>
          <rect class="cls-13" x="63.81" y="8.72" width="2.05" height="6.71" rx=".61" ry=".61" transform="translate(.01 -.07) rotate(.06)"/>
          <g>
            <path class="cls-13" d="m64.88,9.31h0c-1.52.04-2.49-.35-3.27-1.02-.9-.77-1.33-1.7-1.36-2.65l-.03-1.23c-.02-.84.28-1.69.98-2.44.77-.82,1.78-1.31,3.44-1.36h0c1.8-.05,3,.49,3.82,1.39.54.59.78,1.26.8,1.94l.04,1.37c.03.97-.37,1.94-1.23,2.77-.73.71-1.67,1.19-3.19,1.23Z"/>
            <g class="cls-7">
              <path class="cls-17" d="m64.11.14s-4.18,5.54-.73,10.04l-5.96-1.67s-2.3-7.01.52-7.95c2.82-.94,6.17-.42,6.17-.42Z"/>
            </g>
          </g>
        </g>
        <g>
          <path class="cls-10" d="m45.29,13.17h39.2c17.39,0,31.51,14.12,31.51,31.51v2.77c0,18.93-15.37,34.3-34.3,34.3h-33.62c-18.93,0-34.3-15.37-34.3-34.3v-2.77c0-17.39,14.12-31.51,31.51-31.51Z"/>
          <g class="cls-1">
            <path class="cls-13" d="m43.33,12.24s-50.21,24.83-7.25,68.35l-18.69-5.58L7.06,42.37l9.76-23.43,22.32-8.37,4.18,1.67Z"/>
          </g>
        </g>
        <g>
          <path class="cls-11" d="m80.98,71.84h-32.18c-13.41,0-24.39-10.97-24.39-24.39v-1.97c0-12.32,10.08-22.4,22.4-22.4h3.49s32.66,0,32.66,0c12.32,0,22.4,10.08,22.4,22.4v1.97c0,13.41-10.97,24.39-24.39,24.39Z"/>
          <g class="cls-5">
            <path class="cls-12" d="m54.21,21.73s-38.22,6.7-20.36,45.47c17.85,38.78,0,0,0,0l-9.21.56-5.02-28.18,14.51-20.64,20.09,2.79Z"/>
          </g>
        </g>
        <g>
          <path class="cls-16" d="m41.33,47.31c-.78-.68-1.1-1.74-.9-2.76.56-2.86,2.57-8.96,9.49-8.66,6.61.29,8.4,5.56,8.89,8.35.27,1.54-.68,3.12-2.23,3.4-.8.15-1.76-.05-2.83-.98-1.25-1.09-2.59-1.44-3.72-1.47-1.38-.04-2.7.57-3.74,1.55s-3.02,2.25-4.96.56Z"/>
          <g class="cls-3">
            <path class="cls-15" d="m49.92,35.89s-10.48,7.5-4.85,12.37l-6.49,1.15.95-10.5,6.87-5.06,3.51,2.05"/>
          </g>
        </g>
        <g>
          <path class="cls-16" d="m72.14,48.17c-.78-.68-1.1-1.74-.9-2.76.56-2.86,2.57-8.96,9.49-8.66,6.61.29,8.4,5.56,8.89,8.35.27,1.54-.68,3.12-2.23,3.4-.8.15-1.76-.05-2.83-.98-1.25-1.09-2.59-1.44-3.72-1.47-1.38-.04-2.7.57-3.74,1.55-1.09,1.02-3.02,2.25-4.96.56Z"/>
          <g class="cls-4">
            <path class="cls-15" d="m80.73,36.75s-10.48,7.5-4.85,12.37l-6.49,1.15.95-10.5,6.87-5.06,3.51,2.05"/>
          </g>
        </g>
      </g>
    </g>
  </g>
</svg>