<?xml version="1.0" encoding="UTF-8"?>
<svg id="Capa_2" data-name="Capa 2" xmlns="http://www.w3.org/2000/svg" xmlns:xlink="http://www.w3.org/1999/xlink" viewBox="0 0 103.12 173.32">
  <defs>
    <style>
      .cls-1 {
        clip-path: url(#clippath-4);
      }

      .cls-1, .cls-2, .cls-3, .cls-4, .cls-5, .cls-6, .cls-7 {
        fill: none;
      }

      .cls-8, .cls-9 {
        fill: #ddd;
      }

      .cls-2 {
        clip-path: url(#clippath-2);
      }

      .cls-10 {
        fill: #5a5c62;
      }

      .cls-11 {
        fill: #434457;
      }

      .cls-12, .cls-13 {
        fill: #c0c0c1;
      }

      .cls-14 {
        fill: url(#Degradado_sin_nombre_11);
      }

      .cls-15 {
        fill: #59c1dd;
      }

      .cls-3 {
        clip-path: url(#clippath-5);
      }

      .cls-4, .cls-9 {
        stroke-width: .92px;
      }

      .cls-4, .cls-9, .cls-13 {
        stroke: #c0c0c1;
      }

      .cls-5 {
        clip-path: url(#clippath-3);
      }

      .cls-6 {
        clip-path: url(#clippath);
      }

      .cls-16 {
        fill: #89ceda;
      }

      .cls-7 {
        clip-path: url(#clippath-1);
      }

      .cls-13 {
        stroke-width: .81px;
      }

      .cls-17 {
        fill: #acadb0;
      }
    </style>
    <clipPath id="clippath">
      <path class="cls-12" d="m48.23,11.14h0c-1.66.05-2.73-.42-3.58-1.22-.98-.92-1.46-2.03-1.49-3.17l-.04-1.47c-.02-1.01.31-2.03,1.08-2.92.84-.98,1.95-1.57,3.76-1.62h0c1.97-.06,3.29.59,4.18,1.66.59.7.85,1.51.87,2.32l.04,1.64c.03,1.16-.4,2.32-1.35,3.32-.8.85-1.82,1.42-3.49,1.47Z"/>
    </clipPath>
    <clipPath id="clippath-1">
      <path class="cls-8" d="m54.13,71.64h-8.43c-14.65,0-24.83-1.97-32.1-8.63-5.65-5.18-8.38-11.18-8.38-17.23v-6.3c0-4.76,2.46-10.72,6.26-14.99,6.56-7.38,17.7-9.7,32.44-9.7h15.03c10.95,0,19.55,1.15,26.16,5.29s10.4,10.9,10.4,17.94v10.39c0,5.99-2.77,11.79-7.87,15.9-7.27,5.87-19.76,7.33-33.51,7.33Z"/>
    </clipPath>
    <clipPath id="clippath-2">
      <path class="cls-10" d="m95.39,24.82l-16-1.15c-9.39.18-17.88,4.78-22.01,11.91h0c-2.34,4.04-2.49,7.69-1.29,11.66.65,2.14,1.68,4.18,2.91,6.1l.93,1.46c4.61,5.63,10.06,7.69,20.74,8.59l14.59-1.01,7.85-32.61-7.73-4.96Z"/>
    </clipPath>
    <clipPath id="clippath-3">
      <path class="cls-16" d="m92.24,48.49h0c-1.86.13-3.07-.62-4.05-1.9-1.14-1.48-1.72-3.3-1.79-5.17l-.1-2.42c-.07-1.66.27-3.34,1.09-4.83.9-1.63,2.12-2.63,4.15-2.77h0c2.2-.15,3.7.87,4.75,2.61.68,1.14,1.02,2.45,1.07,3.78l.11,2.69c.08,1.9-.36,3.82-1.38,5.49-.87,1.42-1.99,2.38-3.85,2.51Z"/>
    </clipPath>
    <clipPath id="clippath-4">
      <path class="cls-8" d="m80.61,99.39v26.68c0,9.21-2.05,18.34-6.26,26.38-2.78,5.31-7.92,10.28-11.87,13.61-3.26,2.75-7.67,4.27-12.27,4.24-2.15-.01-4.75-.2-5.48-.42-17.82-5.76-25.98-24.9-26.14-44.4,0,0,0-26.09,0-26.09.04-7.14.74-14.22,4.61-19.34,2.5-3.25,6.24-4.9,9.99-4.95l14.47.95c1.15.08,2.3.11,3.45.11,2.64,0,7.46-.02,8.21-.03,2.76-.06,8.27-.14,9.01.04,3.75.9,6.49,2.51,8.41,6.36l1.58,3.15c.74,1.49,1.29,3.1,1.59,4.78.48,2.7.68,5.56.69,8.94Z"/>
    </clipPath>
    <linearGradient id="Degradado_sin_nombre_11" data-name="Degradado sin nombre 11" x1="19.79" y1="85.93" x2="78.88" y2="85.93" gradientUnits="userSpaceOnUse">
      <stop offset="0" stop-color="#36a399"/>
      <stop offset=".54" stop-color="#2d2d73"/>
      <stop offset="1" stop-color="#dd4a37"/>
    </linearGradient>
    <clipPath id="clippath-5">
      <path class="cls-9" d="m60.15,103.63c.77,10.09,2.01,26.25,2.64,34.45.26,3.36-.78,6.73-3.01,9.81h0c-1.52,2.1-5.79,2.68-8.39,1.13h0c-5.29-3.13-7.8-7.56-9.89-11.9-5.15-10.69-6.49-31.56,1.67-37.17.07-.05.14-.09.21-.14,8.57-5.83,16.18-4.08,16.78,3.82Z"/>
    </clipPath>
  </defs>
  <g id="Capa_1-2" data-name="Capa 1">
    <g>
      <g>
        <rect class="cls-12" x="47.06" y="10.43" width="2.24" height="8.03" rx=".7" ry=".7" transform="translate(.02 -.06) rotate(.07)"/>
        <g>
          <path class="cls-12" d="m48.23,11.14h0c-1.66.05-2.73-.42-3.58-1.22-.98-.92-1.46-2.03-1.49-3.17l-.04-1.47c-.02-1.01.31-2.03,1.08-2.92.84-.98,1.95-1.57,3.76-1.62h0c1.97-.06,3.29.59,4.18,1.66.59.7.85,1.51.87,2.32l.04,1.64c.03,1.16-.4,2.32-1.35,3.32-.8.85-1.82,1.42-3.49,1.47Z"/>
          <g class="cls-6">
            <path class="cls-17" d="m47.39.17s-4.58,6.63-.8,12.02l-6.52-2s-2.52-8.39.57-9.51c3.09-1.13,6.75-.5,6.75-.5Z"/>
          </g>
        </g>
      </g>
      <g>
        <path class="cls-8" d="m54.13,71.64h-8.43c-14.65,0-24.83-1.97-32.1-8.63-5.65-5.18-8.38-11.18-8.38-17.23v-6.3c0-4.76,2.46-10.72,6.26-14.99,6.56-7.38,17.7-9.7,32.44-9.7h15.03c10.95,0,19.55,1.15,26.16,5.29s10.4,10.9,10.4,17.94v10.39c0,5.99-2.77,11.79-7.87,15.9-7.27,5.87-19.76,7.33-33.51,7.33Z"/>
        <g class="cls-7">
          <path class="cls-12" d="m39.82,14.78s-55.94,12.88-13.07,58.39l-17.24-4.94L0,39.31l9-20.76,20.58-7.41,10.24,3.64Z"/>
          <g>
            <path class="cls-10" d="m95.39,24.82l-16-1.15c-9.39.18-17.88,4.78-22.01,11.91h0c-2.34,4.04-2.49,7.69-1.29,11.66.65,2.14,1.68,4.18,2.91,6.1l.93,1.46c4.61,5.63,10.06,7.69,20.74,8.59l14.59-1.01,7.85-32.61-7.73-4.96Z"/>
            <g class="cls-2">
              <g>
                <path class="cls-16" d="m92.24,48.49h0c-1.86.13-3.07-.62-4.05-1.9-1.14-1.48-1.72-3.3-1.79-5.17l-.1-2.42c-.07-1.66.27-3.34,1.09-4.83.9-1.63,2.12-2.63,4.15-2.77h0c2.2-.15,3.7.87,4.75,2.61.68,1.14,1.02,2.45,1.07,3.78l.11,2.69c.08,1.9-.36,3.82-1.38,5.49-.87,1.42-1.99,2.38-3.85,2.51Z"/>
                <g class="cls-5">
                  <path class="cls-15" d="m91.53,31.4c0,.29-4.55,7.8-.19,17.49,4.36,9.69,0,0,0,0l-4.55,1.94-3.03-8.72-.38-10.41,5.5-1.94,2.66,1.65"/>
                </g>
              </g>
              <path class="cls-11" d="m72.76,24.08s-27.23,14.42-2.94,37.89l-9.75-1.68-9.94-18.78,2.58-11.9,20.06-5.53Z"/>
            </g>
          </g>
        </g>
      </g>
      <g>
        <path class="cls-8" d="m80.61,99.39v26.68c0,9.21-2.05,18.34-6.26,26.38-2.78,5.31-7.92,10.28-11.87,13.61-3.26,2.75-7.67,4.27-12.27,4.24-2.15-.01-4.75-.2-5.48-.42-17.82-5.76-25.98-24.9-26.14-44.4,0,0,0-26.09,0-26.09.04-7.14.74-14.22,4.61-19.34,2.5-3.25,6.24-4.9,9.99-4.95l14.47.95c1.15.08,2.3.11,3.45.11,2.64,0,7.46-.02,8.21-.03,2.76-.06,8.27-.14,9.01.04,3.75.9,6.49,2.51,8.41,6.36l1.58,3.15c.74,1.49,1.29,3.1,1.59,4.78.48,2.7.68,5.56.69,8.94Z"/>
        <g class="cls-1">
          <path class="cls-12" d="m28.17,73.94c.38.59.52-.35.52-.35,0,0-14.69,70.83,14.17,99.45,0,0-9.18,3.84-20.99-16.75-11.81-20.59-7.61-69.79-7.61-69.79,0,0,9.45-19.54,13.91-12.56Z"/>
        </g>
      </g>
      <path class="cls-14" d="m78.82,87.48c-6.87,3.58-21.02,6.78-58.91.73-.08-.01-.13-.08-.12-.15.65-3.51,1.17-4.31,2.67-6.67.03-.05.09-.08.16-.06,5.01,1.42,46.59,5.9,52.68-1.02.07-.07.19-.06.23.03l3.35,6.98c.03.06,0,.13-.06.16Z"/>
      <g>
        <path class="cls-8" d="m60.15,103.63c.77,10.09,2.01,26.25,2.64,34.45.26,3.36-.78,6.73-3.01,9.81h0c-1.52,2.1-5.79,2.68-8.39,1.13h0c-5.29-3.13-7.8-7.56-9.89-11.9-5.15-10.69-6.49-31.56,1.67-37.17.07-.05.14-.09.21-.14,8.57-5.83,16.18-4.08,16.78,3.82Z"/>
        <g class="cls-3">
          <path class="cls-13" d="m45.96,96.79c.13.69-15.08,18.39,4.78,55.31l-10.97-7.95-8.37-35.84,7.88-13,6.68,1.47Z"/>
        </g>
        <path class="cls-4" d="m60.15,103.63c.77,10.09,2.01,26.25,2.64,34.45.26,3.36-.78,6.73-3.01,9.81h0c-1.52,2.1-5.79,2.68-8.39,1.13h0c-5.29-3.13-7.8-7.56-9.89-11.9-5.15-10.69-6.49-31.56,1.67-37.17.07-.05.14-.09.21-.14,8.57-5.83,16.18-4.08,16.78,3.82Z"/>
      </g>
    </g>
  </g>
</svg>