<?xml version="1.0" encoding="UTF-8"?>
<svg id="Capa_2" data-name="Capa 2" xmlns="http://www.w3.org/2000/svg" xmlns:xlink="http://www.w3.org/1999/xlink" viewBox="0 0 148.81 233.03">
  <defs>
    <style>
      .cls-1 {
        stroke: #c0c0c1;
        stroke-miterlimit: 10;
        stroke-width: .75px;
      }

      .cls-1, .cls-2, .cls-3, .cls-4, .cls-5, .cls-6, .cls-7, .cls-8, .cls-9 {
        fill: none;
      }

      .cls-2 {
        clip-path: url(#clippath-4);
      }

      .cls-10 {
        fill: #ddd;
      }

      .cls-3 {
        clip-path: url(#clippath-2);
      }

      .cls-4 {
        clip-path: url(#clippath-6);
      }

      .cls-11 {
        fill: #585b61;
      }

      .cls-12 {
        fill: #434457;
      }

      .cls-13 {
        fill: #c0c0c1;
      }

      .cls-14 {
        fill: url(#Degradado_sin_nombre_11);
      }

      .cls-15 {
        fill: #59c1dd;
      }

      .cls-5 {
        clip-path: url(#clippath-7);
      }

      .cls-6 {
        clip-path: url(#clippath-5);
      }

      .cls-7 {
        clip-path: url(#clippath-3);
      }

      .cls-8 {
        clip-path: url(#clippath);
      }

      .cls-16 {
        fill: #89ceda;
      }

      .cls-9 {
        clip-path: url(#clippath-1);
      }

      .cls-17 {
        fill: #acadb0;
      }
    </style>
    <clipPath id="clippath">
      <path class="cls-13" d="m78.18,12.6h0c-2.06.06-3.37-.48-4.42-1.37-1.21-1.04-1.8-2.3-1.84-3.58l-.04-1.66c-.03-1.14.39-2.29,1.33-3.3,1.04-1.11,2.41-1.78,4.65-1.84h0c2.43-.07,4.06.66,5.16,1.88.72.8,1.06,1.7,1.08,2.62l.05,1.85c.04,1.31-.5,2.62-1.67,3.75-.99.96-2.25,1.61-4.31,1.66Z"/>
    </clipPath>
    <clipPath id="clippath-1">
      <path class="cls-10" d="m51.69,17.82h53c23.52,0,42.61,19.09,42.61,42.61v3.75c0,25.6-20.78,46.38-46.38,46.38h-45.46c-25.6,0-46.38-20.78-46.38-46.38v-3.75c0-23.52,19.09-42.61,42.61-42.61Z"/>
    </clipPath>
    <clipPath id="clippath-2">
      <path class="cls-11" d="m99.95,97.15h-43.52c-18.14,0-32.98-14.84-32.98-32.98v-2.66c0-16.66,13.63-30.29,30.29-30.29h4.72s44.17,0,44.17,0c16.66,0,30.29,13.63,30.29,30.29v2.66c0,18.14-14.84,32.98-32.98,32.98Z"/>
    </clipPath>
    <clipPath id="clippath-3">
      <path class="cls-16" d="m58.01,73.65h0c-3.71.2-6.11-.96-8.07-2.96-2.26-2.31-3.42-5.14-3.57-8.04l-.2-3.77c-.14-2.58.53-5.2,2.17-7.52,1.79-2.54,4.22-4.1,8.26-4.32h0c4.38-.23,7.37,1.36,9.45,4.07,1.36,1.78,2.03,3.82,2.14,5.89l.22,4.19c.16,2.96-.71,5.95-2.74,8.55-1.72,2.21-3.95,3.71-7.66,3.91Z"/>
    </clipPath>
    <clipPath id="clippath-4">
      <path class="cls-10" d="m38.69,138.12c-1.1,10.78-2.85,28.07-3.75,36.83-.37,3.6-1.96,6.98-4.64,9.88h0c-1.83,1.97-5.98,1.89-8.17-.17h0c-4.45-4.17-6.03-9.26-7.23-14.18-2.95-12.13-.44-34.41,8.32-39.01.07-.04.15-.08.22-.12,9.19-4.77,16.09-1.67,15.23,6.77Z"/>
    </clipPath>
    <clipPath id="clippath-5">
      <path class="cls-10" d="m124.12,133.9c1.1,10.78,2.87,28.07,3.76,36.83.37,3.6,1.94,6.99,4.6,9.88h0c1.81,1.98,5.91,1.89,8.07-.16h0c4.39-4.16,5.94-9.25,7.12-14.17,2.9-12.12.38-34.4-8.29-39.01-.07-.04-.15-.08-.22-.12-9.09-4.78-15.9-1.7-15.04,6.75Z"/>
    </clipPath>
    <clipPath id="clippath-6">
      <path class="cls-10" d="m122.12,146.51v29.49c0,10.18-2.63,20.28-8.04,29.16-6.31,10.37-15.17,18.67-22.52,20.94-3.34,1.03-11.63.26-13.98-.36-22.88-6.37-34.86-28.84-35.06-50.39,0,0,0-28.84,0-28.84.05-7.89.95-15.71,5.92-21.38,3.2-3.59,7.88-5.52,12.7-5.57l41-.43c1.22-.04,2.45.08,3.65.32,4.82.99,8.91,4.16,11.38,8.42l2.03,3.48c.96,1.64,1.66,3.42,2.04,5.28.62,2.99.87,6.15.88,9.88Z"/>
    </clipPath>
    <linearGradient id="Degradado_sin_nombre_11" data-name="Degradado sin nombre 11" x1="43.95" y1="132.14" x2="119.58" y2="132.14" gradientUnits="userSpaceOnUse">
      <stop offset="0" stop-color="#36a399"/>
      <stop offset=".54" stop-color="#2d2d73"/>
      <stop offset="1" stop-color="#dd4a37"/>
    </linearGradient>
    <clipPath id="clippath-7">
      <path class="cls-16" d="m98.6,74.38h0c-3.71.2-6.11-.96-8.07-2.96-2.26-2.31-3.42-5.14-3.57-8.04l-.2-3.77c-.14-2.58.53-5.2,2.17-7.52,1.79-2.54,4.22-4.1,8.26-4.32h0c4.38-.23,7.37,1.36,9.45,4.07,1.36,1.78,2.03,3.82,2.14,5.89l.22,4.19c.16,2.96-.71,5.95-2.74,8.55-1.72,2.21-3.95,3.71-7.66,3.91Z"/>
    </clipPath>
  </defs>
  <g id="Capa_1-2" data-name="Capa 1">
    <g>
      <g>
        <rect class="cls-13" x="76.73" y="11.79" width="2.77" height="9.08" rx=".82" ry=".82" transform="translate(.02 -.08) rotate(.06)"/>
        <g>
          <path class="cls-13" d="m78.18,12.6h0c-2.06.06-3.37-.48-4.42-1.37-1.21-1.04-1.8-2.3-1.84-3.58l-.04-1.66c-.03-1.14.39-2.29,1.33-3.3,1.04-1.11,2.41-1.78,4.65-1.84h0c2.43-.07,4.06.66,5.16,1.88.72.8,1.06,1.7,1.08,2.62l.05,1.85c.04,1.31-.5,2.62-1.67,3.75-.99.96-2.25,1.61-4.31,1.66Z"/>
          <g class="cls-8">
            <path class="cls-17" d="m77.14.2s-5.66,7.5-.99,13.58l-8.06-2.26s-3.11-9.48.71-10.75c3.82-1.27,8.35-.57,8.35-.57Z"/>
          </g>
        </g>
      </g>
      <g>
        <path class="cls-10" d="m51.69,17.82h53c23.52,0,42.61,19.09,42.61,42.61v3.75c0,25.6-20.78,46.38-46.38,46.38h-45.46c-25.6,0-46.38-20.78-46.38-46.38v-3.75c0-23.52,19.09-42.61,42.61-42.61Z"/>
        <g class="cls-9">
          <path class="cls-13" d="m49.04,16.56s-67.9,33.57-9.81,92.42l-25.27-7.54L0,57.3l13.2-31.69,30.18-11.32,5.66,2.26Z"/>
        </g>
      </g>
      <g>
        <path class="cls-11" d="m99.95,97.15h-43.52c-18.14,0-32.98-14.84-32.98-32.98v-2.66c0-16.66,13.63-30.29,30.29-30.29h4.72s44.17,0,44.17,0c16.66,0,30.29,13.63,30.29,30.29v2.66c0,18.14-14.84,32.98-32.98,32.98Z"/>
        <g class="cls-3">
          <path class="cls-12" d="m63.75,29.38s-51.68,9.05-27.54,61.49c24.14,52.43,0,0,0,0l-12.45.75-6.79-38.1,19.62-27.91,27.16,3.77Z"/>
        </g>
      </g>
      <g>
        <path class="cls-16" d="m58.01,73.65h0c-3.71.2-6.11-.96-8.07-2.96-2.26-2.31-3.42-5.14-3.57-8.04l-.2-3.77c-.14-2.58.53-5.2,2.17-7.52,1.79-2.54,4.22-4.1,8.26-4.32h0c4.38-.23,7.37,1.36,9.45,4.07,1.36,1.78,2.03,3.82,2.14,5.89l.22,4.19c.16,2.96-.71,5.95-2.74,8.55-1.72,2.21-3.95,3.71-7.66,3.91Z"/>
        <g class="cls-7">
          <path class="cls-15" d="m56.59,47.04c-.01.45-9.06,12.15-.39,27.24,8.68,15.09,0,0,0,0l-9.05,3.02-6.04-13.58-.75-16.22,10.94-3.02,5.29,2.57"/>
        </g>
      </g>
      <g>
        <path class="cls-10" d="m38.69,138.12c-1.1,10.78-2.85,28.07-3.75,36.83-.37,3.6-1.96,6.98-4.64,9.88h0c-1.83,1.97-5.98,1.89-8.17-.17h0c-4.45-4.17-6.03-9.26-7.23-14.18-2.95-12.13-.44-34.41,8.32-39.01.07-.04.15-.08.22-.12,9.19-4.77,16.09-1.67,15.23,6.77Z"/>
        <g class="cls-2">
          <path class="cls-13" d="m31.31,128.59c0,.75-23.01,16.97-7.17,59.22l-11.69-10.18-1.89-39.23,12.83-12.45,7.92,2.64Z"/>
        </g>
      </g>
      <g>
        <path class="cls-10" d="m124.12,133.9c1.1,10.78,2.87,28.07,3.76,36.83.37,3.6,1.94,6.99,4.6,9.88h0c1.81,1.98,5.91,1.89,8.07-.16h0c4.39-4.16,5.94-9.25,7.12-14.17,2.9-12.12.38-34.4-8.29-39.01-.07-.04-.15-.08-.22-.12-9.09-4.78-15.9-1.7-15.04,6.75Z"/>
        <g class="cls-6">
          <path class="cls-13" d="m129.76,123.31s-3.02,48.28,5.66,61.86l-8.68-5.66-4.15-50.55s-1.51-9.05,2.64-6.79c4.15,2.26,4.53,1.13,4.53,1.13Z"/>
        </g>
      </g>
      <g>
        <path class="cls-10" d="m122.12,146.51v29.49c0,10.18-2.63,20.28-8.04,29.16-6.31,10.37-15.17,18.67-22.52,20.94-3.34,1.03-11.63.26-13.98-.36-22.88-6.37-34.86-28.84-35.06-50.39,0,0,0-28.84,0-28.84.05-7.89.95-15.71,5.92-21.38,3.2-3.59,7.88-5.52,12.7-5.57l41-.43c1.22-.04,2.45.08,3.65.32,4.82.99,8.91,4.16,11.38,8.42l2.03,3.48c.96,1.64,1.66,3.42,2.04,5.28.62,2.99.87,6.15.88,9.88Z"/>
        <g class="cls-4">
          <path class="cls-10" d="m54.38,122.2c.05,27.79.17,56.2,8.81,82.92,2.3,7.12,5.21,14.06,8.78,20.64l3.09-2.38c-9.93-7.75-20.44-15.97-26.17-27.49-3.17-6.37-4.23-13.44-4.3-20.49-.07-7.62.73-15.27,1.54-22.84s1.88-15.48,3.15-23.18c.31-1.87.61-3.75.98-5.62.26-1.33.56-3,1.78-3.81.91-.6,1.69-.32,1.98.71.43,1.47-.51,2.93-1.24,4.13-1.74,2.82-3.26,5.66-4.3,8.82s-1.58,6.33-1.83,9.57c-.52,6.62.4,13.33,2.04,19.74,4.05,15.77,12.9,29.87,16.36,45.83.53,2.47,4.32,1.42,3.79-1.04-3.25-15.02-11.25-28.37-15.58-43.04-2-6.76-3.18-13.82-2.72-20.89.22-3.37.87-6.71,1.99-9.89.55-1.55,1.23-3.04,2.03-4.48.88-1.58,1.99-3.04,2.72-4.71,1.24-2.84,1.06-6.8-2-8.45-3.32-1.8-6.82.8-8.07,3.86-.72,1.77-.95,3.69-1.27,5.56-.35,2-.68,4.01-.99,6.02-.65,4.11-1.23,8.23-1.76,12.36-1.04,8.19-1.93,16.42-2.37,24.67-.41,7.73-.2,15.68,2.2,23.11,4.25,13.13,14.71,22.75,25.19,31.11,1.35,1.08,2.7,2.14,4.06,3.2,1.68,1.31,4.22-.29,3.09-2.38-12.84-23.67-16.05-50.96-16.79-77.48-.22-8.03-.24-16.06-.26-24.09,0-2.53-3.93-2.53-3.93,0h0Z"/>
          <path class="cls-10" d="m66.11,115.81c-3.46,25.76-1.47,52.14,5.92,77.06,1.84,6.21,4.02,12.32,6.52,18.29,1.17,2.79,3.1,5.88,3.25,8.96.14,2.78-1.92,4.73-4.11,6.1-9.69,6.05-22.25,1.91-30-5.35-4.2-3.93-7.48-8.7-10.25-13.72-3.04-5.51-5.59-11.31-7.65-17.26-4.13-11.96-6.17-24.8-4.44-37.41.8-5.83,2.36-11.64,4.79-17,2.39-5.27,5.51-10.57,9.93-14.39,3.96-3.43,9.49-5.22,14.03-1.78,4.63,3.51,5.82,9.6,5.9,15.06.05,3.44-.24,6.87-.36,10.31s-.16,6.55-.13,9.82c.07,6.71.47,13.41,1.19,20.07,1.44,13.36,4.11,26.58,8.04,39.42.96,3.13,2,6.24,3.1,9.32.85,2.36,4.64,1.34,3.79-1.04-4.76-13.29-8.18-27.05-10.17-41.02-2-14.02-2.28-28.06-1.63-42.18.29-6.41.14-13.29-3.59-18.8-3.3-4.88-8.73-7.77-14.66-6.47s-10.55,6.14-13.88,10.95c-3.6,5.19-6.27,11.02-8.06,17.07-3.75,12.68-3.51,26.19-.55,39,1.55,6.72,3.86,13.24,6.65,19.54,2.51,5.68,5.39,11.26,9.07,16.28,7.06,9.63,17.74,17.24,30.2,16.31,5.64-.42,12.14-2.73,15.34-7.7,1.84-2.86,1.61-6.24.47-9.31-1.2-3.24-2.74-6.37-4.01-9.59-9.9-25.24-14.01-52.65-11.94-79.68.25-3.28.59-6.55,1.02-9.81.14-1.05-.25-2.11-1.37-2.42-.91-.25-2.27.31-2.42,1.37h0Z"/>
          <path class="cls-13" d="m57.34,118.41c.49.64.67-.38.67-.38,0,0-18.86,76.58,18.18,107.51,0,0-11.79,4.15-26.94-18.11-15.15-22.26-9.76-75.44-9.76-75.44,0,0,12.12-21.12,17.85-13.58Z"/>
        </g>
      </g>
      <path class="cls-14" d="m119.58,132.36c-9.81,4.72-39.23,11.88-75.63,1.7.86-3.7,1.74-5.39,3.74-7.87,5.82,1.41,37.38,8.24,67.44-1.16l4.45,7.33Z"/>
      <g>
        <g>
          <path class="cls-13" d="m87.35,169.84l.8.17c.19.04.36.15.45.31.09.15.11.33-.19.45-.22.08-.47.06-.67-.05-.22-.12-.51-.17-.77-.04-.26.25.33.55.63.69.14.06.36.24.26.43-.09.18-.13.14-.33.16-.18.01-.4.01-.94-.2-.4-.15-.7-.3-1-.55-.63-.51-.63-.38-1.75-.73-.35-.11-.93-.24-1.29-.28-.39-.05-.68-.14-1.61-.23-.38-.03-1.93-.12-2.53-.35-1.64-.66-4.33-1.44-5.36-5.43-1.87-7.25-1.95-7.71-1.01-9.35.41-.72,1.1-1.24,1.89-1.45.27-.07,3.52-.44,3.52-.44h.48c.89.03,1.7.54,2.08,1.35.04.09.07.17.08.22.13.95.33,3.29.42,4.5.09,1.23.4,2.49,1.46,3.28l-.28-.07c-.24-.06-.49-.03-.7.1-.14.08-.21.18-.21.32,0,.3.24.46.59.52.18.04.36.08.5.11.15.04.28.15.32.3.04.13.02.28-.2.36-.44.15-.63.08-.63.08,0,0-.77-.14-.76.34.01.48.42.49.42.49,0,0,.78.07,1.18,0,.39-.07.47.09.47.09,0,0,.1.28-.19.45-.29.17-.66.4-.74.52-.1.15-.11.46.09.6.2.14.61.02.73-.09.12-.1.51-.56.72-.53.24.04.3.16.27.31-.03.15-.15.64-.34.8-.07.06-.11.14-.13.21-.06.18,0,.38.17.48.07.04.16.07.27.06.16-.01.31-.1.4-.24.15-.22.22-.62.45-.84.01,0,.02,0,.03.01.21.07.46.06.71-.07.24-.13,1.05-1.22,1.54-.92.31.19.04.66-.68,1.28-.72.63.49.39,1.75.13.9-.18,1.01-.15,1.22.05.14.13.06.49-.56.64-.84.2-1.38.15-1.37.41.01.3.25.4,1.08.38.56-.01.87.06.94.2.11.24-.14.44-.38.44-.23,0-.46.04-1.18.15-.75.11-.13.48-.13.48Z"/>
          <path class="cls-13" d="m81.47,162.18c.08,0,.16.01.23.03l.28.07.37.09c2.41.89,5.03,2.01,5.03,2.01,0,0,1.19.54,2.47,1.37,1.66,1.07,2.95,2.64,3.7,4.47.77,1.87,1.78,4.87,1.88,7.87.13,3.89-2.78,4.29-3.96,4.29-.3,0-.49-.03-.49-.03,0,0-.03,0-.09,0-.5,0-2.84-.21-3.25-4.1-.14-1.29-.38-2.37-.66-3.26-.58-1.84-2.21-2.89-3.73-4.08-.76-.59-1.52-.95-2.2-1.21.93.09,1.12.46,1.51.51.36.04.94.17,1.29.28,1.12.35,1.12.23,1.75.73.3.24.61.39,1,.55.44.17.67.2.83.2.04,0,.07,0,.11,0,.19-.02.23.02.33-.16.1-.19-.12-.37-.26-.43-.31-.14-.89-.44-.63-.69.11-.06.22-.08.33-.08.16,0,.31.05.44.12.12.07.25.1.39.1.09,0,.19-.02.28-.05.29-.11.28-.3.19-.45-.09-.17-.26-.27-.45-.31l-.8-.17s-.62-.37.13-.48c.72-.11.95-.15,1.18-.15.24,0,.49-.2.38-.44-.06-.13-.34-.2-.82-.2-.04,0-.07,0-.11,0-.06,0-.11,0-.17,0-.7,0-.9-.1-.92-.38,0-.26.54-.21,1.37-.41.62-.15.7-.51.56-.64-.11-.11-.2-.17-.41-.17-.17,0-.41.04-.82.12-.67.13-1.32.26-1.68.26-.32,0-.41-.1-.07-.4.72-.63.99-1.09.68-1.28-.06-.04-.12-.05-.19-.05-.49,0-1.14.86-1.35.98-.15.08-.3.12-.44.12-.09,0-.18-.02-.27-.04v-.04s-.02.02-.03.03c-.23.22-.29.62-.45.84-.09.13-.24.23-.4.24,0,0-.02,0-.03,0-.1,0-.18-.03-.24-.06-.17-.1-.23-.3-.17-.48.03-.07.07-.15.13-.21.19-.17.31-.66.34-.8.03-.15-.04-.27-.27-.31,0,0-.02,0-.02,0-.21,0-.58.43-.69.53-.08.07-.3.15-.49.15-.09,0-.18-.02-.24-.06-.2-.14-.19-.46-.09-.6.09-.13.45-.35.74-.52.29-.17.19-.45.19-.45,0,0-.05-.11-.28-.11-.05,0-.11,0-.18.02-.13.02-.31.03-.48.03-.35,0-.69-.03-.69-.03,0,0-.4,0-.42-.49,0-.3.29-.36.52-.36.13,0,.24.02.24.02,0,0,.04.01.13.01.1,0,.27-.02.5-.1.22-.07.23-.22.2-.36-.04-.15-.17-.26-.32-.29-.13-.03-.31-.07-.5-.11-.34-.07-.59-.22-.59-.52,0-.14.07-.23.21-.32.14-.09.3-.13.47-.13m0-.6c-.28,0-.55.08-.79.22-.41.25-.49.59-.49.83,0,.15.04.54.41.83-.13.05-.25.13-.34.22-.17.17-.26.41-.25.66.02.77.61,1.06,1,1.07,0,0,.12.01.31.02-.03.03-.06.07-.08.1-.27.41-.24,1.1.24,1.43.16.11.36.17.59.17.14,0,.28-.02.42-.06-.11.44.08.89.46,1.11.16.09.35.14.54.14.01,0,.05,0,.06,0,.35-.02.66-.2.86-.5.1-.15.17-.31.22-.45,0-.02.02-.05.03-.08.16,0,.33-.03.48-.08,0,.08.01.16.04.25.08.22.29.48.84.48.12,0,.26-.01.41-.03-.03.08-.04.18-.04.29.02.38.19.61.41.75-.2.14-.28.31-.31.46-.05.25.04.49.23.7-.02,0-.04.02-.05.03-.05.03-.09.06-.13.1-.19.19-.28.44-.24.7,0,.01,0,.02,0,.03-.13-.07-.24-.14-.36-.24-.53-.42-.73-.5-1.26-.64-.17-.05-.39-.11-.68-.2-.39-.12-1.01-.26-1.4-.3-.03,0-.11-.05-.2-.09-.25-.14-.63-.35-1.33-.41-.02,0-.04,0-.06,0-.28,0-.52.19-.58.47-.07.29.09.59.37.7.51.19,1.27.52,2.04,1.12.19.15.38.3.57.44,1.29.98,2.5,1.91,2.95,3.35.31.97.52,2.03.64,3.14.46,4.41,3.29,4.64,3.85,4.64.03,0,.05,0,.07,0,.09,0,.27.02.51.02.81,0,2.32-.17,3.4-1.28.83-.85,1.22-2.07,1.17-3.63-.1-3.05-1.11-6.07-1.93-8.08-.81-1.97-2.17-3.61-3.93-4.74-1.31-.84-2.5-1.39-2.55-1.41-.04-.02-2.68-1.14-5.07-2.02-.02,0-.04-.01-.06-.02l-.37-.09-.28-.07c-.12-.03-.25-.05-.38-.05h0Z"/>
          <path class="cls-1" d="m83.48,158.1l3.11-4.1c.56-.74,1.35-1.28,2.26-1.51.67-.17,1.57-.3,2.74-.3h2.24c.36,0,.73.09,1.03.29.49.33.95,1,.38,2.32-.98,2.27-5.95,6.55-5.95,6.55,0,0-2.03,1.72-4.69.48-1.52-.71-1.74-1.73-1.64-2.48.06-.45.25-.88.53-1.25Z"/>
        </g>
        <path class="cls-13" d="m73.35,169.25l.31,9.42c.03.82.24,1.64.66,2.33.5.83,1.37,1.7,2.83,1.82,1.3.11,2.2-.45,2.81-1.11.65-.71,1.04-1.67,1.13-2.67.14-1.56.4-4.81.16-5.96-.08-.39-.2-.7-.32-.95-.27-.54-.81-.87-1.38-.87-.45,0-1.17-.09-2.16-.44-1.48-.52-2.46-1.77-3.38-2.1-.33-.12-.67.15-.66.52Z"/>
      </g>
      <g>
        <path class="cls-16" d="m98.6,74.38h0c-3.71.2-6.11-.96-8.07-2.96-2.26-2.31-3.42-5.14-3.57-8.04l-.2-3.77c-.14-2.58.53-5.2,2.17-7.52,1.79-2.54,4.22-4.1,8.26-4.32h0c4.38-.23,7.37,1.36,9.45,4.07,1.36,1.78,2.03,3.82,2.14,5.89l.22,4.19c.16,2.96-.71,5.95-2.74,8.55-1.72,2.21-3.95,3.71-7.66,3.91Z"/>
        <g class="cls-5">
          <path class="cls-15" d="m97.19,47.77c-.01.45-9.06,12.15-.39,27.24,8.68,15.09,0,0,0,0l-9.05,3.02-6.04-13.58-.75-16.22,10.94-3.02,5.29,2.57"/>
        </g>
      </g>
    </g>
  </g>
</svg>